<?xml version="1.0" encoding="UTF-8"?>
<svg width="204px" height="35px" viewBox="0 0 204 35" version="1.1" xmlns="http://www.w3.org/2000/svg" xmlns:xlink="http://www.w3.org/1999/xlink">
    <!-- Generator: Sketch 52.4 (67378) - http://www.bohemiancoding.com/sketch -->
    <title>button__carrousel</title>
    <desc>Created with Sketch.</desc>
    <g id="Page-1" stroke="none" stroke-width="1" fill="none" fill-rule="evenodd">
        <g id="Artboard-Copy" transform="translate(-38.000000, -406.000000)">
            <g id="button__carrousel" transform="translate(38.956522, 406.543967)">
                <g id="card__carrousel--leftcursor" transform="translate(189.626598, 21.758691) rotate(180.000000) translate(-189.626598, -21.758691) translate(176.450128, 9.161554)">
                    <rect id="card__button--left-copy" fill="#939393" x="1.14578005" y="0" width="25.2071611" height="24.0490798" rx="6"></rect>
                    <rect id="card__button--left" stroke="#979797" fill="#B2B2B2" x="0.5" y="1.64519427" width="24.2071611" height="23.0490798" rx="6"></rect>
                    <polygon id="Triangle" stroke="#979797" fill="#D8D8D8" transform="translate(11.457801, 13.742331) rotate(270.000000) translate(-11.457801, -13.742331) " points="11.8395319 9.15921108 18.3289662 18.3254515 4.58663487 18.3254515"></polygon>
                </g>
                <g id="Group-3-Copy" transform="translate(60.726343, 0.000000)" stroke="#979797">
                    <rect id="card_container--subtitle" fill="#979797" x="0.5" y="2.79038855" width="80.3503836" height="27.6298569" rx="6"></rect>
                    <rect id="card_container--subtitle" fill="#B2B2B2" x="0.5" y="0.5" width="80.3503836" height="27.6298569" rx="6"></rect>
                </g>
                <g id="card__button--leftcursor" transform="translate(0.000000, 8.016360)">
                    <rect id="card__button--left-copy" fill="#939393" x="0" y="1.36974217" width="26.3529412" height="24.0490798" rx="6"></rect>
                    <rect id="card__button--left" stroke="#979797" fill="#B2B2B2" x="0.5" y="0.724547897" width="24.2071611" height="23.0490798" rx="6"></rect>
                    <polygon id="Triangle" stroke="#979797" fill="#D8D8D8" transform="translate(11.457801, 12.821685) rotate(270.000000) translate(-11.457801, -12.821685) " points="11.8395319 8.23856471 18.3289662 17.4048051 4.58663487 17.4048051"></polygon>
                </g>
            </g>
        </g>
    </g>
</svg>