<?xml version="1.0" encoding="utf-8"?>
<!-- Generator: Adobe Illustrator 23.0.1, SVG Export Plug-In . SVG Version: 6.00 Build 0)  -->
<svg version="1.1" id="Calque_1" xmlns="http://www.w3.org/2000/svg" xmlns:xlink="http://www.w3.org/1999/xlink" x="0px" y="0px"
	 viewBox="0 0 240 160" style="enable-background:new 0 0 240 160;" xml:space="preserve">
<style type="text/css">
	.st0{fill:#203951;}
	.st1{fill:#12202D;}
	.st2{fill:#FFFFFF;}
	.st3{display:none;}
	.st4{display:inline;fill:none;stroke:#000000;stroke-miterlimit:10;}
</style>
<g>
	<g id="XMLID_1_">
		<g>
			<rect x="100.15" y="90.93" class="st0" width="7.74" height="7.62"/>
			<rect x="100.15" y="83.31" class="st0" width="7.74" height="7.62"/>
			<rect x="100.15" y="75.69" class="st0" width="7.74" height="7.62"/>
			<rect x="100.15" y="68.07" class="st0" width="7.74" height="7.62"/>
			<rect x="100.15" y="60.45" class="st0" width="7.74" height="7.62"/>
			<rect x="100.15" y="52.83" class="st0" width="7.74" height="7.62"/>
			<rect x="100.15" y="45.21" class="st0" width="7.74" height="7.62"/>
			<rect x="100.15" y="37.6" class="st0" width="7.74" height="7.61"/>
			<rect x="100.15" y="29.98" class="st0" width="7.74" height="7.62"/>
			<rect x="100.15" y="22.36" class="st0" width="7.74" height="7.62"/>
			<rect x="100.15" y="14.74" class="st0" width="7.74" height="7.62"/>
			<rect x="92.4" y="90.93" class="st0" width="7.75" height="7.62"/>
			<rect x="92.4" y="83.31" class="st1" width="7.75" height="7.62"/>
			<rect x="92.4" y="75.69" class="st1" width="7.75" height="7.62"/>
			<rect x="92.4" y="68.07" class="st1" width="7.75" height="7.62"/>
			<rect x="92.4" y="60.45" class="st1" width="7.75" height="7.62"/>
			<rect x="92.4" y="52.83" class="st1" width="7.75" height="7.62"/>
			<rect x="92.4" y="45.21" class="st1" width="7.75" height="7.62"/>
			<rect x="92.4" y="37.6" class="st1" width="7.75" height="7.61"/>
			<rect x="92.4" y="29.98" class="st1" width="7.75" height="7.62"/>
			<rect x="92.4" y="22.36" class="st1" width="7.75" height="7.62"/>
			<rect x="92.4" y="14.74" class="st1" width="7.75" height="7.62"/>
			<rect x="84.66" y="90.93" class="st0" width="7.74" height="7.62"/>
			<rect x="84.66" y="83.31" class="st1" width="7.74" height="7.62"/>
			<rect x="84.66" y="75.69" class="st1" width="7.74" height="7.62"/>
			<rect x="84.66" y="68.07" class="st1" width="7.74" height="7.62"/>
			<rect x="84.66" y="60.45" class="st1" width="7.74" height="7.62"/>
			<rect x="84.66" y="52.83" class="st1" width="7.74" height="7.62"/>
			<rect x="84.66" y="45.21" class="st1" width="7.74" height="7.62"/>
			<rect x="84.66" y="37.6" class="st1" width="7.74" height="7.61"/>
			<rect x="84.66" y="29.98" class="st1" width="7.74" height="7.62"/>
			<rect x="84.66" y="22.36" class="st1" width="7.74" height="7.62"/>
			<rect x="84.66" y="14.74" class="st1" width="7.74" height="7.62"/>
			<rect x="76.92" y="90.93" class="st0" width="7.74" height="7.62"/>
			<rect x="76.92" y="83.31" class="st1" width="7.74" height="7.62"/>
			<rect x="76.92" y="75.69" class="st2" width="7.74" height="7.62"/>
			<rect x="76.92" y="68.07" class="st2" width="7.74" height="7.62"/>
			<rect x="76.92" y="60.45" class="st2" width="7.74" height="7.62"/>
			<rect x="76.92" y="52.83" class="st2" width="7.74" height="7.62"/>
			<rect x="76.92" y="45.21" class="st2" width="7.74" height="7.62"/>
			<rect x="76.92" y="37.6" class="st2" width="7.74" height="7.61"/>
			<rect x="76.92" y="29.98" class="st2" width="7.74" height="7.62"/>
			<rect x="76.92" y="22.36" class="st2" width="7.74" height="7.62"/>
			<rect x="76.92" y="14.74" class="st1" width="7.74" height="7.62"/>
			<rect x="69.18" y="90.93" class="st0" width="7.74" height="7.62"/>
			<rect x="69.18" y="83.31" class="st1" width="7.74" height="7.62"/>
			<rect x="69.18" y="75.69" class="st2" width="7.74" height="7.62"/>
			<rect x="69.18" y="68.07" class="st2" width="7.74" height="7.62"/>
			<rect x="69.18" y="60.45" class="st2" width="7.74" height="7.62"/>
			<rect x="69.18" y="52.83" class="st2" width="7.74" height="7.62"/>
			<rect x="69.18" y="45.21" class="st2" width="7.74" height="7.62"/>
			<rect x="69.18" y="37.6" class="st2" width="7.74" height="7.61"/>
			<rect x="69.18" y="29.98" class="st2" width="7.74" height="7.62"/>
			<rect x="69.18" y="22.36" class="st2" width="7.74" height="7.62"/>
			<rect x="69.18" y="14.74" class="st1" width="7.74" height="7.62"/>
			<rect x="61.44" y="90.93" class="st0" width="7.74" height="7.62"/>
			<rect x="61.44" y="83.31" class="st1" width="7.74" height="7.62"/>
			<rect x="61.44" y="75.69" class="st1" width="7.74" height="7.62"/>
			<rect x="61.44" y="68.07" class="st1" width="7.74" height="7.62"/>
			<rect x="61.44" y="60.45" class="st1" width="7.74" height="7.62"/>
			<rect x="61.44" y="52.83" class="st1" width="7.74" height="7.62"/>
			<rect x="61.44" y="45.21" class="st1" width="7.74" height="7.62"/>
			<rect x="61.44" y="37.6" class="st1" width="7.74" height="7.61"/>
			<rect x="61.44" y="29.98" class="st1" width="7.74" height="7.62"/>
			<rect x="61.44" y="22.36" class="st1" width="7.74" height="7.62"/>
			<rect x="61.44" y="14.74" class="st1" width="7.74" height="7.62"/>
			<rect x="53.69" y="90.93" class="st0" width="7.75" height="7.62"/>
			<rect x="53.69" y="83.31" class="st1" width="7.75" height="7.62"/>
			<rect x="53.69" y="75.69" class="st1" width="7.75" height="7.62"/>
			<rect x="53.69" y="68.07" class="st1" width="7.75" height="7.62"/>
			<rect x="53.69" y="60.45" class="st1" width="7.75" height="7.62"/>
			<rect x="53.69" y="52.83" class="st1" width="7.75" height="7.62"/>
			<rect x="53.69" y="45.21" class="st1" width="7.75" height="7.62"/>
			<rect x="53.69" y="37.6" class="st1" width="7.75" height="7.61"/>
			<rect x="53.69" y="29.98" class="st1" width="7.75" height="7.62"/>
			<rect x="53.69" y="22.36" class="st1" width="7.75" height="7.62"/>
			<rect x="53.69" y="14.74" class="st1" width="7.75" height="7.62"/>
			<rect x="45.95" y="90.93" class="st0" width="7.74" height="7.62"/>
			<rect x="45.95" y="83.31" class="st1" width="7.74" height="7.62"/>
			<rect x="45.95" y="75.69" class="st2" width="7.74" height="7.62"/>
			<rect x="45.95" y="68.07" class="st2" width="7.74" height="7.62"/>
			<rect x="45.95" y="60.45" class="st2" width="7.74" height="7.62"/>
			<rect x="45.95" y="52.83" class="st2" width="7.74" height="7.62"/>
			<rect x="45.95" y="45.21" class="st2" width="7.74" height="7.62"/>
			<rect x="45.95" y="37.6" class="st2" width="7.74" height="7.61"/>
			<rect x="45.95" y="29.98" class="st2" width="7.74" height="7.62"/>
			<rect x="45.95" y="22.36" class="st2" width="7.74" height="7.62"/>
			<rect x="45.95" y="14.74" class="st1" width="7.74" height="7.62"/>
			<rect x="38.21" y="90.93" class="st0" width="7.74" height="7.62"/>
			<rect x="38.21" y="83.31" class="st1" width="7.74" height="7.62"/>
			<rect x="38.21" y="75.69" class="st2" width="7.74" height="7.62"/>
			<rect x="38.21" y="68.07" class="st2" width="7.74" height="7.62"/>
			<rect x="38.21" y="60.45" class="st2" width="7.74" height="7.62"/>
			<rect x="38.21" y="52.83" class="st2" width="7.74" height="7.62"/>
			<rect x="38.21" y="45.21" class="st2" width="7.74" height="7.62"/>
			<rect x="38.21" y="37.6" class="st2" width="7.74" height="7.61"/>
			<rect x="38.21" y="29.98" class="st2" width="7.74" height="7.62"/>
			<rect x="38.21" y="22.36" class="st2" width="7.74" height="7.62"/>
			<rect x="38.21" y="14.74" class="st1" width="7.74" height="7.62"/>
			<rect x="30.47" y="90.93" class="st0" width="7.74" height="7.62"/>
			<rect x="30.47" y="83.31" class="st1" width="7.74" height="7.62"/>
			<rect x="30.47" y="75.69" class="st1" width="7.74" height="7.62"/>
			<rect x="30.47" y="68.07" class="st1" width="7.74" height="7.62"/>
			<rect x="30.47" y="60.45" class="st1" width="7.74" height="7.62"/>
			<rect x="30.47" y="52.83" class="st1" width="7.74" height="7.62"/>
			<rect x="30.47" y="45.21" class="st1" width="7.74" height="7.62"/>
			<rect x="30.47" y="37.6" class="st1" width="7.74" height="7.61"/>
			<rect x="30.47" y="29.98" class="st1" width="7.74" height="7.62"/>
			<rect x="30.47" y="22.36" class="st1" width="7.74" height="7.62"/>
			<rect x="30.47" y="14.74" class="st1" width="7.74" height="7.62"/>
			<rect x="22.73" y="90.93" class="st0" width="7.74" height="7.62"/>
			<rect x="22.73" y="83.31" class="st1" width="7.74" height="7.62"/>
			<rect x="22.73" y="75.69" class="st1" width="7.74" height="7.62"/>
			<rect x="22.73" y="68.07" class="st1" width="7.74" height="7.62"/>
			<rect x="22.73" y="60.45" class="st1" width="7.74" height="7.62"/>
			<rect x="22.73" y="52.83" class="st1" width="7.74" height="7.62"/>
			<rect x="22.73" y="45.21" class="st1" width="7.74" height="7.62"/>
			<rect x="22.73" y="37.6" class="st1" width="7.74" height="7.61"/>
			<rect x="22.73" y="29.98" class="st1" width="7.74" height="7.62"/>
			<rect x="22.73" y="22.36" class="st1" width="7.74" height="7.62"/>
			<rect x="22.73" y="14.74" class="st1" width="7.74" height="7.62"/>
		</g>
		<g class="st3">
			<polygon class="st4" points="-0.5,7.12 -0.5,-0.5 7.24,-0.5 14.98,-0.5 22.73,-0.5 30.47,-0.5 38.21,-0.5 45.95,-0.5 53.69,-0.5 
				61.44,-0.5 69.18,-0.5 76.92,-0.5 84.66,-0.5 92.4,-0.5 100.15,-0.5 107.89,-0.5 115.63,-0.5 123.37,-0.5 131.11,-0.5 
				138.85,-0.5 146.6,-0.5 154.34,-0.5 162.08,-0.5 169.82,-0.5 177.56,-0.5 185.31,-0.5 193.05,-0.5 200.79,-0.5 208.53,-0.5 
				216.27,-0.5 224.02,-0.5 231.76,-0.5 239.5,-0.5 239.5,7.12 239.5,14.74 239.5,22.36 239.5,29.98 239.5,37.6 239.5,45.21 
				239.5,52.83 239.5,60.45 239.5,68.07 239.5,75.69 239.5,83.31 239.5,90.93 239.5,98.55 239.5,106.17 239.5,113.79 239.5,121.4 
				239.5,129.02 239.5,136.64 239.5,144.26 239.5,151.88 239.5,159.5 231.76,159.5 224.02,159.5 216.27,159.5 208.53,159.5 
				200.79,159.5 193.05,159.5 185.31,159.5 177.56,159.5 169.82,159.5 162.08,159.5 154.34,159.5 146.6,159.5 138.85,159.5 
				131.11,159.5 123.37,159.5 115.63,159.5 107.89,159.5 100.15,159.5 92.4,159.5 84.66,159.5 76.92,159.5 69.18,159.5 61.44,159.5 
				53.69,159.5 45.95,159.5 38.21,159.5 30.47,159.5 22.73,159.5 14.98,159.5 7.24,159.5 -0.5,159.5 -0.5,151.88 -0.5,144.26 
				-0.5,136.64 -0.5,129.02 -0.5,121.4 -0.5,113.79 -0.5,106.17 -0.5,98.55 -0.5,90.93 -0.5,83.31 -0.5,75.69 -0.5,68.07 
				-0.5,60.45 -0.5,52.83 -0.5,45.21 -0.5,37.6 -0.5,29.98 -0.5,22.36 -0.5,14.74 			"/>
			<polyline class="st4" points="-0.5,151.88 7.24,151.88 14.98,151.88 22.73,151.88 30.47,151.88 38.21,151.88 45.95,151.88 
				53.69,151.88 61.44,151.88 69.18,151.88 76.92,151.88 84.66,151.88 92.4,151.88 100.15,151.88 107.89,151.88 115.63,151.88 
				123.37,151.88 131.11,151.88 138.85,151.88 146.6,151.88 154.34,151.88 162.08,151.88 169.82,151.88 177.56,151.88 
				185.31,151.88 193.05,151.88 200.79,151.88 208.53,151.88 216.27,151.88 224.02,151.88 231.76,151.88 239.5,151.88 			"/>
			<polyline class="st4" points="-0.5,144.26 7.24,144.26 14.98,144.26 22.73,144.26 30.47,144.26 38.21,144.26 45.95,144.26 
				53.69,144.26 61.44,144.26 69.18,144.26 76.92,144.26 84.66,144.26 92.4,144.26 100.15,144.26 107.89,144.26 115.63,144.26 
				123.37,144.26 131.11,144.26 138.85,144.26 146.6,144.26 154.34,144.26 162.08,144.26 169.82,144.26 177.56,144.26 
				185.31,144.26 193.05,144.26 200.79,144.26 208.53,144.26 216.27,144.26 224.02,144.26 231.76,144.26 239.5,144.26 			"/>
			<polyline class="st4" points="-0.5,136.64 7.24,136.64 14.98,136.64 22.73,136.64 30.47,136.64 38.21,136.64 45.95,136.64 
				53.69,136.64 61.44,136.64 69.18,136.64 76.92,136.64 84.66,136.64 92.4,136.64 100.15,136.64 107.89,136.64 115.63,136.64 
				123.37,136.64 131.11,136.64 138.85,136.64 146.6,136.64 154.34,136.64 162.08,136.64 169.82,136.64 177.56,136.64 
				185.31,136.64 193.05,136.64 200.79,136.64 208.53,136.64 216.27,136.64 224.02,136.64 231.76,136.64 239.5,136.64 			"/>
			<polyline class="st4" points="-0.5,129.02 7.24,129.02 14.98,129.02 22.73,129.02 30.47,129.02 38.21,129.02 45.95,129.02 
				53.69,129.02 61.44,129.02 69.18,129.02 76.92,129.02 84.66,129.02 92.4,129.02 100.15,129.02 107.89,129.02 115.63,129.02 
				123.37,129.02 131.11,129.02 138.85,129.02 146.6,129.02 154.34,129.02 162.08,129.02 169.82,129.02 177.56,129.02 
				185.31,129.02 193.05,129.02 200.79,129.02 208.53,129.02 216.27,129.02 224.02,129.02 231.76,129.02 239.5,129.02 			"/>
			<polyline class="st4" points="-0.5,121.4 7.24,121.4 14.98,121.4 22.73,121.4 30.47,121.4 38.21,121.4 45.95,121.4 53.69,121.4 
				61.44,121.4 69.18,121.4 76.92,121.4 84.66,121.4 92.4,121.4 100.15,121.4 107.89,121.4 115.63,121.4 123.37,121.4 131.11,121.4 
				138.85,121.4 146.6,121.4 154.34,121.4 162.08,121.4 169.82,121.4 177.56,121.4 185.31,121.4 193.05,121.4 200.79,121.4 
				208.53,121.4 216.27,121.4 224.02,121.4 231.76,121.4 239.5,121.4 			"/>
			<polyline class="st4" points="-0.5,113.79 7.24,113.79 14.98,113.79 22.73,113.79 30.47,113.79 38.21,113.79 45.95,113.79 
				53.69,113.79 61.44,113.79 69.18,113.79 76.92,113.79 84.66,113.79 92.4,113.79 100.15,113.79 107.89,113.79 115.63,113.79 
				123.37,113.79 131.11,113.79 138.85,113.79 146.6,113.79 154.34,113.79 162.08,113.79 169.82,113.79 177.56,113.79 
				185.31,113.79 193.05,113.79 200.79,113.79 208.53,113.79 216.27,113.79 224.02,113.79 231.76,113.79 239.5,113.79 			"/>
			<polyline class="st4" points="-0.5,106.17 7.24,106.17 14.98,106.17 22.73,106.17 30.47,106.17 38.21,106.17 45.95,106.17 
				53.69,106.17 61.44,106.17 69.18,106.17 76.92,106.17 84.66,106.17 92.4,106.17 100.15,106.17 107.89,106.17 115.63,106.17 
				123.37,106.17 131.11,106.17 138.85,106.17 146.6,106.17 154.34,106.17 162.08,106.17 169.82,106.17 177.56,106.17 
				185.31,106.17 193.05,106.17 200.79,106.17 208.53,106.17 216.27,106.17 224.02,106.17 231.76,106.17 239.5,106.17 			"/>
			<polyline class="st4" points="-0.5,98.55 7.24,98.55 14.98,98.55 22.73,98.55 30.47,98.55 38.21,98.55 45.95,98.55 53.69,98.55 
				61.44,98.55 69.18,98.55 76.92,98.55 84.66,98.55 92.4,98.55 100.15,98.55 107.89,98.55 115.63,98.55 123.37,98.55 131.11,98.55 
				138.85,98.55 146.6,98.55 154.34,98.55 162.08,98.55 169.82,98.55 177.56,98.55 185.31,98.55 193.05,98.55 200.79,98.55 
				208.53,98.55 216.27,98.55 224.02,98.55 231.76,98.55 239.5,98.55 			"/>
			<polyline class="st4" points="-0.5,90.93 7.24,90.93 14.98,90.93 22.73,90.93 30.47,90.93 38.21,90.93 45.95,90.93 53.69,90.93 
				61.44,90.93 69.18,90.93 76.92,90.93 84.66,90.93 92.4,90.93 100.15,90.93 107.89,90.93 115.63,90.93 123.37,90.93 131.11,90.93 
				138.85,90.93 146.6,90.93 154.34,90.93 162.08,90.93 169.82,90.93 177.56,90.93 185.31,90.93 193.05,90.93 200.79,90.93 
				208.53,90.93 216.27,90.93 224.02,90.93 231.76,90.93 239.5,90.93 			"/>
			<polyline class="st4" points="-0.5,83.31 7.24,83.31 14.98,83.31 22.73,83.31 30.47,83.31 38.21,83.31 45.95,83.31 53.69,83.31 
				61.44,83.31 69.18,83.31 76.92,83.31 84.66,83.31 92.4,83.31 100.15,83.31 107.89,83.31 115.63,83.31 123.37,83.31 131.11,83.31 
				138.85,83.31 146.6,83.31 154.34,83.31 162.08,83.31 169.82,83.31 177.56,83.31 185.31,83.31 193.05,83.31 200.79,83.31 
				208.53,83.31 216.27,83.31 224.02,83.31 231.76,83.31 239.5,83.31 			"/>
			<polyline class="st4" points="-0.5,75.69 7.24,75.69 14.98,75.69 22.73,75.69 30.47,75.69 38.21,75.69 45.95,75.69 53.69,75.69 
				61.44,75.69 69.18,75.69 76.92,75.69 84.66,75.69 92.4,75.69 100.15,75.69 107.89,75.69 115.63,75.69 123.37,75.69 131.11,75.69 
				138.85,75.69 146.6,75.69 154.34,75.69 162.08,75.69 169.82,75.69 177.56,75.69 185.31,75.69 193.05,75.69 200.79,75.69 
				208.53,75.69 216.27,75.69 224.02,75.69 231.76,75.69 239.5,75.69 			"/>
			<polyline class="st4" points="-0.5,68.07 7.24,68.07 14.98,68.07 22.73,68.07 30.47,68.07 38.21,68.07 45.95,68.07 53.69,68.07 
				61.44,68.07 69.18,68.07 76.92,68.07 84.66,68.07 92.4,68.07 100.15,68.07 107.89,68.07 115.63,68.07 123.37,68.07 131.11,68.07 
				138.85,68.07 146.6,68.07 154.34,68.07 162.08,68.07 169.82,68.07 177.56,68.07 185.31,68.07 193.05,68.07 200.79,68.07 
				208.53,68.07 216.27,68.07 224.02,68.07 231.76,68.07 239.5,68.07 			"/>
			<polyline class="st4" points="-0.5,60.45 7.24,60.45 14.98,60.45 22.73,60.45 30.47,60.45 38.21,60.45 45.95,60.45 53.69,60.45 
				61.44,60.45 69.18,60.45 76.92,60.45 84.66,60.45 92.4,60.45 100.15,60.45 107.89,60.45 115.63,60.45 123.37,60.45 131.11,60.45 
				138.85,60.45 146.6,60.45 154.34,60.45 162.08,60.45 169.82,60.45 177.56,60.45 185.31,60.45 193.05,60.45 200.79,60.45 
				208.53,60.45 216.27,60.45 224.02,60.45 231.76,60.45 239.5,60.45 			"/>
			<polyline class="st4" points="-0.5,52.83 7.24,52.83 14.98,52.83 22.73,52.83 30.47,52.83 38.21,52.83 45.95,52.83 53.69,52.83 
				61.44,52.83 69.18,52.83 76.92,52.83 84.66,52.83 92.4,52.83 100.15,52.83 107.89,52.83 115.63,52.83 123.37,52.83 131.11,52.83 
				138.85,52.83 146.6,52.83 154.34,52.83 162.08,52.83 169.82,52.83 177.56,52.83 185.31,52.83 193.05,52.83 200.79,52.83 
				208.53,52.83 216.27,52.83 224.02,52.83 231.76,52.83 239.5,52.83 			"/>
			<polyline class="st4" points="-0.5,45.21 7.24,45.21 14.98,45.21 22.73,45.21 30.47,45.21 38.21,45.21 45.95,45.21 53.69,45.21 
				61.44,45.21 69.18,45.21 76.92,45.21 84.66,45.21 92.4,45.21 100.15,45.21 107.89,45.21 115.63,45.21 123.37,45.21 131.11,45.21 
				138.85,45.21 146.6,45.21 154.34,45.21 162.08,45.21 169.82,45.21 177.56,45.21 185.31,45.21 193.05,45.21 200.79,45.21 
				208.53,45.21 216.27,45.21 224.02,45.21 231.76,45.21 239.5,45.21 			"/>
			<polyline class="st4" points="-0.5,37.6 7.24,37.6 14.98,37.6 22.73,37.6 30.47,37.6 38.21,37.6 45.95,37.6 53.69,37.6 
				61.44,37.6 69.18,37.6 76.92,37.6 84.66,37.6 92.4,37.6 100.15,37.6 107.89,37.6 115.63,37.6 123.37,37.6 131.11,37.6 
				138.85,37.6 146.6,37.6 154.34,37.6 162.08,37.6 169.82,37.6 177.56,37.6 185.31,37.6 193.05,37.6 200.79,37.6 208.53,37.6 
				216.27,37.6 224.02,37.6 231.76,37.6 239.5,37.6 			"/>
			<polyline class="st4" points="-0.5,29.98 7.24,29.98 14.98,29.98 22.73,29.98 30.47,29.98 38.21,29.98 45.95,29.98 53.69,29.98 
				61.44,29.98 69.18,29.98 76.92,29.98 84.66,29.98 92.4,29.98 100.15,29.98 107.89,29.98 115.63,29.98 123.37,29.98 131.11,29.98 
				138.85,29.98 146.6,29.98 154.34,29.98 162.08,29.98 169.82,29.98 177.56,29.98 185.31,29.98 193.05,29.98 200.79,29.98 
				208.53,29.98 216.27,29.98 224.02,29.98 231.76,29.98 239.5,29.98 			"/>
			<polyline class="st4" points="-0.5,22.36 7.24,22.36 14.98,22.36 22.73,22.36 30.47,22.36 38.21,22.36 45.95,22.36 53.69,22.36 
				61.44,22.36 69.18,22.36 76.92,22.36 84.66,22.36 92.4,22.36 100.15,22.36 107.89,22.36 115.63,22.36 123.37,22.36 131.11,22.36 
				138.85,22.36 146.6,22.36 154.34,22.36 162.08,22.36 169.82,22.36 177.56,22.36 185.31,22.36 193.05,22.36 200.79,22.36 
				208.53,22.36 216.27,22.36 224.02,22.36 231.76,22.36 239.5,22.36 			"/>
			<polyline class="st4" points="-0.5,14.74 7.24,14.74 14.98,14.74 22.73,14.74 30.47,14.74 38.21,14.74 45.95,14.74 53.69,14.74 
				61.44,14.74 69.18,14.74 76.92,14.74 84.66,14.74 92.4,14.74 100.15,14.74 107.89,14.74 115.63,14.74 123.37,14.74 131.11,14.74 
				138.85,14.74 146.6,14.74 154.34,14.74 162.08,14.74 169.82,14.74 177.56,14.74 185.31,14.74 193.05,14.74 200.79,14.74 
				208.53,14.74 216.27,14.74 224.02,14.74 231.76,14.74 239.5,14.74 			"/>
			<polyline class="st4" points="-0.5,7.12 7.24,7.12 14.98,7.12 22.73,7.12 30.47,7.12 38.21,7.12 45.95,7.12 53.69,7.12 
				61.44,7.12 69.18,7.12 76.92,7.12 84.66,7.12 92.4,7.12 100.15,7.12 107.89,7.12 115.63,7.12 123.37,7.12 131.11,7.12 
				138.85,7.12 146.6,7.12 154.34,7.12 162.08,7.12 169.82,7.12 177.56,7.12 185.31,7.12 193.05,7.12 200.79,7.12 208.53,7.12 
				216.27,7.12 224.02,7.12 231.76,7.12 239.5,7.12 			"/>
			<polyline class="st4" points="231.76,-0.5 231.76,7.12 231.76,14.74 231.76,22.36 231.76,29.98 231.76,37.6 231.76,45.21 
				231.76,52.83 231.76,60.45 231.76,68.07 231.76,75.69 231.76,83.31 231.76,90.93 231.76,98.55 231.76,106.17 231.76,113.79 
				231.76,121.4 231.76,129.02 231.76,136.64 231.76,144.26 231.76,151.88 231.76,159.5 			"/>
			<polyline class="st4" points="224.02,-0.5 224.02,7.12 224.02,14.74 224.02,22.36 224.02,29.98 224.02,37.6 224.02,45.21 
				224.02,52.83 224.02,60.45 224.02,68.07 224.02,75.69 224.02,83.31 224.02,90.93 224.02,98.55 224.02,106.17 224.02,113.79 
				224.02,121.4 224.02,129.02 224.02,136.64 224.02,144.26 224.02,151.88 224.02,159.5 			"/>
			<polyline class="st4" points="216.27,-0.5 216.27,7.12 216.27,14.74 216.27,22.36 216.27,29.98 216.27,37.6 216.27,45.21 
				216.27,52.83 216.27,60.45 216.27,68.07 216.27,75.69 216.27,83.31 216.27,90.93 216.27,98.55 216.27,106.17 216.27,113.79 
				216.27,121.4 216.27,129.02 216.27,136.64 216.27,144.26 216.27,151.88 216.27,159.5 			"/>
			<polyline class="st4" points="208.53,-0.5 208.53,7.12 208.53,14.74 208.53,22.36 208.53,29.98 208.53,37.6 208.53,45.21 
				208.53,52.83 208.53,60.45 208.53,68.07 208.53,75.69 208.53,83.31 208.53,90.93 208.53,98.55 208.53,106.17 208.53,113.79 
				208.53,121.4 208.53,129.02 208.53,136.64 208.53,144.26 208.53,151.88 208.53,159.5 			"/>
			<polyline class="st4" points="200.79,-0.5 200.79,7.12 200.79,14.74 200.79,22.36 200.79,29.98 200.79,37.6 200.79,45.21 
				200.79,52.83 200.79,60.45 200.79,68.07 200.79,75.69 200.79,83.31 200.79,90.93 200.79,98.55 200.79,106.17 200.79,113.79 
				200.79,121.4 200.79,129.02 200.79,136.64 200.79,144.26 200.79,151.88 200.79,159.5 			"/>
			<polyline class="st4" points="193.05,-0.5 193.05,7.12 193.05,14.74 193.05,22.36 193.05,29.98 193.05,37.6 193.05,45.21 
				193.05,52.83 193.05,60.45 193.05,68.07 193.05,75.69 193.05,83.31 193.05,90.93 193.05,98.55 193.05,106.17 193.05,113.79 
				193.05,121.4 193.05,129.02 193.05,136.64 193.05,144.26 193.05,151.88 193.05,159.5 			"/>
			<polyline class="st4" points="185.31,-0.5 185.31,7.12 185.31,14.74 185.31,22.36 185.31,29.98 185.31,37.6 185.31,45.21 
				185.31,52.83 185.31,60.45 185.31,68.07 185.31,75.69 185.31,83.31 185.31,90.93 185.31,98.55 185.31,106.17 185.31,113.79 
				185.31,121.4 185.31,129.02 185.31,136.64 185.31,144.26 185.31,151.88 185.31,159.5 			"/>
			<polyline class="st4" points="177.56,-0.5 177.56,7.12 177.56,14.74 177.56,22.36 177.56,29.98 177.56,37.6 177.56,45.21 
				177.56,52.83 177.56,60.45 177.56,68.07 177.56,75.69 177.56,83.31 177.56,90.93 177.56,98.55 177.56,106.17 177.56,113.79 
				177.56,121.4 177.56,129.02 177.56,136.64 177.56,144.26 177.56,151.88 177.56,159.5 			"/>
			<polyline class="st4" points="169.82,-0.5 169.82,7.12 169.82,14.74 169.82,22.36 169.82,29.98 169.82,37.6 169.82,45.21 
				169.82,52.83 169.82,60.45 169.82,68.07 169.82,75.69 169.82,83.31 169.82,90.93 169.82,98.55 169.82,106.17 169.82,113.79 
				169.82,121.4 169.82,129.02 169.82,136.64 169.82,144.26 169.82,151.88 169.82,159.5 			"/>
			<polyline class="st4" points="162.08,-0.5 162.08,7.12 162.08,14.74 162.08,22.36 162.08,29.98 162.08,37.6 162.08,45.21 
				162.08,52.83 162.08,60.45 162.08,68.07 162.08,75.69 162.08,83.31 162.08,90.93 162.08,98.55 162.08,106.17 162.08,113.79 
				162.08,121.4 162.08,129.02 162.08,136.64 162.08,144.26 162.08,151.88 162.08,159.5 			"/>
			<polyline class="st4" points="154.34,-0.5 154.34,7.12 154.34,14.74 154.34,22.36 154.34,29.98 154.34,37.6 154.34,45.21 
				154.34,52.83 154.34,60.45 154.34,68.07 154.34,75.69 154.34,83.31 154.34,90.93 154.34,98.55 154.34,106.17 154.34,113.79 
				154.34,121.4 154.34,129.02 154.34,136.64 154.34,144.26 154.34,151.88 154.34,159.5 			"/>
			<polyline class="st4" points="146.6,-0.5 146.6,7.12 146.6,14.74 146.6,22.36 146.6,29.98 146.6,37.6 146.6,45.21 146.6,52.83 
				146.6,60.45 146.6,68.07 146.6,75.69 146.6,83.31 146.6,90.93 146.6,98.55 146.6,106.17 146.6,113.79 146.6,121.4 146.6,129.02 
				146.6,136.64 146.6,144.26 146.6,151.88 146.6,159.5 			"/>
			<polyline class="st4" points="138.85,-0.5 138.85,7.12 138.85,14.74 138.85,22.36 138.85,29.98 138.85,37.6 138.85,45.21 
				138.85,52.83 138.85,60.45 138.85,68.07 138.85,75.69 138.85,83.31 138.85,90.93 138.85,98.55 138.85,106.17 138.85,113.79 
				138.85,121.4 138.85,129.02 138.85,136.64 138.85,144.26 138.85,151.88 138.85,159.5 			"/>
			<polyline class="st4" points="131.11,-0.5 131.11,7.12 131.11,14.74 131.11,22.36 131.11,29.98 131.11,37.6 131.11,45.21 
				131.11,52.83 131.11,60.45 131.11,68.07 131.11,75.69 131.11,83.31 131.11,90.93 131.11,98.55 131.11,106.17 131.11,113.79 
				131.11,121.4 131.11,129.02 131.11,136.64 131.11,144.26 131.11,151.88 131.11,159.5 			"/>
			<polyline class="st4" points="123.37,-0.5 123.37,7.12 123.37,14.74 123.37,22.36 123.37,29.98 123.37,37.6 123.37,45.21 
				123.37,52.83 123.37,60.45 123.37,68.07 123.37,75.69 123.37,83.31 123.37,90.93 123.37,98.55 123.37,106.17 123.37,113.79 
				123.37,121.4 123.37,129.02 123.37,136.64 123.37,144.26 123.37,151.88 123.37,159.5 			"/>
			<polyline class="st4" points="115.63,-0.5 115.63,7.12 115.63,14.74 115.63,22.36 115.63,29.98 115.63,37.6 115.63,45.21 
				115.63,52.83 115.63,60.45 115.63,68.07 115.63,75.69 115.63,83.31 115.63,90.93 115.63,98.55 115.63,106.17 115.63,113.79 
				115.63,121.4 115.63,129.02 115.63,136.64 115.63,144.26 115.63,151.88 115.63,159.5 			"/>
			<polyline class="st4" points="107.89,-0.5 107.89,7.12 107.89,14.74 107.89,22.36 107.89,29.98 107.89,37.6 107.89,45.21 
				107.89,52.83 107.89,60.45 107.89,68.07 107.89,75.69 107.89,83.31 107.89,90.93 107.89,98.55 107.89,106.17 107.89,113.79 
				107.89,121.4 107.89,129.02 107.89,136.64 107.89,144.26 107.89,151.88 107.89,159.5 			"/>
			<polyline class="st4" points="100.15,-0.5 100.15,7.12 100.15,14.74 100.15,22.36 100.15,29.98 100.15,37.6 100.15,45.21 
				100.15,52.83 100.15,60.45 100.15,68.07 100.15,75.69 100.15,83.31 100.15,90.93 100.15,98.55 100.15,106.17 100.15,113.79 
				100.15,121.4 100.15,129.02 100.15,136.64 100.15,144.26 100.15,151.88 100.15,159.5 			"/>
			<polyline class="st4" points="92.4,-0.5 92.4,7.12 92.4,14.74 92.4,22.36 92.4,29.98 92.4,37.6 92.4,45.21 92.4,52.83 
				92.4,60.45 92.4,68.07 92.4,75.69 92.4,83.31 92.4,90.93 92.4,98.55 92.4,106.17 92.4,113.79 92.4,121.4 92.4,129.02 
				92.4,136.64 92.4,144.26 92.4,151.88 92.4,159.5 			"/>
			<polyline class="st4" points="84.66,-0.5 84.66,7.12 84.66,14.74 84.66,22.36 84.66,29.98 84.66,37.6 84.66,45.21 84.66,52.83 
				84.66,60.45 84.66,68.07 84.66,75.69 84.66,83.31 84.66,90.93 84.66,98.55 84.66,106.17 84.66,113.79 84.66,121.4 84.66,129.02 
				84.66,136.64 84.66,144.26 84.66,151.88 84.66,159.5 			"/>
			<polyline class="st4" points="76.92,-0.5 76.92,7.12 76.92,14.74 76.92,22.36 76.92,29.98 76.92,37.6 76.92,45.21 76.92,52.83 
				76.92,60.45 76.92,68.07 76.92,75.69 76.92,83.31 76.92,90.93 76.92,98.55 76.92,106.17 76.92,113.79 76.92,121.4 76.92,129.02 
				76.92,136.64 76.92,144.26 76.92,151.88 76.92,159.5 			"/>
			<polyline class="st4" points="69.18,-0.5 69.18,7.12 69.18,14.74 69.18,22.36 69.18,29.98 69.18,37.6 69.18,45.21 69.18,52.83 
				69.18,60.45 69.18,68.07 69.18,75.69 69.18,83.31 69.18,90.93 69.18,98.55 69.18,106.17 69.18,113.79 69.18,121.4 69.18,129.02 
				69.18,136.64 69.18,144.26 69.18,151.88 69.18,159.5 			"/>
			<polyline class="st4" points="61.44,-0.5 61.44,7.12 61.44,14.74 61.44,22.36 61.44,29.98 61.44,37.6 61.44,45.21 61.44,52.83 
				61.44,60.45 61.44,68.07 61.44,75.69 61.44,83.31 61.44,90.93 61.44,98.55 61.44,106.17 61.44,113.79 61.44,121.4 61.44,129.02 
				61.44,136.64 61.44,144.26 61.44,151.88 61.44,159.5 			"/>
			<polyline class="st4" points="53.69,-0.5 53.69,7.12 53.69,14.74 53.69,22.36 53.69,29.98 53.69,37.6 53.69,45.21 53.69,52.83 
				53.69,60.45 53.69,68.07 53.69,75.69 53.69,83.31 53.69,90.93 53.69,98.55 53.69,106.17 53.69,113.79 53.69,121.4 53.69,129.02 
				53.69,136.64 53.69,144.26 53.69,151.88 53.69,159.5 			"/>
			<polyline class="st4" points="45.95,-0.5 45.95,7.12 45.95,14.74 45.95,22.36 45.95,29.98 45.95,37.6 45.95,45.21 45.95,52.83 
				45.95,60.45 45.95,68.07 45.95,75.69 45.95,83.31 45.95,90.93 45.95,98.55 45.95,106.17 45.95,113.79 45.95,121.4 45.95,129.02 
				45.95,136.64 45.95,144.26 45.95,151.88 45.95,159.5 			"/>
			<polyline class="st4" points="38.21,-0.5 38.21,7.12 38.21,14.74 38.21,22.36 38.21,29.98 38.21,37.6 38.21,45.21 38.21,52.83 
				38.21,60.45 38.21,68.07 38.21,75.69 38.21,83.31 38.21,90.93 38.21,98.55 38.21,106.17 38.21,113.79 38.21,121.4 38.21,129.02 
				38.21,136.64 38.21,144.26 38.21,151.88 38.21,159.5 			"/>
			<polyline class="st4" points="30.47,-0.5 30.47,7.12 30.47,14.74 30.47,22.36 30.47,29.98 30.47,37.6 30.47,45.21 30.47,52.83 
				30.47,60.45 30.47,68.07 30.47,75.69 30.47,83.31 30.47,90.93 30.47,98.55 30.47,106.17 30.47,113.79 30.47,121.4 30.47,129.02 
				30.47,136.64 30.47,144.26 30.47,151.88 30.47,159.5 			"/>
			<polyline class="st4" points="22.73,-0.5 22.73,7.12 22.73,14.74 22.73,22.36 22.73,29.98 22.73,37.6 22.73,45.21 22.73,52.83 
				22.73,60.45 22.73,68.07 22.73,75.69 22.73,83.31 22.73,90.93 22.73,98.55 22.73,106.17 22.73,113.79 22.73,121.4 22.73,129.02 
				22.73,136.64 22.73,144.26 22.73,151.88 22.73,159.5 			"/>
			<polyline class="st4" points="14.98,-0.5 14.98,7.12 14.98,14.74 14.98,22.36 14.98,29.98 14.98,37.6 14.98,45.21 14.98,52.83 
				14.98,60.45 14.98,68.07 14.98,75.69 14.98,83.31 14.98,90.93 14.98,98.55 14.98,106.17 14.98,113.79 14.98,121.4 14.98,129.02 
				14.98,136.64 14.98,144.26 14.98,151.88 14.98,159.5 			"/>
			<polyline class="st4" points="7.24,-0.5 7.24,7.12 7.24,14.74 7.24,22.36 7.24,29.98 7.24,37.6 7.24,45.21 7.24,52.83 
				7.24,60.45 7.24,68.07 7.24,75.69 7.24,83.31 7.24,90.93 7.24,98.55 7.24,106.17 7.24,113.79 7.24,121.4 7.24,129.02 
				7.24,136.64 7.24,144.26 7.24,151.88 7.24,159.5 			"/>
		</g>
	</g>
</g>
</svg>
