<?xml version="1.0" encoding="utf-8"?>
<!-- Generator: Adobe Illustrator 23.0.1, SVG Export Plug-In . SVG Version: 6.00 Build 0)  -->
<svg version="1.1" id="Calque_1" xmlns="http://www.w3.org/2000/svg" xmlns:xlink="http://www.w3.org/1999/xlink" x="0px" y="0px"
	 viewBox="0 0 103.2 335.5" style="enable-background:new 0 0 103.2 335.5;" xml:space="preserve">
<style type="text/css">
	.st0{fill:#30261A;}
	.st1{display:none;stroke:#000000;stroke-miterlimit:10;}
	.st2{stroke:#000000;stroke-miterlimit:10;}
	.st3{fill:#261E16;}
	.st4{fill:#35517A;}
	.st5{fill:#131F28;}
	.st6{fill:#EDCA96;}
	.st7{display:none;}
	.st8{display:inline;fill:none;stroke:#000000;stroke-miterlimit:10;}
	.st9{fill:#232323;}
</style>
<g>
	<rect x="52" y="36.3" class="st0" width="13" height="10"/>
	<rect x="128.5" y="257.8" class="st1" width="13" height="4"/>
	<rect x="10.5" y="309.8" class="st1" width="4" height="13"/>
	<path class="st2" d="M68.5,322.8"/>
	<rect x="33" y="33.3" class="st0" width="13" height="10"/>
	<rect x="21" y="32.3" class="st0" width="13" height="10"/>
	<rect x="13" y="37.3" class="st0" width="13" height="10"/>
	<rect y="38.3" class="st0" width="13" height="10"/>
	<rect x="13" y="38.3" class="st0" width="13" height="10"/>
	<g id="XMLID_1_">
		<g>
			<rect x="25.7" y="322.6" class="st3" width="12.9" height="12.9"/>
			<rect x="38.7" y="322.6" class="st3" width="12.9" height="12.9"/>
			<rect x="38.7" y="283.9" class="st4" width="12.9" height="12.9"/>
			<rect x="38.7" y="309.7" class="st4" width="12.9" height="12.9"/>
			<rect x="38.7" y="258.1" class="st4" width="12.9" height="12.9"/>
			<rect x="38.7" y="206.5" class="st4" width="12.9" height="12.9"/>
			<rect x="38.7" y="232.3" class="st4" width="12.9" height="12.9"/>
			<rect x="38.7" y="245.2" class="st4" width="12.9" height="12.9"/>
			<rect x="38.7" y="271" class="st4" width="12.9" height="12.9"/>
			<rect x="38.7" y="219.4" class="st4" width="12.9" height="12.9"/>
			<rect x="38.7" y="296.8" class="st4" width="12.9" height="12.9"/>
			<rect x="51.6" y="322.6" class="st3" width="12.9" height="12.9"/>
			<rect x="64.5" y="322.6" class="st3" width="12.9" height="12.9"/>
			<rect x="64.5" y="283.9" class="st4" width="12.9" height="12.9"/>
			<rect x="64.5" y="271" class="st4" width="12.9" height="12.9"/>
			<rect x="64.5" y="296.8" class="st4" width="12.9" height="12.9"/>
			<rect x="64.5" y="245.2" class="st4" width="12.9" height="12.9"/>
			<rect x="64.5" y="309.7" class="st4" width="12.9" height="12.9"/>
			<rect x="64.5" y="258.1" class="st4" width="12.9" height="12.9"/>
			<rect x="64.5" y="232.3" class="st4" width="12.9" height="12.9"/>
			<rect x="64.5" y="219.4" class="st4" width="12.9" height="12.9"/>
			<rect x="64.5" y="206.5" class="st4" width="12.9" height="12.9"/>
			<rect x="12.8" y="103.2" class="st5" width="12.9" height="12.9"/>
			<rect x="90.3" y="103.2" class="st5" width="12.9" height="12.9"/>
			<rect x="-0.1" y="51.6" class="st3" width="12.9" height="12.9"/>
			<rect x="-0.1" y="38.7" class="st3" width="12.9" height="12.9"/>
			<rect x="-0.1" y="25.8" class="st3" width="12.9" height="12.9"/>
			<rect x="12.8" y="206.5" class="st6" width="12.9" height="12.9"/>
			<rect x="12.8" y="193.6" class="st5" width="12.9" height="12.9"/>
			<rect x="12.8" y="180.6" class="st5" width="12.9" height="12.9"/>
			<rect x="12.8" y="167.7" class="st5" width="12.9" height="12.9"/>
			<rect x="12.8" y="154.8" class="st5" width="12.9" height="12.9"/>
			<rect x="12.8" y="141.9" class="st5" width="12.9" height="12.9"/>
			<rect x="12.8" y="129" class="st5" width="12.9" height="12.9"/>
			<rect x="12.8" y="116.1" class="st5" width="12.9" height="12.9"/>
			<rect x="12.8" y="64.5" class="st6" width="12.9" height="12.9"/>
			<rect x="12.8" y="51.6" class="st6" width="12.9" height="12.9"/>
			<rect x="12.8" y="38.7" class="st3" width="12.9" height="12.9"/>
			<rect x="12.8" y="25.8" class="st3" width="12.9" height="12.9"/>
			<rect x="12.8" y="12.9" class="st3" width="12.9" height="12.9"/>
			<rect x="25.7" y="103.2" class="st5" width="12.9" height="12.9"/>
			<rect x="25.7" y="77.4" class="st6" width="12.9" height="12.9"/>
			<rect x="25.7" y="64.5" width="12.9" height="12.9"/>
			<rect x="25.7" y="51.6" class="st6" width="12.9" height="12.9"/>
			<rect x="25.7" y="38.7" class="st3" width="12.9" height="12.9"/>
			<rect x="25.7" y="25.8" class="st3" width="12.9" height="12.9"/>
			<rect x="25.7" y="12.9" class="st3" width="12.9" height="12.9"/>
			<rect x="25.7" class="st3" width="12.9" height="12.9"/>
			<rect x="38.7" y="193.6" class="st4" width="12.9" height="12.9"/>
			<rect x="38.7" y="180.6" class="st5" width="12.9" height="12.9"/>
			<rect x="38.7" y="167.7" class="st5" width="12.9" height="12.9"/>
			<rect x="38.7" y="154.8" class="st5" width="12.9" height="12.9"/>
			<rect x="38.7" y="141.9" class="st5" width="12.9" height="12.9"/>
			<rect x="38.7" y="129" class="st5" width="12.9" height="12.9"/>
			<rect x="38.7" y="116.1" class="st5" width="12.9" height="12.9"/>
			<rect x="38.7" y="103.2" class="st5" width="12.9" height="12.9"/>
			<rect x="38.7" y="90.3" class="st6" width="12.9" height="12.9"/>
			<rect x="38.7" y="77.4" class="st6" width="12.9" height="12.9"/>
			<rect x="38.7" y="64.5" width="12.9" height="12.9"/>
			<rect x="38.7" y="51.6" class="st6" width="12.9" height="12.9"/>
			<rect x="38.7" y="38.7" class="st3" width="12.9" height="12.9"/>
			<rect x="38.7" y="25.8" class="st3" width="12.9" height="12.9"/>
			<rect x="38.7" y="12.9" class="st3" width="12.9" height="12.9"/>
			<rect x="38.7" class="st3" width="12.9" height="12.9"/>
			<rect x="51.6" y="193.6" class="st4" width="12.9" height="12.9"/>
			<rect x="51.6" y="180.6" class="st5" width="12.9" height="12.9"/>
			<rect x="51.6" y="167.7" class="st5" width="12.9" height="12.9"/>
			<rect x="51.6" y="154.8" class="st5" width="12.9" height="12.9"/>
			<rect x="51.6" y="141.9" class="st5" width="12.9" height="12.9"/>
			<rect x="51.6" y="129" class="st5" width="12.9" height="12.9"/>
			<rect x="51.6" y="116.1" class="st5" width="12.9" height="12.9"/>
			<rect x="51.6" y="103.2" class="st5" width="12.9" height="12.9"/>
			<rect x="51.6" y="90.3" class="st6" width="12.9" height="12.9"/>
			<rect x="51.6" y="77.4" class="st6" width="12.9" height="12.9"/>
			<rect x="51.6" y="64.5" class="st6" width="12.9" height="12.9"/>
			<rect x="51.6" y="51.6" class="st6" width="12.9" height="12.9"/>
			<rect x="51.6" y="38.7" class="st6" width="12.9" height="12.9"/>
			<rect x="51.6" y="25.8" class="st3" width="12.9" height="12.9"/>
			<rect x="51.6" y="12.9" class="st3" width="12.9" height="12.9"/>
			<rect x="51.6" class="st3" width="12.9" height="12.9"/>
			<rect x="64.5" y="193.6" class="st4" width="12.9" height="12.9"/>
			<rect x="64.5" y="180.6" class="st5" width="12.9" height="12.9"/>
			<rect x="64.5" y="167.7" class="st5" width="12.9" height="12.9"/>
			<rect x="64.5" y="154.8" class="st5" width="12.9" height="12.9"/>
			<rect x="64.5" y="141.9" class="st5" width="12.9" height="12.9"/>
			<rect x="64.5" y="129" class="st5" width="12.9" height="12.9"/>
			<rect x="64.5" y="116.1" class="st5" width="12.9" height="12.9"/>
			<rect x="64.5" y="103.2" class="st5" width="12.9" height="12.9"/>
			<rect x="64.5" y="90.3" class="st6" width="12.9" height="12.9"/>
			<rect x="64.5" y="77.4" class="st6" width="12.9" height="12.9"/>
			<rect x="64.5" y="64.5" class="st6" width="12.9" height="12.9"/>
			<rect x="64.5" y="51.6" class="st6" width="12.9" height="12.9"/>
			<rect x="64.5" y="38.7" class="st3" width="12.9" height="12.9"/>
			<rect x="64.5" y="25.8" class="st3" width="12.9" height="12.9"/>
			<rect x="64.5" y="12.9" class="st3" width="12.9" height="12.9"/>
			<rect x="64.5" class="st3" width="12.9" height="12.9"/>
			<rect x="77.3" y="103.2" class="st5" width="12.9" height="12.9"/>
			<rect x="77.3" y="64.5" class="st3" width="12.9" height="12.9"/>
			<rect x="77.3" y="51.6" class="st3" width="12.9" height="12.9"/>
			<rect x="77.3" y="38.7" class="st3" width="12.9" height="12.9"/>
			<rect x="77.3" y="25.8" class="st3" width="12.9" height="12.9"/>
			<rect x="77.3" y="12.9" class="st3" width="12.9" height="12.9"/>
			<rect x="90.3" y="206.5" class="st6" width="12.9" height="12.9"/>
			<rect x="90.3" y="193.6" class="st5" width="12.9" height="12.9"/>
			<rect x="90.3" y="180.6" class="st5" width="12.9" height="12.9"/>
			<rect x="90.3" y="167.7" class="st5" width="12.9" height="12.9"/>
			<rect x="90.3" y="154.8" class="st5" width="12.9" height="12.9"/>
			<rect x="90.3" y="141.9" class="st5" width="12.9" height="12.9"/>
			<rect x="90.3" y="129" class="st5" width="12.9" height="12.9"/>
			<rect x="90.3" y="116.1" class="st5" width="12.9" height="12.9"/>
			<rect x="90.3" y="51.6" class="st3" width="12.9" height="12.9"/>
			<rect x="90.3" y="38.7" class="st3" width="12.9" height="12.9"/>
			<rect x="90.3" y="25.8" class="st3" width="12.9" height="12.9"/>
		</g>
		<g class="st7">
			<polygon class="st8" points="-142,335.5 -142,322.6 -142,309.7 -142,296.8 -142,283.9 -142,271 -142,258.1 -142,245.2 
				-142,232.3 -142,219.4 -142,206.5 -142,193.6 -142,180.6 -142,167.7 -142,154.8 -142,141.9 -142,129 -142,116.1 -142,103.2 
				-142,90.3 -142,77.4 -142,64.5 -142,51.6 -142,38.7 -142,25.8 -142,12.9 -142,0 -142,-12.9 -142,-25.8 -142,-38.7 -129.1,-38.7 
				-116.2,-38.7 -103.3,-38.7 -90.4,-38.7 -77.5,-38.7 -64.6,-38.7 -51.7,-38.7 -38.8,-38.7 -25.9,-38.7 -13,-38.7 -0.1,-38.7 
				12.8,-38.7 25.7,-38.7 38.6,-38.7 51.6,-38.7 64.4,-38.7 77.4,-38.7 90.3,-38.7 103.2,-38.7 116.1,-38.7 129,-38.7 141.9,-38.7 
				154.8,-38.7 167.7,-38.7 180.6,-38.7 193.5,-38.7 206.4,-38.7 219.3,-38.7 232.2,-38.7 245.1,-38.7 258,-38.7 258,-25.8 
				258,-12.9 258,0 258,12.9 258,25.8 258,38.7 258,51.6 258,64.5 258,77.4 258,90.3 258,103.2 258,116.1 258,129 258,141.9 
				258,154.8 258,167.7 258,180.6 258,193.6 258,206.5 258,219.4 258,232.3 258,245.2 258,258.1 258,271 258,283.9 258,296.8 
				258,309.7 258,322.6 258,335.5 258,348.4 258,361.3 245.1,361.3 232.2,361.3 219.3,361.3 206.4,361.3 193.5,361.3 180.6,361.3 
				167.7,361.3 154.8,361.3 141.9,361.3 129,361.3 116.1,361.3 103.2,361.3 90.3,361.3 77.4,361.3 64.4,361.3 51.6,361.3 
				38.6,361.3 25.7,361.3 12.8,361.3 -0.1,361.3 -13,361.3 -25.9,361.3 -38.8,361.3 -51.7,361.3 -64.6,361.3 -77.5,361.3 
				-90.4,361.3 -103.3,361.3 -116.2,361.3 -129.1,361.3 -142,361.3 -142,348.4 			"/>
			<polyline class="st8" points="258,-25.8 245.1,-25.8 232.2,-25.8 219.3,-25.8 206.4,-25.8 193.5,-25.8 180.6,-25.8 167.7,-25.8 
				154.8,-25.8 141.9,-25.8 129,-25.8 116.1,-25.8 103.2,-25.8 90.3,-25.8 77.4,-25.8 64.4,-25.8 51.6,-25.8 38.6,-25.8 25.7,-25.8 
				12.8,-25.8 -0.1,-25.8 -13,-25.8 -25.9,-25.8 -38.8,-25.8 -51.7,-25.8 -64.6,-25.8 -77.5,-25.8 -90.4,-25.8 -103.3,-25.8 
				-116.2,-25.8 -129.1,-25.8 -142,-25.8 			"/>
			<polyline class="st8" points="258,-12.9 245.1,-12.9 232.2,-12.9 219.3,-12.9 206.4,-12.9 193.5,-12.9 180.6,-12.9 167.7,-12.9 
				154.8,-12.9 141.9,-12.9 129,-12.9 116.1,-12.9 103.2,-12.9 90.3,-12.9 77.4,-12.9 64.4,-12.9 51.6,-12.9 38.6,-12.9 25.7,-12.9 
				12.8,-12.9 -0.1,-12.9 -13,-12.9 -25.9,-12.9 -38.8,-12.9 -51.7,-12.9 -64.6,-12.9 -77.5,-12.9 -90.4,-12.9 -103.3,-12.9 
				-116.2,-12.9 -129.1,-12.9 -142,-12.9 			"/>
			<polyline class="st8" points="258,0 245.1,0 232.2,0 219.3,0 206.4,0 193.5,0 180.6,0 167.7,0 154.8,0 141.9,0 129,0 116.1,0 
				103.2,0 90.3,0 77.4,0 64.4,0 51.6,0 38.6,0 25.7,0 12.8,0 -0.1,0 -13,0 -25.9,0 -38.8,0 -51.7,0 -64.6,0 -77.5,0 -90.4,0 
				-103.3,0 -116.2,0 -129.1,0 -142,0 			"/>
			<polyline class="st8" points="258,12.9 245.1,12.9 232.2,12.9 219.3,12.9 206.4,12.9 193.5,12.9 180.6,12.9 167.7,12.9 
				154.8,12.9 141.9,12.9 129,12.9 116.1,12.9 103.2,12.9 90.3,12.9 77.4,12.9 64.4,12.9 51.6,12.9 38.6,12.9 25.7,12.9 12.8,12.9 
				-0.1,12.9 -13,12.9 -25.9,12.9 -38.8,12.9 -51.7,12.9 -64.6,12.9 -77.5,12.9 -90.4,12.9 -103.3,12.9 -116.2,12.9 -129.1,12.9 
				-142,12.9 			"/>
			<polyline class="st8" points="258,25.8 245.1,25.8 232.2,25.8 219.3,25.8 206.4,25.8 193.5,25.8 180.6,25.8 167.7,25.8 
				154.8,25.8 141.9,25.8 129,25.8 116.1,25.8 103.2,25.8 90.3,25.8 77.4,25.8 64.4,25.8 51.6,25.8 38.6,25.8 25.7,25.8 12.8,25.8 
				-0.1,25.8 -13,25.8 -25.9,25.8 -38.8,25.8 -51.7,25.8 -64.6,25.8 -77.5,25.8 -90.4,25.8 -103.3,25.8 -116.2,25.8 -129.1,25.8 
				-142,25.8 			"/>
			<polyline class="st8" points="258,38.7 245.1,38.7 232.2,38.7 219.3,38.7 206.4,38.7 193.5,38.7 180.6,38.7 167.7,38.7 
				154.8,38.7 141.9,38.7 129,38.7 116.1,38.7 103.2,38.7 90.3,38.7 77.4,38.7 64.4,38.7 51.6,38.7 38.6,38.7 25.7,38.7 12.8,38.7 
				-0.1,38.7 -13,38.7 -25.9,38.7 -38.8,38.7 -51.7,38.7 -64.6,38.7 -77.5,38.7 -90.4,38.7 -103.3,38.7 -116.2,38.7 -129.1,38.7 
				-142,38.7 			"/>
			<polyline class="st8" points="258,51.6 245.1,51.6 232.2,51.6 219.3,51.6 206.4,51.6 193.5,51.6 180.6,51.6 167.7,51.6 
				154.8,51.6 141.9,51.6 129,51.6 116.1,51.6 103.2,51.6 90.3,51.6 77.4,51.6 64.4,51.6 51.6,51.6 38.6,51.6 25.7,51.6 12.8,51.6 
				-0.1,51.6 -13,51.6 -25.9,51.6 -38.8,51.6 -51.7,51.6 -64.6,51.6 -77.5,51.6 -90.4,51.6 -103.3,51.6 -116.2,51.6 -129.1,51.6 
				-142,51.6 			"/>
			<polyline class="st8" points="258,64.5 245.1,64.5 232.2,64.5 219.3,64.5 206.4,64.5 193.5,64.5 180.6,64.5 167.7,64.5 
				154.8,64.5 141.9,64.5 129,64.5 116.1,64.5 103.2,64.5 90.3,64.5 77.4,64.5 64.4,64.5 51.6,64.5 38.6,64.5 25.7,64.5 12.8,64.5 
				-0.1,64.5 -13,64.5 -25.9,64.5 -38.8,64.5 -51.7,64.5 -64.6,64.5 -77.5,64.5 -90.4,64.5 -103.3,64.5 -116.2,64.5 -129.1,64.5 
				-142,64.5 			"/>
			<polyline class="st8" points="258,77.4 245.1,77.4 232.2,77.4 219.3,77.4 206.4,77.4 193.5,77.4 180.6,77.4 167.7,77.4 
				154.8,77.4 141.9,77.4 129,77.4 116.1,77.4 103.2,77.4 90.3,77.4 77.4,77.4 64.4,77.4 51.6,77.4 38.6,77.4 25.7,77.4 12.8,77.4 
				-0.1,77.4 -13,77.4 -25.9,77.4 -38.8,77.4 -51.7,77.4 -64.6,77.4 -77.5,77.4 -90.4,77.4 -103.3,77.4 -116.2,77.4 -129.1,77.4 
				-142,77.4 			"/>
			<polyline class="st8" points="258,90.3 245.1,90.3 232.2,90.3 219.3,90.3 206.4,90.3 193.5,90.3 180.6,90.3 167.7,90.3 
				154.8,90.3 141.9,90.3 129,90.3 116.1,90.3 103.2,90.3 90.3,90.3 77.4,90.3 64.4,90.3 51.6,90.3 38.6,90.3 25.7,90.3 12.8,90.3 
				-0.1,90.3 -13,90.3 -25.9,90.3 -38.8,90.3 -51.7,90.3 -64.6,90.3 -77.5,90.3 -90.4,90.3 -103.3,90.3 -116.2,90.3 -129.1,90.3 
				-142,90.3 			"/>
			<polyline class="st8" points="258,103.2 245.1,103.2 232.2,103.2 219.3,103.2 206.4,103.2 193.5,103.2 180.6,103.2 167.7,103.2 
				154.8,103.2 141.9,103.2 129,103.2 116.1,103.2 103.2,103.2 90.3,103.2 77.4,103.2 64.4,103.2 51.6,103.2 38.6,103.2 25.7,103.2 
				12.8,103.2 -0.1,103.2 -13,103.2 -25.9,103.2 -38.8,103.2 -51.7,103.2 -64.6,103.2 -77.5,103.2 -90.4,103.2 -103.3,103.2 
				-116.2,103.2 -129.1,103.2 -142,103.2 			"/>
			<polyline class="st8" points="258,116.1 245.1,116.1 232.2,116.1 219.3,116.1 206.4,116.1 193.5,116.1 180.6,116.1 167.7,116.1 
				154.8,116.1 141.9,116.1 129,116.1 116.1,116.1 103.2,116.1 90.3,116.1 77.4,116.1 64.4,116.1 51.6,116.1 38.6,116.1 25.7,116.1 
				12.8,116.1 -0.1,116.1 -13,116.1 -25.9,116.1 -38.8,116.1 -51.7,116.1 -64.6,116.1 -77.5,116.1 -90.4,116.1 -103.3,116.1 
				-116.2,116.1 -129.1,116.1 -142,116.1 			"/>
			<polyline class="st8" points="258,129 245.1,129 232.2,129 219.3,129 206.4,129 193.5,129 180.6,129 167.7,129 154.8,129 
				141.9,129 129,129 116.1,129 103.2,129 90.3,129 77.4,129 64.4,129 51.6,129 38.6,129 25.7,129 12.8,129 -0.1,129 -13,129 
				-25.9,129 -38.8,129 -51.7,129 -64.6,129 -77.5,129 -90.4,129 -103.3,129 -116.2,129 -129.1,129 -142,129 			"/>
			<polyline class="st8" points="258,141.9 245.1,141.9 232.2,141.9 219.3,141.9 206.4,141.9 193.5,141.9 180.6,141.9 167.7,141.9 
				154.8,141.9 141.9,141.9 129,141.9 116.1,141.9 103.2,141.9 90.3,141.9 77.4,141.9 64.4,141.9 51.6,141.9 38.6,141.9 25.7,141.9 
				12.8,141.9 -0.1,141.9 -13,141.9 -25.9,141.9 -38.8,141.9 -51.7,141.9 -64.6,141.9 -77.5,141.9 -90.4,141.9 -103.3,141.9 
				-116.2,141.9 -129.1,141.9 -142,141.9 			"/>
			<polyline class="st8" points="258,154.8 245.1,154.8 232.2,154.8 219.3,154.8 206.4,154.8 193.5,154.8 180.6,154.8 167.7,154.8 
				154.8,154.8 141.9,154.8 129,154.8 116.1,154.8 103.2,154.8 90.3,154.8 77.4,154.8 64.4,154.8 51.6,154.8 38.6,154.8 25.7,154.8 
				12.8,154.8 -0.1,154.8 -13,154.8 -25.9,154.8 -38.8,154.8 -51.7,154.8 -64.6,154.8 -77.5,154.8 -90.4,154.8 -103.3,154.8 
				-116.2,154.8 -129.1,154.8 -142,154.8 			"/>
			<polyline class="st8" points="258,167.7 245.1,167.7 232.2,167.7 219.3,167.7 206.4,167.7 193.5,167.7 180.6,167.7 167.7,167.7 
				154.8,167.7 141.9,167.7 129,167.7 116.1,167.7 103.2,167.7 90.3,167.7 77.4,167.7 64.4,167.7 51.6,167.7 38.6,167.7 25.7,167.7 
				12.8,167.7 -0.1,167.7 -13,167.7 -25.9,167.7 -38.8,167.7 -51.7,167.7 -64.6,167.7 -77.5,167.7 -90.4,167.7 -103.3,167.7 
				-116.2,167.7 -129.1,167.7 -142,167.7 			"/>
			<polyline class="st8" points="258,180.6 245.1,180.6 232.2,180.6 219.3,180.6 206.4,180.6 193.5,180.6 180.6,180.6 167.7,180.6 
				154.8,180.6 141.9,180.6 129,180.6 116.1,180.6 103.2,180.6 90.3,180.6 77.4,180.6 64.4,180.6 51.6,180.6 38.6,180.6 25.7,180.6 
				12.8,180.6 -0.1,180.6 -13,180.6 -25.9,180.6 -38.8,180.6 -51.7,180.6 -64.6,180.6 -77.5,180.6 -90.4,180.6 -103.3,180.6 
				-116.2,180.6 -129.1,180.6 -142,180.6 			"/>
			<polyline class="st8" points="258,193.6 245.1,193.6 232.2,193.6 219.3,193.6 206.4,193.6 193.5,193.6 180.6,193.6 167.7,193.6 
				154.8,193.6 141.9,193.6 129,193.6 116.1,193.6 103.2,193.6 90.3,193.6 77.4,193.6 64.4,193.6 51.6,193.6 38.6,193.6 25.7,193.6 
				12.8,193.6 -0.1,193.6 -13,193.6 -25.9,193.6 -38.8,193.6 -51.7,193.6 -64.6,193.6 -77.5,193.6 -90.4,193.6 -103.3,193.6 
				-116.2,193.6 -129.1,193.6 -142,193.6 			"/>
			<polyline class="st8" points="258,206.5 245.1,206.5 232.2,206.5 219.3,206.5 206.4,206.5 193.5,206.5 180.6,206.5 167.7,206.5 
				154.8,206.5 141.9,206.5 129,206.5 116.1,206.5 103.2,206.5 90.3,206.5 77.4,206.5 64.4,206.5 51.6,206.5 38.6,206.5 25.7,206.5 
				12.8,206.5 -0.1,206.5 -13,206.5 -25.9,206.5 -38.8,206.5 -51.7,206.5 -64.6,206.5 -77.5,206.5 -90.4,206.5 -103.3,206.5 
				-116.2,206.5 -129.1,206.5 -142,206.5 			"/>
			<polyline class="st8" points="258,219.4 245.1,219.4 232.2,219.4 219.3,219.4 206.4,219.4 193.5,219.4 180.6,219.4 167.7,219.4 
				154.8,219.4 141.9,219.4 129,219.4 116.1,219.4 103.2,219.4 90.3,219.4 77.4,219.4 64.4,219.4 51.6,219.4 38.6,219.4 25.7,219.4 
				12.8,219.4 -0.1,219.4 -13,219.4 -25.9,219.4 -38.8,219.4 -51.7,219.4 -64.6,219.4 -77.5,219.4 -90.4,219.4 -103.3,219.4 
				-116.2,219.4 -129.1,219.4 -142,219.4 			"/>
			<polyline class="st8" points="258,232.3 245.1,232.3 232.2,232.3 219.3,232.3 206.4,232.3 193.5,232.3 180.6,232.3 167.7,232.3 
				154.8,232.3 141.9,232.3 129,232.3 116.1,232.3 103.2,232.3 90.3,232.3 77.4,232.3 64.4,232.3 51.6,232.3 38.6,232.3 25.7,232.3 
				12.8,232.3 -0.1,232.3 -13,232.3 -25.9,232.3 -38.8,232.3 -51.7,232.3 -64.6,232.3 -77.5,232.3 -90.4,232.3 -103.3,232.3 
				-116.2,232.3 -129.1,232.3 -142,232.3 			"/>
			<polyline class="st8" points="258,245.2 245.1,245.2 232.2,245.2 219.3,245.2 206.4,245.2 193.5,245.2 180.6,245.2 167.7,245.2 
				154.8,245.2 141.9,245.2 129,245.2 116.1,245.2 103.2,245.2 90.3,245.2 77.4,245.2 64.4,245.2 51.6,245.2 38.6,245.2 25.7,245.2 
				12.8,245.2 -0.1,245.2 -13,245.2 -25.9,245.2 -38.8,245.2 -51.7,245.2 -64.6,245.2 -77.5,245.2 -90.4,245.2 -103.3,245.2 
				-116.2,245.2 -129.1,245.2 -142,245.2 			"/>
			<polyline class="st8" points="258,258.1 245.1,258.1 232.2,258.1 219.3,258.1 206.4,258.1 193.5,258.1 180.6,258.1 167.7,258.1 
				154.8,258.1 141.9,258.1 129,258.1 116.1,258.1 103.2,258.1 90.3,258.1 77.4,258.1 64.4,258.1 51.6,258.1 38.6,258.1 25.7,258.1 
				12.8,258.1 -0.1,258.1 -13,258.1 -25.9,258.1 -38.8,258.1 -51.7,258.1 -64.6,258.1 -77.5,258.1 -90.4,258.1 -103.3,258.1 
				-116.2,258.1 -129.1,258.1 -142,258.1 			"/>
			<polyline class="st8" points="258,271 245.1,271 232.2,271 219.3,271 206.4,271 193.5,271 180.6,271 167.7,271 154.8,271 
				141.9,271 129,271 116.1,271 103.2,271 90.3,271 77.4,271 64.4,271 51.6,271 38.6,271 25.7,271 12.8,271 -0.1,271 -13,271 
				-25.9,271 -38.8,271 -51.7,271 -64.6,271 -77.5,271 -90.4,271 -103.3,271 -116.2,271 -129.1,271 -142,271 			"/>
			<polyline class="st8" points="258,283.9 245.1,283.9 232.2,283.9 219.3,283.9 206.4,283.9 193.5,283.9 180.6,283.9 167.7,283.9 
				154.8,283.9 141.9,283.9 129,283.9 116.1,283.9 103.2,283.9 90.3,283.9 77.4,283.9 64.4,283.9 51.6,283.9 38.6,283.9 25.7,283.9 
				12.8,283.9 -0.1,283.9 -13,283.9 -25.9,283.9 -38.8,283.9 -51.7,283.9 -64.6,283.9 -77.5,283.9 -90.4,283.9 -103.3,283.9 
				-116.2,283.9 -129.1,283.9 -142,283.9 			"/>
			<polyline class="st8" points="258,296.8 245.1,296.8 232.2,296.8 219.3,296.8 206.4,296.8 193.5,296.8 180.6,296.8 167.7,296.8 
				154.8,296.8 141.9,296.8 129,296.8 116.1,296.8 103.2,296.8 90.3,296.8 77.4,296.8 64.4,296.8 51.6,296.8 38.6,296.8 25.7,296.8 
				12.8,296.8 -0.1,296.8 -13,296.8 -25.9,296.8 -38.8,296.8 -51.7,296.8 -64.6,296.8 -77.5,296.8 -90.4,296.8 -103.3,296.8 
				-116.2,296.8 -129.1,296.8 -142,296.8 			"/>
			<polyline class="st8" points="258,309.7 245.1,309.7 232.2,309.7 219.3,309.7 206.4,309.7 193.5,309.7 180.6,309.7 167.7,309.7 
				154.8,309.7 141.9,309.7 129,309.7 116.1,309.7 103.2,309.7 90.3,309.7 77.4,309.7 64.4,309.7 51.6,309.7 38.6,309.7 25.7,309.7 
				12.8,309.7 -0.1,309.7 -13,309.7 -25.9,309.7 -38.8,309.7 -51.7,309.7 -64.6,309.7 -77.5,309.7 -90.4,309.7 -103.3,309.7 
				-116.2,309.7 -129.1,309.7 -142,309.7 			"/>
			<polyline class="st8" points="258,322.6 245.1,322.6 232.2,322.6 219.3,322.6 206.4,322.6 193.5,322.6 180.6,322.6 167.7,322.6 
				154.8,322.6 141.9,322.6 129,322.6 116.1,322.6 103.2,322.6 90.3,322.6 77.4,322.6 64.4,322.6 51.6,322.6 38.6,322.6 25.7,322.6 
				12.8,322.6 -0.1,322.6 -13,322.6 -25.9,322.6 -38.8,322.6 -51.7,322.6 -64.6,322.6 -77.5,322.6 -90.4,322.6 -103.3,322.6 
				-116.2,322.6 -129.1,322.6 -142,322.6 			"/>
			<polyline class="st8" points="258,335.5 245.1,335.5 232.2,335.5 219.3,335.5 206.4,335.5 193.5,335.5 180.6,335.5 167.7,335.5 
				154.8,335.5 141.9,335.5 129,335.5 116.1,335.5 103.2,335.5 90.3,335.5 77.4,335.5 64.4,335.5 51.6,335.5 38.6,335.5 25.7,335.5 
				12.8,335.5 -0.1,335.5 -13,335.5 -25.9,335.5 -38.8,335.5 -51.7,335.5 -64.6,335.5 -77.5,335.5 -90.4,335.5 -103.3,335.5 
				-116.2,335.5 -129.1,335.5 -142,335.5 			"/>
			<polyline class="st8" points="258,348.4 245.1,348.4 232.2,348.4 219.3,348.4 206.4,348.4 193.5,348.4 180.6,348.4 167.7,348.4 
				154.8,348.4 141.9,348.4 129,348.4 116.1,348.4 103.2,348.4 90.3,348.4 77.4,348.4 64.4,348.4 51.6,348.4 38.6,348.4 25.7,348.4 
				12.8,348.4 -0.1,348.4 -13,348.4 -25.9,348.4 -38.8,348.4 -51.7,348.4 -64.6,348.4 -77.5,348.4 -90.4,348.4 -103.3,348.4 
				-116.2,348.4 -129.1,348.4 -142,348.4 			"/>
			<polyline class="st8" points="245.1,-38.7 245.1,-25.8 245.1,-12.9 245.1,0 245.1,12.9 245.1,25.8 245.1,38.7 245.1,51.6 
				245.1,64.5 245.1,77.4 245.1,90.3 245.1,103.2 245.1,116.1 245.1,129 245.1,141.9 245.1,154.8 245.1,167.7 245.1,180.6 
				245.1,193.6 245.1,206.5 245.1,219.4 245.1,232.3 245.1,245.2 245.1,258.1 245.1,271 245.1,283.9 245.1,296.8 245.1,309.7 
				245.1,322.6 245.1,335.5 245.1,348.4 245.1,361.3 			"/>
			<polyline class="st8" points="232.2,-38.7 232.2,-25.8 232.2,-12.9 232.2,0 232.2,12.9 232.2,25.8 232.2,38.7 232.2,51.6 
				232.2,64.5 232.2,77.4 232.2,90.3 232.2,103.2 232.2,116.1 232.2,129 232.2,141.9 232.2,154.8 232.2,167.7 232.2,180.6 
				232.2,193.6 232.2,206.5 232.2,219.4 232.2,232.3 232.2,245.2 232.2,258.1 232.2,271 232.2,283.9 232.2,296.8 232.2,309.7 
				232.2,322.6 232.2,335.5 232.2,348.4 232.2,361.3 			"/>
			<polyline class="st8" points="219.3,-38.7 219.3,-25.8 219.3,-12.9 219.3,0 219.3,12.9 219.3,25.8 219.3,38.7 219.3,51.6 
				219.3,64.5 219.3,77.4 219.3,90.3 219.3,103.2 219.3,116.1 219.3,129 219.3,141.9 219.3,154.8 219.3,167.7 219.3,180.6 
				219.3,193.6 219.3,206.5 219.3,219.4 219.3,232.3 219.3,245.2 219.3,258.1 219.3,271 219.3,283.9 219.3,296.8 219.3,309.7 
				219.3,322.6 219.3,335.5 219.3,348.4 219.3,361.3 			"/>
			<polyline class="st8" points="206.4,-38.7 206.4,-25.8 206.4,-12.9 206.4,0 206.4,12.9 206.4,25.8 206.4,38.7 206.4,51.6 
				206.4,64.5 206.4,77.4 206.4,90.3 206.4,103.2 206.4,116.1 206.4,129 206.4,141.9 206.4,154.8 206.4,167.7 206.4,180.6 
				206.4,193.6 206.4,206.5 206.4,219.4 206.4,232.3 206.4,245.2 206.4,258.1 206.4,271 206.4,283.9 206.4,296.8 206.4,309.7 
				206.4,322.6 206.4,335.5 206.4,348.4 206.4,361.3 			"/>
			<polyline class="st8" points="193.5,-38.7 193.5,-25.8 193.5,-12.9 193.5,0 193.5,12.9 193.5,25.8 193.5,38.7 193.5,51.6 
				193.5,64.5 193.5,77.4 193.5,90.3 193.5,103.2 193.5,116.1 193.5,129 193.5,141.9 193.5,154.8 193.5,167.7 193.5,180.6 
				193.5,193.6 193.5,206.5 193.5,219.4 193.5,232.3 193.5,245.2 193.5,258.1 193.5,271 193.5,283.9 193.5,296.8 193.5,309.7 
				193.5,322.6 193.5,335.5 193.5,348.4 193.5,361.3 			"/>
			<polyline class="st8" points="180.6,-38.7 180.6,-25.8 180.6,-12.9 180.6,0 180.6,12.9 180.6,25.8 180.6,38.7 180.6,51.6 
				180.6,64.5 180.6,77.4 180.6,90.3 180.6,103.2 180.6,116.1 180.6,129 180.6,141.9 180.6,154.8 180.6,167.7 180.6,180.6 
				180.6,193.6 180.6,206.5 180.6,219.4 180.6,232.3 180.6,245.2 180.6,258.1 180.6,271 180.6,283.9 180.6,296.8 180.6,309.7 
				180.6,322.6 180.6,335.5 180.6,348.4 180.6,361.3 			"/>
			<polyline class="st8" points="167.7,-38.7 167.7,-25.8 167.7,-12.9 167.7,0 167.7,12.9 167.7,25.8 167.7,38.7 167.7,51.6 
				167.7,64.5 167.7,77.4 167.7,90.3 167.7,103.2 167.7,116.1 167.7,129 167.7,141.9 167.7,154.8 167.7,167.7 167.7,180.6 
				167.7,193.6 167.7,206.5 167.7,219.4 167.7,232.3 167.7,245.2 167.7,258.1 167.7,271 167.7,283.9 167.7,296.8 167.7,309.7 
				167.7,322.6 167.7,335.5 167.7,348.4 167.7,361.3 			"/>
			<polyline class="st8" points="154.8,-38.7 154.8,-25.8 154.8,-12.9 154.8,0 154.8,12.9 154.8,25.8 154.8,38.7 154.8,51.6 
				154.8,64.5 154.8,77.4 154.8,90.3 154.8,103.2 154.8,116.1 154.8,129 154.8,141.9 154.8,154.8 154.8,167.7 154.8,180.6 
				154.8,193.6 154.8,206.5 154.8,219.4 154.8,232.3 154.8,245.2 154.8,258.1 154.8,271 154.8,283.9 154.8,296.8 154.8,309.7 
				154.8,322.6 154.8,335.5 154.8,348.4 154.8,361.3 			"/>
			<polyline class="st8" points="141.9,-38.7 141.9,-25.8 141.9,-12.9 141.9,0 141.9,12.9 141.9,25.8 141.9,38.7 141.9,51.6 
				141.9,64.5 141.9,77.4 141.9,90.3 141.9,103.2 141.9,116.1 141.9,129 141.9,141.9 141.9,154.8 141.9,167.7 141.9,180.6 
				141.9,193.6 141.9,206.5 141.9,219.4 141.9,232.3 141.9,245.2 141.9,258.1 141.9,271 141.9,283.9 141.9,296.8 141.9,309.7 
				141.9,322.6 141.9,335.5 141.9,348.4 141.9,361.3 			"/>
			<polyline class="st8" points="129,-38.7 129,-25.8 129,-12.9 129,0 129,12.9 129,25.8 129,38.7 129,51.6 129,64.5 129,77.4 
				129,90.3 129,103.2 129,116.1 129,129 129,141.9 129,154.8 129,167.7 129,180.6 129,193.6 129,206.5 129,219.4 129,232.3 
				129,245.2 129,258.1 129,271 129,283.9 129,296.8 129,309.7 129,322.6 129,335.5 129,348.4 129,361.3 			"/>
			<polyline class="st8" points="116.1,-38.7 116.1,-25.8 116.1,-12.9 116.1,0 116.1,12.9 116.1,25.8 116.1,38.7 116.1,51.6 
				116.1,64.5 116.1,77.4 116.1,90.3 116.1,103.2 116.1,116.1 116.1,129 116.1,141.9 116.1,154.8 116.1,167.7 116.1,180.6 
				116.1,193.6 116.1,206.5 116.1,219.4 116.1,232.3 116.1,245.2 116.1,258.1 116.1,271 116.1,283.9 116.1,296.8 116.1,309.7 
				116.1,322.6 116.1,335.5 116.1,348.4 116.1,361.3 			"/>
			<polyline class="st8" points="103.2,-38.7 103.2,-25.8 103.2,-12.9 103.2,0 103.2,12.9 103.2,25.8 103.2,38.7 103.2,51.6 
				103.2,64.5 103.2,77.4 103.2,90.3 103.2,103.2 103.2,116.1 103.2,129 103.2,141.9 103.2,154.8 103.2,167.7 103.2,180.6 
				103.2,193.6 103.2,206.5 103.2,219.4 103.2,232.3 103.2,245.2 103.2,258.1 103.2,271 103.2,283.9 103.2,296.8 103.2,309.7 
				103.2,322.6 103.2,335.5 103.2,348.4 103.2,361.3 			"/>
			<polyline class="st8" points="90.3,-38.7 90.3,-25.8 90.3,-12.9 90.3,0 90.3,12.9 90.3,25.8 90.3,38.7 90.3,51.6 90.3,64.5 
				90.3,77.4 90.3,90.3 90.3,103.2 90.3,116.1 90.3,129 90.3,141.9 90.3,154.8 90.3,167.7 90.3,180.6 90.3,193.6 90.3,206.5 
				90.3,219.4 90.3,232.3 90.3,245.2 90.3,258.1 90.3,271 90.3,283.9 90.3,296.8 90.3,309.7 90.3,322.6 90.3,335.5 90.3,348.4 
				90.3,361.3 			"/>
			<polyline class="st8" points="77.4,-38.7 77.4,-25.8 77.4,-12.9 77.4,0 77.4,12.9 77.4,25.8 77.4,38.7 77.4,51.6 77.4,64.5 
				77.4,77.4 77.4,90.3 77.4,103.2 77.4,116.1 77.4,129 77.4,141.9 77.4,154.8 77.4,167.7 77.4,180.6 77.4,193.6 77.4,206.5 
				77.4,219.4 77.4,232.3 77.4,245.2 77.4,258.1 77.4,271 77.4,283.9 77.4,296.8 77.4,309.7 77.4,322.6 77.4,335.5 77.4,348.4 
				77.4,361.3 			"/>
			<polyline class="st8" points="64.4,-38.7 64.4,-25.8 64.4,-12.9 64.4,0 64.4,12.9 64.4,25.8 64.4,38.7 64.4,51.6 64.4,64.5 
				64.4,77.4 64.4,90.3 64.4,103.2 64.4,116.1 64.4,129 64.4,141.9 64.4,154.8 64.4,167.7 64.4,180.6 64.4,193.6 64.4,206.5 
				64.4,219.4 64.4,232.3 64.4,245.2 64.4,258.1 64.4,271 64.4,283.9 64.4,296.8 64.4,309.7 64.4,322.6 64.4,335.5 64.4,348.4 
				64.4,361.3 			"/>
			<polyline class="st8" points="51.6,-38.7 51.6,-25.8 51.6,-12.9 51.6,0 51.6,12.9 51.6,25.8 51.6,38.7 51.6,51.6 51.6,64.5 
				51.6,77.4 51.6,90.3 51.6,103.2 51.6,116.1 51.6,129 51.6,141.9 51.6,154.8 51.6,167.7 51.6,180.6 51.6,193.6 51.6,206.5 
				51.6,219.4 51.6,232.3 51.6,245.2 51.6,258.1 51.6,271 51.6,283.9 51.6,296.8 51.6,309.7 51.6,322.6 51.6,335.5 51.6,348.4 
				51.6,361.3 			"/>
			<polyline class="st8" points="38.6,-38.7 38.6,-25.8 38.6,-12.9 38.6,0 38.6,12.9 38.6,25.8 38.6,38.7 38.6,51.6 38.6,64.5 
				38.6,77.4 38.6,90.3 38.6,103.2 38.6,116.1 38.6,129 38.6,141.9 38.6,154.8 38.6,167.7 38.6,180.6 38.6,193.6 38.6,206.5 
				38.6,219.4 38.6,232.3 38.6,245.2 38.6,258.1 38.6,271 38.6,283.9 38.6,296.8 38.6,309.7 38.6,322.6 38.6,335.5 38.6,348.4 
				38.6,361.3 			"/>
			<polyline class="st8" points="25.7,-38.7 25.7,-25.8 25.7,-12.9 25.7,0 25.7,12.9 25.7,25.8 25.7,38.7 25.7,51.6 25.7,64.5 
				25.7,77.4 25.7,90.3 25.7,103.2 25.7,116.1 25.7,129 25.7,141.9 25.7,154.8 25.7,167.7 25.7,180.6 25.7,193.6 25.7,206.5 
				25.7,219.4 25.7,232.3 25.7,245.2 25.7,258.1 25.7,271 25.7,283.9 25.7,296.8 25.7,309.7 25.7,322.6 25.7,335.5 25.7,348.4 
				25.7,361.3 			"/>
			<polyline class="st8" points="12.8,-38.7 12.8,-25.8 12.8,-12.9 12.8,0 12.8,12.9 12.8,25.8 12.8,38.7 12.8,51.6 12.8,64.5 
				12.8,77.4 12.8,90.3 12.8,103.2 12.8,116.1 12.8,129 12.8,141.9 12.8,154.8 12.8,167.7 12.8,180.6 12.8,193.6 12.8,206.5 
				12.8,219.4 12.8,232.3 12.8,245.2 12.8,258.1 12.8,271 12.8,283.9 12.8,296.8 12.8,309.7 12.8,322.6 12.8,335.5 12.8,348.4 
				12.8,361.3 			"/>
			<polyline class="st8" points="-0.1,-38.7 -0.1,-25.8 -0.1,-12.9 -0.1,0 -0.1,12.9 -0.1,25.8 -0.1,38.7 -0.1,51.6 -0.1,64.5 
				-0.1,77.4 -0.1,90.3 -0.1,103.2 -0.1,116.1 -0.1,129 -0.1,141.9 -0.1,154.8 -0.1,167.7 -0.1,180.6 -0.1,193.6 -0.1,206.5 
				-0.1,219.4 -0.1,232.3 -0.1,245.2 -0.1,258.1 -0.1,271 -0.1,283.9 -0.1,296.8 -0.1,309.7 -0.1,322.6 -0.1,335.5 -0.1,348.4 
				-0.1,361.3 			"/>
			<polyline class="st8" points="-13,-38.7 -13,-25.8 -13,-12.9 -13,0 -13,12.9 -13,25.8 -13,38.7 -13,51.6 -13,64.5 -13,77.4 
				-13,90.3 -13,103.2 -13,116.1 -13,129 -13,141.9 -13,154.8 -13,167.7 -13,180.6 -13,193.6 -13,206.5 -13,219.4 -13,232.3 
				-13,245.2 -13,258.1 -13,271 -13,283.9 -13,296.8 -13,309.7 -13,322.6 -13,335.5 -13,348.4 -13,361.3 			"/>
			<polyline class="st8" points="-25.9,-38.7 -25.9,-25.8 -25.9,-12.9 -25.9,0 -25.9,12.9 -25.9,25.8 -25.9,38.7 -25.9,51.6 
				-25.9,64.5 -25.9,77.4 -25.9,90.3 -25.9,103.2 -25.9,116.1 -25.9,129 -25.9,141.9 -25.9,154.8 -25.9,167.7 -25.9,180.6 
				-25.9,193.6 -25.9,206.5 -25.9,219.4 -25.9,232.3 -25.9,245.2 -25.9,258.1 -25.9,271 -25.9,283.9 -25.9,296.8 -25.9,309.7 
				-25.9,322.6 -25.9,335.5 -25.9,348.4 -25.9,361.3 			"/>
			<polyline class="st8" points="-38.8,-38.7 -38.8,-25.8 -38.8,-12.9 -38.8,0 -38.8,12.9 -38.8,25.8 -38.8,38.7 -38.8,51.6 
				-38.8,64.5 -38.8,77.4 -38.8,90.3 -38.8,103.2 -38.8,116.1 -38.8,129 -38.8,141.9 -38.8,154.8 -38.8,167.7 -38.8,180.6 
				-38.8,193.6 -38.8,206.5 -38.8,219.4 -38.8,232.3 -38.8,245.2 -38.8,258.1 -38.8,271 -38.8,283.9 -38.8,296.8 -38.8,309.7 
				-38.8,322.6 -38.8,335.5 -38.8,348.4 -38.8,361.3 			"/>
			<polyline class="st8" points="-51.7,-38.7 -51.7,-25.8 -51.7,-12.9 -51.7,0 -51.7,12.9 -51.7,25.8 -51.7,38.7 -51.7,51.6 
				-51.7,64.5 -51.7,77.4 -51.7,90.3 -51.7,103.2 -51.7,116.1 -51.7,129 -51.7,141.9 -51.7,154.8 -51.7,167.7 -51.7,180.6 
				-51.7,193.6 -51.7,206.5 -51.7,219.4 -51.7,232.3 -51.7,245.2 -51.7,258.1 -51.7,271 -51.7,283.9 -51.7,296.8 -51.7,309.7 
				-51.7,322.6 -51.7,335.5 -51.7,348.4 -51.7,361.3 			"/>
			<polyline class="st8" points="-64.6,-38.7 -64.6,-25.8 -64.6,-12.9 -64.6,0 -64.6,12.9 -64.6,25.8 -64.6,38.7 -64.6,51.6 
				-64.6,64.5 -64.6,77.4 -64.6,90.3 -64.6,103.2 -64.6,116.1 -64.6,129 -64.6,141.9 -64.6,154.8 -64.6,167.7 -64.6,180.6 
				-64.6,193.6 -64.6,206.5 -64.6,219.4 -64.6,232.3 -64.6,245.2 -64.6,258.1 -64.6,271 -64.6,283.9 -64.6,296.8 -64.6,309.7 
				-64.6,322.6 -64.6,335.5 -64.6,348.4 -64.6,361.3 			"/>
			<polyline class="st8" points="-77.5,-38.7 -77.5,-25.8 -77.5,-12.9 -77.5,0 -77.5,12.9 -77.5,25.8 -77.5,38.7 -77.5,51.6 
				-77.5,64.5 -77.5,77.4 -77.5,90.3 -77.5,103.2 -77.5,116.1 -77.5,129 -77.5,141.9 -77.5,154.8 -77.5,167.7 -77.5,180.6 
				-77.5,193.6 -77.5,206.5 -77.5,219.4 -77.5,232.3 -77.5,245.2 -77.5,258.1 -77.5,271 -77.5,283.9 -77.5,296.8 -77.5,309.7 
				-77.5,322.6 -77.5,335.5 -77.5,348.4 -77.5,361.3 			"/>
			<polyline class="st8" points="-90.4,-38.7 -90.4,-25.8 -90.4,-12.9 -90.4,0 -90.4,12.9 -90.4,25.8 -90.4,38.7 -90.4,51.6 
				-90.4,64.5 -90.4,77.4 -90.4,90.3 -90.4,103.2 -90.4,116.1 -90.4,129 -90.4,141.9 -90.4,154.8 -90.4,167.7 -90.4,180.6 
				-90.4,193.6 -90.4,206.5 -90.4,219.4 -90.4,232.3 -90.4,245.2 -90.4,258.1 -90.4,271 -90.4,283.9 -90.4,296.8 -90.4,309.7 
				-90.4,322.6 -90.4,335.5 -90.4,348.4 -90.4,361.3 			"/>
			<polyline class="st8" points="-103.3,-38.7 -103.3,-25.8 -103.3,-12.9 -103.3,0 -103.3,12.9 -103.3,25.8 -103.3,38.7 
				-103.3,51.6 -103.3,64.5 -103.3,77.4 -103.3,90.3 -103.3,103.2 -103.3,116.1 -103.3,129 -103.3,141.9 -103.3,154.8 -103.3,167.7 
				-103.3,180.6 -103.3,193.6 -103.3,206.5 -103.3,219.4 -103.3,232.3 -103.3,245.2 -103.3,258.1 -103.3,271 -103.3,283.9 
				-103.3,296.8 -103.3,309.7 -103.3,322.6 -103.3,335.5 -103.3,348.4 -103.3,361.3 			"/>
			<polyline class="st8" points="-116.2,-38.7 -116.2,-25.8 -116.2,-12.9 -116.2,0 -116.2,12.9 -116.2,25.8 -116.2,38.7 
				-116.2,51.6 -116.2,64.5 -116.2,77.4 -116.2,90.3 -116.2,103.2 -116.2,116.1 -116.2,129 -116.2,141.9 -116.2,154.8 -116.2,167.7 
				-116.2,180.6 -116.2,193.6 -116.2,206.5 -116.2,219.4 -116.2,232.3 -116.2,245.2 -116.2,258.1 -116.2,271 -116.2,283.9 
				-116.2,296.8 -116.2,309.7 -116.2,322.6 -116.2,335.5 -116.2,348.4 -116.2,361.3 			"/>
			<polyline class="st8" points="-129.1,-38.7 -129.1,-25.8 -129.1,-12.9 -129.1,0 -129.1,12.9 -129.1,25.8 -129.1,38.7 
				-129.1,51.6 -129.1,64.5 -129.1,77.4 -129.1,90.3 -129.1,103.2 -129.1,116.1 -129.1,129 -129.1,141.9 -129.1,154.8 -129.1,167.7 
				-129.1,180.6 -129.1,193.6 -129.1,206.5 -129.1,219.4 -129.1,232.3 -129.1,245.2 -129.1,258.1 -129.1,271 -129.1,283.9 
				-129.1,296.8 -129.1,309.7 -129.1,322.6 -129.1,335.5 -129.1,348.4 -129.1,361.3 			"/>
		</g>
	</g>
	<polygon class="st5" points="77.4,103.2 77.4,90.3 64.4,103.2 	"/>
	<polygon class="st5" points="38.5,90.8 39.5,103.2 51,103.2 	"/>
	<rect x="38" y="318.3" class="st9" width="13" height="4"/>
	<rect x="65" y="318.3" class="st9" width="12" height="4"/>
</g>
</svg>
