<?xml version="1.0" encoding="utf-8"?>
<!-- Generator: Adobe Illustrator 23.0.1, SVG Export Plug-In . SVG Version: 6.00 Build 0)  -->
<svg version="1.1" id="Calque_1" xmlns="http://www.w3.org/2000/svg" xmlns:xlink="http://www.w3.org/1999/xlink" x="0px" y="0px"
	 viewBox="0 0 129 348.4" style="enable-background:new 0 0 129 348.4;" xml:space="preserve">
<style type="text/css">
	.st0{fill:#EDCA96;}
	.st1{fill:#2B1700;}
	.st2{fill:#1E1C13;}
	.st3{fill:#5CFF2E;}
	.st4{fill:#606060;}
	.st5{fill:#BCB691;}
	.st6{fill:#FFFFFF;}
</style>
<title>denys1</title>
<g>
	<rect x="0" y="219.3" class="st0" width="12.9" height="12.9"/>
	<rect x="0" y="206.4" class="st1" width="12.9" height="12.9"/>
	<rect x="0" y="193.5" class="st1" width="12.9" height="12.9"/>
	<rect x="0" y="180.6" class="st1" width="12.9" height="12.9"/>
	<rect y="167.7" class="st1" width="12.9" height="12.9"/>
	<rect x="0" y="154.8" class="st1" width="12.9" height="12.9"/>
	<rect x="0" y="141.9" class="st1" width="12.9" height="12.9"/>
	<rect x="0" y="129" class="st1" width="12.9" height="12.9"/>
	<rect x="12.9" y="129" class="st1" width="12.9" height="12.9"/>
	<rect x="12.9" y="116.1" class="st1" width="12.9" height="12.9"/>
	<rect x="12.9" y="77.4" class="st0" width="12.9" height="12.9"/>
	<rect x="12.9" y="64.5" class="st0" width="12.9" height="12.9"/>
	<rect x="12.9" y="51.6" class="st0" width="12.9" height="12.9"/>
	<rect x="12.9" y="38.7" width="12.9" height="12.9"/>
	<rect x="12.9" y="25.8" class="st0" width="12.9" height="12.9"/>
	<rect x="12.9" y="12.9" class="st0" width="12.9" height="12.9"/>
	<rect x="25.8" y="335.5" class="st2" width="12.9" height="12.9"/>
	<rect x="25.8" y="232.3" class="st1" width="12.9" height="12.9"/>
	<rect x="25.8" y="219.3" class="st1" width="12.9" height="12.9"/>
	<rect x="25.8" y="206.4" class="st1" width="12.9" height="12.9"/>
	<rect x="25.8" y="193.5" class="st1" width="12.9" height="12.9"/>
	<rect x="25.8" y="180.6" class="st1" width="12.9" height="12.9"/>
	<rect x="25.8" y="167.7" class="st1" width="12.9" height="12.9"/>
	<rect x="25.8" y="154.8" class="st1" width="12.9" height="12.9"/>
	<rect x="25.8" y="141.9" class="st1" width="12.9" height="12.9"/>
	<rect x="25.8" y="129" class="st1" width="12.9" height="12.9"/>
	<rect x="25.8" y="116.1" class="st3" width="12.9" height="12.9"/>
	<rect x="25.8" y="103.2" class="st3" width="12.9" height="12.9"/>
	<rect x="25.8" y="90.3" class="st0" width="12.9" height="12.9"/>
	<rect x="25.8" y="77.4" class="st0" width="12.9" height="12.9"/>
	<rect x="25.8" y="64.5" class="st4" width="12.9" height="12.9"/>
	<rect x="25.8" y="51.6" class="st0" width="12.9" height="12.9"/>
	<rect x="25.8" y="38.7" class="st0" width="12.9" height="12.9"/>
	<rect x="25.8" y="25.8" class="st0" width="12.9" height="12.9"/>
	<rect x="25.8" y="12.9" class="st0" width="12.9" height="12.9"/>
	<rect x="25.8" y="0" class="st0" width="12.9" height="12.9"/>
	<rect x="38.7" y="335.5" class="st2" width="12.9" height="12.9"/>
	<rect x="38.7" y="322.6" class="st5" width="12.9" height="12.9"/>
	<rect x="38.7" y="309.7" class="st5" width="12.9" height="12.9"/>
	<rect x="38.7" y="296.8" class="st5" width="12.9" height="12.9"/>
	<rect x="38.7" y="283.9" class="st5" width="12.9" height="12.9"/>
	<rect x="38.7" y="271" class="st5" width="12.9" height="12.9"/>
	<rect x="38.7" y="258.1" class="st5" width="12.9" height="12.9"/>
	<rect x="38.7" y="245.2" class="st5" width="12.9" height="12.9"/>
	<rect x="38.7" y="232.3" class="st1" width="12.9" height="12.9"/>
	<rect x="38.7" y="219.3" class="st1" width="12.9" height="12.9"/>
	<rect x="38.7" y="206.4" class="st1" width="12.9" height="12.9"/>
	<rect x="38.7" y="193.5" class="st1" width="12.9" height="12.9"/>
	<rect x="38.7" y="180.6" class="st1" width="12.9" height="12.9"/>
	<rect x="38.7" y="167.7" class="st1" width="12.9" height="12.9"/>
	<rect x="38.7" y="154.8" class="st1" width="12.9" height="12.9"/>
	<rect x="38.7" y="141.9" class="st1" width="12.9" height="12.9"/>
	<rect x="38.7" y="129" class="st1" width="12.9" height="12.9"/>
	<rect x="38.7" y="116.1" class="st3" width="12.9" height="12.9"/>
	<rect x="38.7" y="103.2" class="st0" width="12.9" height="12.9"/>
	<rect x="38.7" y="90.3" class="st0" width="12.9" height="12.9"/>
	<rect x="38.7" y="77.4" class="st6" width="12.9" height="12.9"/>
	<rect x="38.7" y="64.5" class="st4" width="12.9" height="12.9"/>
	<rect x="38.7" y="51.6" class="st0" width="12.9" height="12.9"/>
	<rect x="38.7" y="38.7" width="12.9" height="12.9"/>
	<rect x="38.7" y="25.8" class="st0" width="12.9" height="12.9"/>
	<rect x="38.7" y="12.9" class="st0" width="12.9" height="12.9"/>
	<rect x="38.7" y="0" class="st0" width="12.9" height="12.9"/>
	<rect x="51.6" y="232.3" class="st5" width="12.9" height="12.9"/>
	<rect x="51.6" y="219.3" class="st6" width="12.9" height="12.9"/>
	<rect x="51.6" y="206.4" class="st6" width="12.9" height="12.9"/>
	<rect x="51.6" y="193.5" class="st6" width="12.9" height="12.9"/>
	<rect x="51.6" y="180.6" class="st6" width="12.9" height="12.9"/>
	<rect x="51.6" y="167.7" class="st6" width="12.9" height="12.9"/>
	<rect x="51.6" y="154.8" class="st6" width="12.9" height="12.9"/>
	<rect x="51.6" y="141.9" class="st6" width="12.9" height="12.9"/>
	<rect x="51.6" y="129" class="st6" width="12.9" height="12.9"/>
	<rect x="51.6" y="116.1" class="st3" width="12.9" height="12.9"/>
	<rect x="51.6" y="103.2" class="st0" width="12.9" height="12.9"/>
	<rect x="51.6" y="90.3" class="st0" width="12.9" height="12.9"/>
	<rect x="51.6" y="77.4" class="st0" width="12.9" height="12.9"/>
	<rect x="51.6" y="64.5" class="st0" width="12.9" height="12.9"/>
	<rect x="51.6" y="51.6" class="st0" width="12.9" height="12.9"/>
	<rect x="51.6" y="38.7" class="st0" width="12.9" height="12.9"/>
	<rect x="51.6" y="25.8" class="st0" width="12.9" height="12.9"/>
	<rect x="51.6" y="12.9" class="st0" width="12.9" height="12.9"/>
	<rect x="51.6" y="0" class="st0" width="12.9" height="12.9"/>
	<rect x="64.5" y="335.5" class="st2" width="12.9" height="12.9"/>
	<rect x="64.5" y="232.3" class="st1" width="12.9" height="12.9"/>
	<rect x="64.5" y="219.3" class="st1" width="12.9" height="12.9"/>
	<rect x="64.5" y="206.4" class="st1" width="12.9" height="12.9"/>
	<rect x="64.5" y="193.5" class="st1" width="12.9" height="12.9"/>
	<rect x="64.5" y="180.6" class="st1" width="12.9" height="12.9"/>
	<rect x="64.5" y="167.7" class="st1" width="12.9" height="12.9"/>
	<rect x="64.5" y="154.8" class="st3" width="12.9" height="12.9"/>
	<rect x="64.5" y="141.9" class="st3" width="12.9" height="12.9"/>
	<rect x="64.5" y="129" class="st3" width="12.9" height="12.9"/>
	<rect x="64.5" y="116.1" class="st3" width="12.9" height="12.9"/>
	<rect x="64.5" y="103.2" class="st0" width="12.9" height="12.9"/>
	<rect x="64.5" y="90.3" class="st0" width="12.9" height="12.9"/>
	<rect x="64.5" y="77.4" class="st0" width="12.9" height="12.9"/>
	<rect x="64.5" y="64.5" class="st0" width="12.9" height="12.9"/>
	<rect x="64.5" y="51.6" class="st0" width="12.9" height="12.9"/>
	<rect x="64.5" y="38.7" class="st0" width="12.9" height="12.9"/>
	<rect x="64.5" y="25.8" class="st0" width="12.9" height="12.9"/>
	<rect x="64.5" y="12.9" class="st0" width="12.9" height="12.9"/>
	<rect x="64.5" y="0" class="st0" width="12.9" height="12.9"/>
	<rect x="77.4" y="335.5" class="st2" width="12.9" height="12.9"/>
	<rect x="77.4" y="322.6" class="st5" width="12.9" height="12.9"/>
	<rect x="77.4" y="309.7" class="st5" width="12.9" height="12.9"/>
	<rect x="77.4" y="296.8" class="st5" width="12.9" height="12.9"/>
	<rect x="77.4" y="283.9" class="st5" width="12.9" height="12.9"/>
	<rect x="77.4" y="271" class="st5" width="12.9" height="12.9"/>
	<rect x="77.4" y="258.1" class="st5" width="12.9" height="12.9"/>
	<rect x="77.4" y="245.2" class="st5" width="12.9" height="12.9"/>
	<rect x="77.4" y="232.3" class="st1" width="12.9" height="12.9"/>
	<rect x="77.4" y="219.3" class="st1" width="12.9" height="12.9"/>
	<rect x="77.4" y="206.4" class="st1" width="12.9" height="12.9"/>
	<rect x="77.4" y="193.5" class="st1" width="12.9" height="12.9"/>
	<rect x="77.4" y="180.6" class="st1" width="12.9" height="12.9"/>
	<rect x="77.4" y="167.7" class="st1" width="12.9" height="12.9"/>
	<rect x="77.4" y="154.8" class="st1" width="12.9" height="12.9"/>
	<rect x="77.4" y="141.9" class="st1" width="12.9" height="12.9"/>
	<rect x="77.4" y="129" class="st1" width="12.9" height="12.9"/>
	<rect x="77.4" y="116.1" class="st3" width="12.9" height="12.9"/>
	<rect x="77.4" y="103.2" class="st3" width="12.9" height="12.9"/>
	<rect x="77.4" y="77.4" class="st0" width="12.9" height="12.9"/>
	<rect x="77.4" y="64.5" class="st0" width="12.9" height="12.9"/>
	<rect x="77.4" y="51.6" class="st0" width="12.9" height="12.9"/>
	<rect x="77.4" y="38.7" class="st0" width="12.9" height="12.9"/>
	<rect x="77.4" y="25.8" class="st0" width="12.9" height="12.9"/>
	<rect x="77.4" y="12.9" class="st0" width="12.9" height="12.9"/>
	<rect x="90.3" y="232.3" class="st1" width="12.9" height="12.9"/>
	<rect x="90.3" y="219.3" class="st1" width="12.9" height="12.9"/>
	<rect x="90.3" y="206.4" class="st1" width="12.9" height="12.9"/>
	<rect x="90.3" y="193.5" class="st1" width="12.9" height="12.9"/>
	<rect x="90.3" y="180.6" class="st1" width="12.9" height="12.9"/>
	<rect x="90.3" y="167.7" class="st1" width="12.9" height="12.9"/>
	<rect x="90.3" y="154.8" class="st1" width="12.9" height="12.9"/>
	<rect x="90.3" y="141.9" class="st1" width="12.9" height="12.9"/>
	<rect x="90.3" y="129" class="st1" width="12.9" height="12.9"/>
	<rect x="90.3" y="116.1" class="st1" width="12.9" height="12.9"/>
	<rect x="90.3" y="51.6" class="st0" width="12.9" height="12.9"/>
	<rect x="103.2" y="141.9" class="st1" width="12.9" height="12.9"/>
	<rect x="103.2" y="129" class="st1" width="12.9" height="12.9"/>
	<rect x="116.1" y="219.3" class="st0" width="12.9" height="12.9"/>
	<rect x="116.1" y="206.4" class="st1" width="12.9" height="12.9"/>
	<rect x="116.1" y="193.5" class="st1" width="12.9" height="12.9"/>
	<rect x="116.1" y="180.6" class="st1" width="12.9" height="12.9"/>
	<rect x="116.1" y="167.7" class="st1" width="12.9" height="12.9"/>
	<rect x="116.1" y="154.8" class="st1" width="12.9" height="12.9"/>
	<rect x="116.1" y="141.9" class="st1" width="12.9" height="12.9"/>
</g>
</svg>
