<?xml version="1.0" encoding="utf-8"?>
<!-- Generator: Adobe Illustrator 23.0.1, SVG Export Plug-In . SVG Version: 6.00 Build 0)  -->
<svg version="1.1" xmlns="http://www.w3.org/2000/svg" xmlns:xlink="http://www.w3.org/1999/xlink" x="0px" y="0px"
	 viewBox="0 0 400 400" style="enable-background:new 0 0 400 400;" xml:space="preserve">
<style type="text/css">
	.st0{display:none;}
	.st1{display:none;stroke:#000000;stroke-miterlimit:10;}
	.st2{stroke:#000000;stroke-miterlimit:10;}
	.st3{fill:#713918;}
	.st4{fill:#10AC84;}
	.st5{fill:#01A3A4;}
	.st6{fill:#EAB692;}
	.st7{fill:#8395A7;}
	.st8{fill:#4F230E;}
	.st9{display:inline;fill:none;stroke:#000000;stroke-miterlimit:10;}
	.st10{fill:#FF6B6B;}
	.st11{fill:#EE5253;}
	.st12{fill:#D3333C;}
	.st13{fill:#FFFFFF;}
	.st14{fill:#00A4FF;}
</style>
<g id="Calque_1" class="st0">
</g>
<g id="Calque_2">
	<rect x="120" y="292" transform="matrix(6.123234e-17 -1 1 6.123234e-17 -176.5 420.5)" class="st1" width="4" height="13"/>
	<rect x="242.5" y="348.5" class="st1" width="4" height="13"/>
	<path class="st2" d="M188.5,361.5"/>
	<g id="XMLID_1_">
		<g>
			<rect x="140.94" y="154.84" class="st3" width="12.9" height="12.9"/>
			<rect x="269.97" y="180.65" class="st4" width="12.9" height="12.9"/>
			<rect x="257.06" y="361.29" class="st5" width="12.91" height="12.9"/>
			<rect x="257.06" y="180.65" class="st4" width="12.91" height="12.9"/>
			<rect x="244.16" y="348.39" class="st5" width="12.9" height="12.9"/>
			<rect x="244.16" y="335.48" class="st6" width="12.9" height="12.91"/>
			<rect x="244.16" y="322.58" class="st6" width="12.9" height="12.9"/>
			<rect x="244.16" y="309.68" class="st6" width="12.9" height="12.9"/>
			<rect x="244.16" y="180.65" class="st6" width="12.9" height="12.9"/>
			<rect x="244.16" y="167.74" class="st4" width="12.9" height="12.91"/>
			<rect x="244.16" y="154.84" class="st4" width="12.9" height="12.9"/>
			<rect x="244.16" y="141.94" class="st4" width="12.9" height="12.9"/>
			<rect x="244.16" y="64.52" class="st3" width="12.9" height="12.9"/>
			<rect x="244.16" y="51.61" class="st3" width="12.9" height="12.91"/>
			<rect x="231.26" y="296.77" class="st6" width="12.9" height="12.91"/>
			<rect x="231.26" y="283.87" class="st7" width="12.9" height="12.9"/>
			<rect x="231.26" y="270.97" class="st7" width="12.9" height="12.9"/>
			<rect x="231.26" y="258.06" class="st7" width="12.9" height="12.91"/>
			<rect x="231.26" y="245.16" class="st7" width="12.9" height="12.9"/>
			<rect x="231.26" y="232.26" class="st7" width="12.9" height="12.9"/>
			<rect x="231.26" y="219.35" class="st7" width="12.9" height="12.91"/>
			<rect x="231.26" y="154.84" class="st4" width="12.9" height="12.9"/>
			<rect x="231.26" y="141.94" class="st4" width="12.9" height="12.9"/>
			<rect x="231.26" y="129.03" class="st4" width="12.9" height="12.91"/>
			<rect x="231.26" y="103.23" class="st6" width="12.9" height="12.9"/>
			<rect x="231.26" y="90.32" class="st6" width="12.9" height="12.91"/>
			<rect x="231.26" y="77.42" class="st6" width="12.9" height="12.9"/>
			<rect x="231.26" y="64.52" class="st6" width="12.9" height="12.9"/>
			<rect x="231.26" y="51.61" class="st3" width="12.9" height="12.91"/>
			<rect x="231.26" y="38.71" class="st3" width="12.9" height="12.9"/>
			<rect x="218.35" y="283.87" class="st7" width="12.91" height="12.9"/>
			<rect x="218.35" y="270.97" class="st7" width="12.91" height="12.9"/>
			<rect x="218.35" y="258.06" class="st7" width="12.91" height="12.91"/>
			<rect x="218.35" y="245.16" class="st7" width="12.91" height="12.9"/>
			<rect x="218.35" y="232.26" class="st7" width="12.91" height="12.9"/>
			<rect x="218.35" y="219.35" class="st7" width="12.91" height="12.91"/>
			<rect x="218.35" y="206.45" class="st7" width="12.91" height="12.9"/>
			<rect x="218.35" y="193.55" class="st4" width="12.91" height="12.9"/>
			<rect x="218.35" y="180.65" class="st4" width="12.91" height="12.9"/>
			<rect x="218.35" y="167.74" class="st4" width="12.91" height="12.91"/>
			<rect x="218.35" y="154.84" class="st4" width="12.91" height="12.9"/>
			<rect x="218.35" y="141.94" class="st6" width="12.91" height="12.9"/>
			<rect x="218.35" y="103.23" class="st6" width="12.91" height="12.9"/>
			<rect x="218.35" y="90.32" class="st6" width="12.91" height="12.91"/>
			<rect x="218.35" y="77.42" class="st6" width="12.91" height="12.9"/>
			<rect x="218.35" y="64.52" class="st6" width="12.91" height="12.9"/>
			<rect x="218.35" y="51.61" class="st3" width="12.91" height="12.91"/>
			<rect x="218.35" y="38.71" class="st3" width="12.91" height="12.9"/>
			<rect x="205.45" y="283.87" class="st7" width="12.9" height="12.9"/>
			<rect x="205.45" y="270.97" class="st7" width="12.9" height="12.9"/>
			<rect x="205.45" y="258.06" class="st7" width="12.9" height="12.91"/>
			<rect x="205.45" y="245.16" class="st7" width="12.9" height="12.9"/>
			<rect x="205.45" y="232.26" class="st7" width="12.9" height="12.9"/>
			<rect x="205.45" y="219.35" class="st7" width="12.9" height="12.91"/>
			<rect x="205.45" y="206.45" class="st7" width="12.9" height="12.9"/>
			<rect x="205.45" y="193.55" class="st4" width="12.9" height="12.9"/>
			<rect x="205.45" y="180.65" class="st4" width="12.9" height="12.9"/>
			<rect x="205.45" y="167.74" class="st4" width="12.9" height="12.91"/>
			<rect x="205.45" y="154.84" class="st4" width="12.9" height="12.9"/>
			<rect x="205.45" y="141.94" class="st6" width="12.9" height="12.9"/>
			<rect x="205.45" y="129.03" class="st6" width="12.9" height="12.91"/>
			<rect x="205.45" y="116.13" class="st6" width="12.9" height="12.9"/>
			<rect x="205.45" y="103.23" class="st6" width="12.9" height="12.9"/>
			<rect x="205.45" y="90.32" class="st6" width="12.9" height="12.91"/>
			<rect x="205.45" y="77.42" class="st6" width="12.9" height="12.9"/>
			<rect x="205.45" y="64.52" class="st6" width="12.9" height="12.9"/>
			<rect x="205.45" y="51.61" class="st3" width="12.9" height="12.91"/>
			<rect x="205.45" y="38.71" class="st3" width="12.9" height="12.9"/>
			<rect x="192.55" y="283.87" class="st7" width="12.9" height="12.9"/>
			<rect x="192.55" y="270.97" class="st7" width="12.9" height="12.9"/>
			<rect x="192.55" y="258.06" class="st7" width="12.9" height="12.91"/>
			<rect x="192.55" y="245.16" class="st7" width="12.9" height="12.9"/>
			<rect x="192.55" y="232.26" class="st7" width="12.9" height="12.9"/>
			<rect x="192.55" y="219.35" class="st7" width="12.9" height="12.91"/>
			<rect x="192.55" y="206.45" class="st7" width="12.9" height="12.9"/>
			<rect x="192.55" y="193.55" class="st4" width="12.9" height="12.9"/>
			<rect x="192.55" y="180.65" class="st4" width="12.9" height="12.9"/>
			<rect x="192.55" y="167.74" class="st6" width="12.9" height="12.91"/>
			<rect x="192.55" y="154.84" class="st4" width="12.9" height="12.9"/>
			<rect x="192.55" y="141.94" class="st6" width="12.9" height="12.9"/>
			<rect x="192.55" y="129.03" class="st6" width="12.9" height="12.91"/>
			<rect x="192.55" y="116.13" class="st6" width="12.9" height="12.9"/>
			<rect x="192.55" y="103.23" class="st6" width="12.9" height="12.9"/>
			<rect x="192.55" y="90.32" class="st6" width="12.9" height="12.91"/>
			<rect x="192.55" y="77.42" class="st6" width="12.9" height="12.9"/>
			<rect x="192.55" y="64.52" class="st6" width="12.9" height="12.9"/>
			<rect x="192.55" y="51.61" class="st3" width="12.9" height="12.91"/>
			<rect x="192.55" y="38.71" class="st3" width="12.9" height="12.9"/>
			<rect x="179.65" y="322.58" class="st6" width="12.9" height="12.9"/>
			<rect x="179.65" y="309.68" class="st6" width="12.9" height="12.9"/>
			<rect x="179.65" y="296.77" class="st6" width="12.9" height="12.91"/>
			<rect x="179.65" y="283.87" class="st7" width="12.9" height="12.9"/>
			<rect x="179.65" y="270.97" class="st7" width="12.9" height="12.9"/>
			<rect x="179.65" y="258.06" class="st7" width="12.9" height="12.91"/>
			<rect x="179.65" y="245.16" class="st7" width="12.9" height="12.9"/>
			<rect x="179.65" y="232.26" class="st7" width="12.9" height="12.9"/>
			<rect x="179.65" y="219.35" class="st7" width="12.9" height="12.91"/>
			<rect x="179.65" y="206.45" class="st7" width="12.9" height="12.9"/>
			<rect x="179.65" y="193.55" class="st4" width="12.9" height="12.9"/>
			<rect x="179.65" y="180.65" class="st4" width="12.9" height="12.9"/>
			<rect x="179.65" y="167.74" class="st4" width="12.9" height="12.91"/>
			<rect x="179.65" y="154.84" class="st4" width="12.9" height="12.9"/>
			<rect x="179.65" y="141.94" class="st6" width="12.9" height="12.9"/>
			<rect x="179.65" y="103.23" class="st3" width="12.9" height="12.9"/>
			<rect x="179.65" y="90.32" class="st8" width="12.9" height="12.91"/>
			<rect x="179.65" y="77.42" class="st6" width="12.9" height="12.9"/>
			<rect x="179.65" y="64.52" class="st3" width="12.9" height="12.9"/>
			<rect x="179.65" y="51.61" class="st3" width="12.9" height="12.91"/>
			<rect x="179.65" y="38.71" class="st3" width="12.9" height="12.9"/>
			<rect x="166.74" y="322.58" class="st6" width="12.91" height="12.9"/>
			<rect x="166.74" y="283.87" class="st7" width="12.91" height="12.9"/>
			<rect x="166.74" y="270.97" class="st7" width="12.91" height="12.9"/>
			<rect x="166.74" y="258.06" class="st7" width="12.91" height="12.91"/>
			<rect x="166.74" y="245.16" class="st7" width="12.91" height="12.9"/>
			<rect x="166.74" y="232.26" class="st7" width="12.91" height="12.9"/>
			<rect x="166.74" y="219.35" class="st7" width="12.91" height="12.91"/>
			<rect x="166.74" y="180.65" class="st4" width="12.91" height="12.9"/>
			<rect x="166.74" y="167.74" class="st4" width="12.91" height="12.91"/>
			<rect x="166.74" y="154.84" class="st4" width="12.91" height="12.9"/>
			<rect x="166.74" y="141.94" class="st4" width="12.91" height="12.9"/>
			<rect x="166.74" y="116.13" class="st3" width="12.91" height="12.9"/>
			<rect x="166.74" y="103.23" class="st8" width="12.91" height="12.9"/>
			<rect x="166.74" y="90.32" class="st3" width="12.91" height="12.91"/>
			<rect x="166.74" y="77.42" class="st3" width="12.91" height="12.9"/>
			<rect x="166.74" y="64.52" class="st3" width="12.91" height="12.9"/>
			<rect x="166.74" y="51.61" class="st3" width="12.91" height="12.91"/>
			<rect x="153.84" y="322.58" class="st6" width="12.9" height="12.9"/>
			<rect x="153.84" y="167.74" class="st4" width="12.9" height="12.91"/>
			<rect x="153.84" y="154.84" class="st4" width="12.9" height="12.9"/>
			<rect x="153.84" y="141.94" class="st4" width="12.9" height="12.9"/>
			<rect x="153.84" y="129.03" class="st3" width="12.9" height="12.91"/>
			<rect x="153.84" y="116.13" class="st8" width="12.9" height="12.9"/>
			<rect x="153.84" y="103.23" class="st3" width="12.9" height="12.9"/>
			<rect x="153.84" y="90.32" class="st3" width="12.9" height="12.91"/>
			<rect x="153.84" y="77.42" class="st3" width="12.9" height="12.9"/>
			<rect x="153.84" y="64.52" class="st3" width="12.9" height="12.9"/>
			<rect x="140.94" y="322.58" class="st6" width="12.9" height="12.9"/>
			<rect x="140.94" y="141.94" class="st3" width="12.9" height="12.9"/>
			<rect x="140.94" y="129.03" class="st8" width="12.9" height="12.91"/>
			<rect x="140.94" y="116.13" class="st3" width="12.9" height="12.9"/>
			<rect x="140.94" y="103.23" class="st3" width="12.9" height="12.9"/>
			<rect x="140.94" y="90.32" class="st3" width="12.9" height="12.91"/>
			<rect x="140.94" y="77.42" class="st3" width="12.9" height="12.9"/>
			<rect x="128.03" y="322.58" class="st5" width="12.91" height="12.9"/>
			<rect x="128.03" y="154.84" class="st3" width="12.91" height="12.9"/>
			<rect x="128.03" y="141.94" class="st8" width="12.91" height="12.9"/>
			<rect x="128.03" y="129.03" class="st3" width="12.91" height="12.91"/>
			<rect x="128.03" y="116.13" class="st3" width="12.91" height="12.9"/>
			<rect x="128.03" y="103.23" class="st3" width="12.91" height="12.9"/>
			<rect x="128.03" y="90.32" class="st3" width="12.91" height="12.91"/>
			<rect x="115.13" y="335.48" class="st5" width="12.9" height="12.91"/>
			<rect x="115.13" y="154.84" class="st3" width="12.9" height="12.9"/>
			<rect x="115.13" y="141.94" class="st3" width="12.9" height="12.9"/>
			<rect x="115.13" y="129.03" class="st3" width="12.9" height="12.91"/>
			<rect x="115.13" y="116.13" class="st3" width="12.9" height="12.9"/>
		</g>
		<g class="st0">
			<polygon class="st9" points="399,387.1 399,400 386.1,400 373.19,400 360.29,400 347.39,400 334.48,400 321.58,400 308.68,400 
				295.77,400 282.87,400 269.97,400 257.06,400 244.16,400 231.26,400 218.35,400 205.45,400 192.55,400 179.65,400 166.74,400 
				153.84,400 140.94,400 128.03,400 115.13,400 102.23,400 89.32,400 76.42,400 63.52,400 50.61,400 37.71,400 24.81,400 11.9,400 
				-1,400 -1,387.1 -1,374.19 -1,361.29 -1,348.39 -1,335.48 -1,322.58 -1,309.68 -1,296.77 -1,283.87 -1,270.97 -1,258.06 
				-1,245.16 -1,232.26 -1,219.35 -1,206.45 -1,193.55 -1,180.65 -1,167.74 -1,154.84 -1,141.94 -1,129.03 -1,116.13 -1,103.23 
				-1,90.32 -1,77.42 -1,64.52 -1,51.61 -1,38.71 -1,25.81 -1,12.9 -1,0 11.9,0 24.81,0 37.71,0 50.61,0 63.52,0 76.42,0 89.32,0 
				102.23,0 115.13,0 128.03,0 140.94,0 153.84,0 166.74,0 179.65,0 192.55,0 205.45,0 218.35,0 231.26,0 244.16,0 257.06,0 
				269.97,0 282.87,0 295.77,0 308.68,0 321.58,0 334.48,0 347.39,0 360.29,0 373.19,0 386.1,0 399,0 399,12.9 399,25.81 399,38.71 
				399,51.61 399,64.52 399,77.42 399,90.32 399,103.23 399,116.13 399,129.03 399,141.94 399,154.84 399,167.74 399,180.65 
				399,193.55 399,206.45 399,219.35 399,232.26 399,245.16 399,258.06 399,270.97 399,283.87 399,296.77 399,309.68 399,322.58 
				399,335.48 399,348.39 399,361.29 399,374.19 			"/>
			<polyline class="st9" points="399,12.9 386.1,12.9 373.19,12.9 360.29,12.9 347.39,12.9 334.48,12.9 321.58,12.9 308.68,12.9 
				295.77,12.9 282.87,12.9 269.97,12.9 257.06,12.9 244.16,12.9 231.26,12.9 218.35,12.9 205.45,12.9 192.55,12.9 179.65,12.9 
				166.74,12.9 153.84,12.9 140.94,12.9 128.03,12.9 115.13,12.9 102.23,12.9 89.32,12.9 76.42,12.9 63.52,12.9 50.61,12.9 
				37.71,12.9 24.81,12.9 11.9,12.9 -1,12.9 			"/>
			<polyline class="st9" points="399,25.81 386.1,25.81 373.19,25.81 360.29,25.81 347.39,25.81 334.48,25.81 321.58,25.81 
				308.68,25.81 295.77,25.81 282.87,25.81 269.97,25.81 257.06,25.81 244.16,25.81 231.26,25.81 218.35,25.81 205.45,25.81 
				192.55,25.81 179.65,25.81 166.74,25.81 153.84,25.81 140.94,25.81 128.03,25.81 115.13,25.81 102.23,25.81 89.32,25.81 
				76.42,25.81 63.52,25.81 50.61,25.81 37.71,25.81 24.81,25.81 11.9,25.81 -1,25.81 			"/>
			<polyline class="st9" points="399,38.71 386.1,38.71 373.19,38.71 360.29,38.71 347.39,38.71 334.48,38.71 321.58,38.71 
				308.68,38.71 295.77,38.71 282.87,38.71 269.97,38.71 257.06,38.71 244.16,38.71 231.26,38.71 218.35,38.71 205.45,38.71 
				192.55,38.71 179.65,38.71 166.74,38.71 153.84,38.71 140.94,38.71 128.03,38.71 115.13,38.71 102.23,38.71 89.32,38.71 
				76.42,38.71 63.52,38.71 50.61,38.71 37.71,38.71 24.81,38.71 11.9,38.71 -1,38.71 			"/>
			<polyline class="st9" points="399,51.61 386.1,51.61 373.19,51.61 360.29,51.61 347.39,51.61 334.48,51.61 321.58,51.61 
				308.68,51.61 295.77,51.61 282.87,51.61 269.97,51.61 257.06,51.61 244.16,51.61 231.26,51.61 218.35,51.61 205.45,51.61 
				192.55,51.61 179.65,51.61 166.74,51.61 153.84,51.61 140.94,51.61 128.03,51.61 115.13,51.61 102.23,51.61 89.32,51.61 
				76.42,51.61 63.52,51.61 50.61,51.61 37.71,51.61 24.81,51.61 11.9,51.61 -1,51.61 			"/>
			<polyline class="st9" points="399,64.52 386.1,64.52 373.19,64.52 360.29,64.52 347.39,64.52 334.48,64.52 321.58,64.52 
				308.68,64.52 295.77,64.52 282.87,64.52 269.97,64.52 257.06,64.52 244.16,64.52 231.26,64.52 218.35,64.52 205.45,64.52 
				192.55,64.52 179.65,64.52 166.74,64.52 153.84,64.52 140.94,64.52 128.03,64.52 115.13,64.52 102.23,64.52 89.32,64.52 
				76.42,64.52 63.52,64.52 50.61,64.52 37.71,64.52 24.81,64.52 11.9,64.52 -1,64.52 			"/>
			<polyline class="st9" points="399,77.42 386.1,77.42 373.19,77.42 360.29,77.42 347.39,77.42 334.48,77.42 321.58,77.42 
				308.68,77.42 295.77,77.42 282.87,77.42 269.97,77.42 257.06,77.42 244.16,77.42 231.26,77.42 218.35,77.42 205.45,77.42 
				192.55,77.42 179.65,77.42 166.74,77.42 153.84,77.42 140.94,77.42 128.03,77.42 115.13,77.42 102.23,77.42 89.32,77.42 
				76.42,77.42 63.52,77.42 50.61,77.42 37.71,77.42 24.81,77.42 11.9,77.42 -1,77.42 			"/>
			<polyline class="st9" points="399,90.32 386.1,90.32 373.19,90.32 360.29,90.32 347.39,90.32 334.48,90.32 321.58,90.32 
				308.68,90.32 295.77,90.32 282.87,90.32 269.97,90.32 257.06,90.32 244.16,90.32 231.26,90.32 218.35,90.32 205.45,90.32 
				192.55,90.32 179.65,90.32 166.74,90.32 153.84,90.32 140.94,90.32 128.03,90.32 115.13,90.32 102.23,90.32 89.32,90.32 
				76.42,90.32 63.52,90.32 50.61,90.32 37.71,90.32 24.81,90.32 11.9,90.32 -1,90.32 			"/>
			<polyline class="st9" points="399,103.23 386.1,103.23 373.19,103.23 360.29,103.23 347.39,103.23 334.48,103.23 321.58,103.23 
				308.68,103.23 295.77,103.23 282.87,103.23 269.97,103.23 257.06,103.23 244.16,103.23 231.26,103.23 218.35,103.23 
				205.45,103.23 192.55,103.23 179.65,103.23 166.74,103.23 153.84,103.23 140.94,103.23 128.03,103.23 115.13,103.23 
				102.23,103.23 89.32,103.23 76.42,103.23 63.52,103.23 50.61,103.23 37.71,103.23 24.81,103.23 11.9,103.23 -1,103.23 			"/>
			<polyline class="st9" points="399,116.13 386.1,116.13 373.19,116.13 360.29,116.13 347.39,116.13 334.48,116.13 321.58,116.13 
				308.68,116.13 295.77,116.13 282.87,116.13 269.97,116.13 257.06,116.13 244.16,116.13 231.26,116.13 218.35,116.13 
				205.45,116.13 192.55,116.13 179.65,116.13 166.74,116.13 153.84,116.13 140.94,116.13 128.03,116.13 115.13,116.13 
				102.23,116.13 89.32,116.13 76.42,116.13 63.52,116.13 50.61,116.13 37.71,116.13 24.81,116.13 11.9,116.13 -1,116.13 			"/>
			<polyline class="st9" points="399,129.03 386.1,129.03 373.19,129.03 360.29,129.03 347.39,129.03 334.48,129.03 321.58,129.03 
				308.68,129.03 295.77,129.03 282.87,129.03 269.97,129.03 257.06,129.03 244.16,129.03 231.26,129.03 218.35,129.03 
				205.45,129.03 192.55,129.03 179.65,129.03 166.74,129.03 153.84,129.03 140.94,129.03 128.03,129.03 115.13,129.03 
				102.23,129.03 89.32,129.03 76.42,129.03 63.52,129.03 50.61,129.03 37.71,129.03 24.81,129.03 11.9,129.03 -1,129.03 			"/>
			<polyline class="st9" points="399,141.94 386.1,141.94 373.19,141.94 360.29,141.94 347.39,141.94 334.48,141.94 321.58,141.94 
				308.68,141.94 295.77,141.94 282.87,141.94 269.97,141.94 257.06,141.94 244.16,141.94 231.26,141.94 218.35,141.94 
				205.45,141.94 192.55,141.94 179.65,141.94 166.74,141.94 153.84,141.94 140.94,141.94 128.03,141.94 115.13,141.94 
				102.23,141.94 89.32,141.94 76.42,141.94 63.52,141.94 50.61,141.94 37.71,141.94 24.81,141.94 11.9,141.94 -1,141.94 			"/>
			<polyline class="st9" points="399,154.84 386.1,154.84 373.19,154.84 360.29,154.84 347.39,154.84 334.48,154.84 321.58,154.84 
				308.68,154.84 295.77,154.84 282.87,154.84 269.97,154.84 257.06,154.84 244.16,154.84 231.26,154.84 218.35,154.84 
				205.45,154.84 192.55,154.84 179.65,154.84 166.74,154.84 153.84,154.84 140.94,154.84 128.03,154.84 115.13,154.84 
				102.23,154.84 89.32,154.84 76.42,154.84 63.52,154.84 50.61,154.84 37.71,154.84 24.81,154.84 11.9,154.84 -1,154.84 			"/>
			<polyline class="st9" points="399,167.74 386.1,167.74 373.19,167.74 360.29,167.74 347.39,167.74 334.48,167.74 321.58,167.74 
				308.68,167.74 295.77,167.74 282.87,167.74 269.97,167.74 257.06,167.74 244.16,167.74 231.26,167.74 218.35,167.74 
				205.45,167.74 192.55,167.74 179.65,167.74 166.74,167.74 153.84,167.74 140.94,167.74 128.03,167.74 115.13,167.74 
				102.23,167.74 89.32,167.74 76.42,167.74 63.52,167.74 50.61,167.74 37.71,167.74 24.81,167.74 11.9,167.74 -1,167.74 			"/>
			<polyline class="st9" points="399,180.65 386.1,180.65 373.19,180.65 360.29,180.65 347.39,180.65 334.48,180.65 321.58,180.65 
				308.68,180.65 295.77,180.65 282.87,180.65 269.97,180.65 257.06,180.65 244.16,180.65 231.26,180.65 218.35,180.65 
				205.45,180.65 192.55,180.65 179.65,180.65 166.74,180.65 153.84,180.65 140.94,180.65 128.03,180.65 115.13,180.65 
				102.23,180.65 89.32,180.65 76.42,180.65 63.52,180.65 50.61,180.65 37.71,180.65 24.81,180.65 11.9,180.65 -1,180.65 			"/>
			<polyline class="st9" points="399,193.55 386.1,193.55 373.19,193.55 360.29,193.55 347.39,193.55 334.48,193.55 321.58,193.55 
				308.68,193.55 295.77,193.55 282.87,193.55 269.97,193.55 257.06,193.55 244.16,193.55 231.26,193.55 218.35,193.55 
				205.45,193.55 192.55,193.55 179.65,193.55 166.74,193.55 153.84,193.55 140.94,193.55 128.03,193.55 115.13,193.55 
				102.23,193.55 89.32,193.55 76.42,193.55 63.52,193.55 50.61,193.55 37.71,193.55 24.81,193.55 11.9,193.55 -1,193.55 			"/>
			<polyline class="st9" points="399,206.45 386.1,206.45 373.19,206.45 360.29,206.45 347.39,206.45 334.48,206.45 321.58,206.45 
				308.68,206.45 295.77,206.45 282.87,206.45 269.97,206.45 257.06,206.45 244.16,206.45 231.26,206.45 218.35,206.45 
				205.45,206.45 192.55,206.45 179.65,206.45 166.74,206.45 153.84,206.45 140.94,206.45 128.03,206.45 115.13,206.45 
				102.23,206.45 89.32,206.45 76.42,206.45 63.52,206.45 50.61,206.45 37.71,206.45 24.81,206.45 11.9,206.45 -1,206.45 			"/>
			<polyline class="st9" points="399,219.35 386.1,219.35 373.19,219.35 360.29,219.35 347.39,219.35 334.48,219.35 321.58,219.35 
				308.68,219.35 295.77,219.35 282.87,219.35 269.97,219.35 257.06,219.35 244.16,219.35 231.26,219.35 218.35,219.35 
				205.45,219.35 192.55,219.35 179.65,219.35 166.74,219.35 153.84,219.35 140.94,219.35 128.03,219.35 115.13,219.35 
				102.23,219.35 89.32,219.35 76.42,219.35 63.52,219.35 50.61,219.35 37.71,219.35 24.81,219.35 11.9,219.35 -1,219.35 			"/>
			<polyline class="st9" points="399,232.26 386.1,232.26 373.19,232.26 360.29,232.26 347.39,232.26 334.48,232.26 321.58,232.26 
				308.68,232.26 295.77,232.26 282.87,232.26 269.97,232.26 257.06,232.26 244.16,232.26 231.26,232.26 218.35,232.26 
				205.45,232.26 192.55,232.26 179.65,232.26 166.74,232.26 153.84,232.26 140.94,232.26 128.03,232.26 115.13,232.26 
				102.23,232.26 89.32,232.26 76.42,232.26 63.52,232.26 50.61,232.26 37.71,232.26 24.81,232.26 11.9,232.26 -1,232.26 			"/>
			<polyline class="st9" points="399,245.16 386.1,245.16 373.19,245.16 360.29,245.16 347.39,245.16 334.48,245.16 321.58,245.16 
				308.68,245.16 295.77,245.16 282.87,245.16 269.97,245.16 257.06,245.16 244.16,245.16 231.26,245.16 218.35,245.16 
				205.45,245.16 192.55,245.16 179.65,245.16 166.74,245.16 153.84,245.16 140.94,245.16 128.03,245.16 115.13,245.16 
				102.23,245.16 89.32,245.16 76.42,245.16 63.52,245.16 50.61,245.16 37.71,245.16 24.81,245.16 11.9,245.16 -1,245.16 			"/>
			<polyline class="st9" points="399,258.06 386.1,258.06 373.19,258.06 360.29,258.06 347.39,258.06 334.48,258.06 321.58,258.06 
				308.68,258.06 295.77,258.06 282.87,258.06 269.97,258.06 257.06,258.06 244.16,258.06 231.26,258.06 218.35,258.06 
				205.45,258.06 192.55,258.06 179.65,258.06 166.74,258.06 153.84,258.06 140.94,258.06 128.03,258.06 115.13,258.06 
				102.23,258.06 89.32,258.06 76.42,258.06 63.52,258.06 50.61,258.06 37.71,258.06 24.81,258.06 11.9,258.06 -1,258.06 			"/>
			<polyline class="st9" points="399,270.97 386.1,270.97 373.19,270.97 360.29,270.97 347.39,270.97 334.48,270.97 321.58,270.97 
				308.68,270.97 295.77,270.97 282.87,270.97 269.97,270.97 257.06,270.97 244.16,270.97 231.26,270.97 218.35,270.97 
				205.45,270.97 192.55,270.97 179.65,270.97 166.74,270.97 153.84,270.97 140.94,270.97 128.03,270.97 115.13,270.97 
				102.23,270.97 89.32,270.97 76.42,270.97 63.52,270.97 50.61,270.97 37.71,270.97 24.81,270.97 11.9,270.97 -1,270.97 			"/>
			<polyline class="st9" points="399,283.87 386.1,283.87 373.19,283.87 360.29,283.87 347.39,283.87 334.48,283.87 321.58,283.87 
				308.68,283.87 295.77,283.87 282.87,283.87 269.97,283.87 257.06,283.87 244.16,283.87 231.26,283.87 218.35,283.87 
				205.45,283.87 192.55,283.87 179.65,283.87 166.74,283.87 153.84,283.87 140.94,283.87 128.03,283.87 115.13,283.87 
				102.23,283.87 89.32,283.87 76.42,283.87 63.52,283.87 50.61,283.87 37.71,283.87 24.81,283.87 11.9,283.87 -1,283.87 			"/>
			<polyline class="st9" points="399,296.77 386.1,296.77 373.19,296.77 360.29,296.77 347.39,296.77 334.48,296.77 321.58,296.77 
				308.68,296.77 295.77,296.77 282.87,296.77 269.97,296.77 257.06,296.77 244.16,296.77 231.26,296.77 218.35,296.77 
				205.45,296.77 192.55,296.77 179.65,296.77 166.74,296.77 153.84,296.77 140.94,296.77 128.03,296.77 115.13,296.77 
				102.23,296.77 89.32,296.77 76.42,296.77 63.52,296.77 50.61,296.77 37.71,296.77 24.81,296.77 11.9,296.77 -1,296.77 			"/>
			<polyline class="st9" points="399,309.68 386.1,309.68 373.19,309.68 360.29,309.68 347.39,309.68 334.48,309.68 321.58,309.68 
				308.68,309.68 295.77,309.68 282.87,309.68 269.97,309.68 257.06,309.68 244.16,309.68 231.26,309.68 218.35,309.68 
				205.45,309.68 192.55,309.68 179.65,309.68 166.74,309.68 153.84,309.68 140.94,309.68 128.03,309.68 115.13,309.68 
				102.23,309.68 89.32,309.68 76.42,309.68 63.52,309.68 50.61,309.68 37.71,309.68 24.81,309.68 11.9,309.68 -1,309.68 			"/>
			<polyline class="st9" points="399,322.58 386.1,322.58 373.19,322.58 360.29,322.58 347.39,322.58 334.48,322.58 321.58,322.58 
				308.68,322.58 295.77,322.58 282.87,322.58 269.97,322.58 257.06,322.58 244.16,322.58 231.26,322.58 218.35,322.58 
				205.45,322.58 192.55,322.58 179.65,322.58 166.74,322.58 153.84,322.58 140.94,322.58 128.03,322.58 115.13,322.58 
				102.23,322.58 89.32,322.58 76.42,322.58 63.52,322.58 50.61,322.58 37.71,322.58 24.81,322.58 11.9,322.58 -1,322.58 			"/>
			<polyline class="st9" points="399,335.48 386.1,335.48 373.19,335.48 360.29,335.48 347.39,335.48 334.48,335.48 321.58,335.48 
				308.68,335.48 295.77,335.48 282.87,335.48 269.97,335.48 257.06,335.48 244.16,335.48 231.26,335.48 218.35,335.48 
				205.45,335.48 192.55,335.48 179.65,335.48 166.74,335.48 153.84,335.48 140.94,335.48 128.03,335.48 115.13,335.48 
				102.23,335.48 89.32,335.48 76.42,335.48 63.52,335.48 50.61,335.48 37.71,335.48 24.81,335.48 11.9,335.48 -1,335.48 			"/>
			<polyline class="st9" points="399,348.39 386.1,348.39 373.19,348.39 360.29,348.39 347.39,348.39 334.48,348.39 321.58,348.39 
				308.68,348.39 295.77,348.39 282.87,348.39 269.97,348.39 257.06,348.39 244.16,348.39 231.26,348.39 218.35,348.39 
				205.45,348.39 192.55,348.39 179.65,348.39 166.74,348.39 153.84,348.39 140.94,348.39 128.03,348.39 115.13,348.39 
				102.23,348.39 89.32,348.39 76.42,348.39 63.52,348.39 50.61,348.39 37.71,348.39 24.81,348.39 11.9,348.39 -1,348.39 			"/>
			<polyline class="st9" points="399,361.29 386.1,361.29 373.19,361.29 360.29,361.29 347.39,361.29 334.48,361.29 321.58,361.29 
				308.68,361.29 295.77,361.29 282.87,361.29 269.97,361.29 257.06,361.29 244.16,361.29 231.26,361.29 218.35,361.29 
				205.45,361.29 192.55,361.29 179.65,361.29 166.74,361.29 153.84,361.29 140.94,361.29 128.03,361.29 115.13,361.29 
				102.23,361.29 89.32,361.29 76.42,361.29 63.52,361.29 50.61,361.29 37.71,361.29 24.81,361.29 11.9,361.29 -1,361.29 			"/>
			<polyline class="st9" points="399,374.19 386.1,374.19 373.19,374.19 360.29,374.19 347.39,374.19 334.48,374.19 321.58,374.19 
				308.68,374.19 295.77,374.19 282.87,374.19 269.97,374.19 257.06,374.19 244.16,374.19 231.26,374.19 218.35,374.19 
				205.45,374.19 192.55,374.19 179.65,374.19 166.74,374.19 153.84,374.19 140.94,374.19 128.03,374.19 115.13,374.19 
				102.23,374.19 89.32,374.19 76.42,374.19 63.52,374.19 50.61,374.19 37.71,374.19 24.81,374.19 11.9,374.19 -1,374.19 			"/>
			<polyline class="st9" points="399,387.1 386.1,387.1 373.19,387.1 360.29,387.1 347.39,387.1 334.48,387.1 321.58,387.1 
				308.68,387.1 295.77,387.1 282.87,387.1 269.97,387.1 257.06,387.1 244.16,387.1 231.26,387.1 218.35,387.1 205.45,387.1 
				192.55,387.1 179.65,387.1 166.74,387.1 153.84,387.1 140.94,387.1 128.03,387.1 115.13,387.1 102.23,387.1 89.32,387.1 
				76.42,387.1 63.52,387.1 50.61,387.1 37.71,387.1 24.81,387.1 11.9,387.1 -1,387.1 			"/>
			<polyline class="st9" points="11.9,400 11.9,387.1 11.9,374.19 11.9,361.29 11.9,348.39 11.9,335.48 11.9,322.58 11.9,309.68 
				11.9,296.77 11.9,283.87 11.9,270.97 11.9,258.06 11.9,245.16 11.9,232.26 11.9,219.35 11.9,206.45 11.9,193.55 11.9,180.65 
				11.9,167.74 11.9,154.84 11.9,141.94 11.9,129.03 11.9,116.13 11.9,103.23 11.9,90.32 11.9,77.42 11.9,64.52 11.9,51.61 
				11.9,38.71 11.9,25.81 11.9,12.9 11.9,0 			"/>
			<polyline class="st9" points="24.81,400 24.81,387.1 24.81,374.19 24.81,361.29 24.81,348.39 24.81,335.48 24.81,322.58 
				24.81,309.68 24.81,296.77 24.81,283.87 24.81,270.97 24.81,258.06 24.81,245.16 24.81,232.26 24.81,219.35 24.81,206.45 
				24.81,193.55 24.81,180.65 24.81,167.74 24.81,154.84 24.81,141.94 24.81,129.03 24.81,116.13 24.81,103.23 24.81,90.32 
				24.81,77.42 24.81,64.52 24.81,51.61 24.81,38.71 24.81,25.81 24.81,12.9 24.81,0 			"/>
			<polyline class="st9" points="37.71,400 37.71,387.1 37.71,374.19 37.71,361.29 37.71,348.39 37.71,335.48 37.71,322.58 
				37.71,309.68 37.71,296.77 37.71,283.87 37.71,270.97 37.71,258.06 37.71,245.16 37.71,232.26 37.71,219.35 37.71,206.45 
				37.71,193.55 37.71,180.65 37.71,167.74 37.71,154.84 37.71,141.94 37.71,129.03 37.71,116.13 37.71,103.23 37.71,90.32 
				37.71,77.42 37.71,64.52 37.71,51.61 37.71,38.71 37.71,25.81 37.71,12.9 37.71,0 			"/>
			<polyline class="st9" points="50.61,400 50.61,387.1 50.61,374.19 50.61,361.29 50.61,348.39 50.61,335.48 50.61,322.58 
				50.61,309.68 50.61,296.77 50.61,283.87 50.61,270.97 50.61,258.06 50.61,245.16 50.61,232.26 50.61,219.35 50.61,206.45 
				50.61,193.55 50.61,180.65 50.61,167.74 50.61,154.84 50.61,141.94 50.61,129.03 50.61,116.13 50.61,103.23 50.61,90.32 
				50.61,77.42 50.61,64.52 50.61,51.61 50.61,38.71 50.61,25.81 50.61,12.9 50.61,0 			"/>
			<polyline class="st9" points="63.52,400 63.52,387.1 63.52,374.19 63.52,361.29 63.52,348.39 63.52,335.48 63.52,322.58 
				63.52,309.68 63.52,296.77 63.52,283.87 63.52,270.97 63.52,258.06 63.52,245.16 63.52,232.26 63.52,219.35 63.52,206.45 
				63.52,193.55 63.52,180.65 63.52,167.74 63.52,154.84 63.52,141.94 63.52,129.03 63.52,116.13 63.52,103.23 63.52,90.32 
				63.52,77.42 63.52,64.52 63.52,51.61 63.52,38.71 63.52,25.81 63.52,12.9 63.52,0 			"/>
			<polyline class="st9" points="76.42,400 76.42,387.1 76.42,374.19 76.42,361.29 76.42,348.39 76.42,335.48 76.42,322.58 
				76.42,309.68 76.42,296.77 76.42,283.87 76.42,270.97 76.42,258.06 76.42,245.16 76.42,232.26 76.42,219.35 76.42,206.45 
				76.42,193.55 76.42,180.65 76.42,167.74 76.42,154.84 76.42,141.94 76.42,129.03 76.42,116.13 76.42,103.23 76.42,90.32 
				76.42,77.42 76.42,64.52 76.42,51.61 76.42,38.71 76.42,25.81 76.42,12.9 76.42,0 			"/>
			<polyline class="st9" points="89.32,400 89.32,387.1 89.32,374.19 89.32,361.29 89.32,348.39 89.32,335.48 89.32,322.58 
				89.32,309.68 89.32,296.77 89.32,283.87 89.32,270.97 89.32,258.06 89.32,245.16 89.32,232.26 89.32,219.35 89.32,206.45 
				89.32,193.55 89.32,180.65 89.32,167.74 89.32,154.84 89.32,141.94 89.32,129.03 89.32,116.13 89.32,103.23 89.32,90.32 
				89.32,77.42 89.32,64.52 89.32,51.61 89.32,38.71 89.32,25.81 89.32,12.9 89.32,0 			"/>
			<polyline class="st9" points="102.23,400 102.23,387.1 102.23,374.19 102.23,361.29 102.23,348.39 102.23,335.48 102.23,322.58 
				102.23,309.68 102.23,296.77 102.23,283.87 102.23,270.97 102.23,258.06 102.23,245.16 102.23,232.26 102.23,219.35 
				102.23,206.45 102.23,193.55 102.23,180.65 102.23,167.74 102.23,154.84 102.23,141.94 102.23,129.03 102.23,116.13 
				102.23,103.23 102.23,90.32 102.23,77.42 102.23,64.52 102.23,51.61 102.23,38.71 102.23,25.81 102.23,12.9 102.23,0 			"/>
			<polyline class="st9" points="115.13,400 115.13,387.1 115.13,374.19 115.13,361.29 115.13,348.39 115.13,335.48 115.13,322.58 
				115.13,309.68 115.13,296.77 115.13,283.87 115.13,270.97 115.13,258.06 115.13,245.16 115.13,232.26 115.13,219.35 
				115.13,206.45 115.13,193.55 115.13,180.65 115.13,167.74 115.13,154.84 115.13,141.94 115.13,129.03 115.13,116.13 
				115.13,103.23 115.13,90.32 115.13,77.42 115.13,64.52 115.13,51.61 115.13,38.71 115.13,25.81 115.13,12.9 115.13,0 			"/>
			<polyline class="st9" points="128.03,400 128.03,387.1 128.03,374.19 128.03,361.29 128.03,348.39 128.03,335.48 128.03,322.58 
				128.03,309.68 128.03,296.77 128.03,283.87 128.03,270.97 128.03,258.06 128.03,245.16 128.03,232.26 128.03,219.35 
				128.03,206.45 128.03,193.55 128.03,180.65 128.03,167.74 128.03,154.84 128.03,141.94 128.03,129.03 128.03,116.13 
				128.03,103.23 128.03,90.32 128.03,77.42 128.03,64.52 128.03,51.61 128.03,38.71 128.03,25.81 128.03,12.9 128.03,0 			"/>
			<polyline class="st9" points="140.94,400 140.94,387.1 140.94,374.19 140.94,361.29 140.94,348.39 140.94,335.48 140.94,322.58 
				140.94,309.68 140.94,296.77 140.94,283.87 140.94,270.97 140.94,258.06 140.94,245.16 140.94,232.26 140.94,219.35 
				140.94,206.45 140.94,193.55 140.94,180.65 140.94,167.74 140.94,154.84 140.94,141.94 140.94,129.03 140.94,116.13 
				140.94,103.23 140.94,90.32 140.94,77.42 140.94,64.52 140.94,51.61 140.94,38.71 140.94,25.81 140.94,12.9 140.94,0 			"/>
			<polyline class="st9" points="153.84,400 153.84,387.1 153.84,374.19 153.84,361.29 153.84,348.39 153.84,335.48 153.84,322.58 
				153.84,309.68 153.84,296.77 153.84,283.87 153.84,270.97 153.84,258.06 153.84,245.16 153.84,232.26 153.84,219.35 
				153.84,206.45 153.84,193.55 153.84,180.65 153.84,167.74 153.84,154.84 153.84,141.94 153.84,129.03 153.84,116.13 
				153.84,103.23 153.84,90.32 153.84,77.42 153.84,64.52 153.84,51.61 153.84,38.71 153.84,25.81 153.84,12.9 153.84,0 			"/>
			<polyline class="st9" points="166.74,400 166.74,387.1 166.74,374.19 166.74,361.29 166.74,348.39 166.74,335.48 166.74,322.58 
				166.74,309.68 166.74,296.77 166.74,283.87 166.74,270.97 166.74,258.06 166.74,245.16 166.74,232.26 166.74,219.35 
				166.74,206.45 166.74,193.55 166.74,180.65 166.74,167.74 166.74,154.84 166.74,141.94 166.74,129.03 166.74,116.13 
				166.74,103.23 166.74,90.32 166.74,77.42 166.74,64.52 166.74,51.61 166.74,38.71 166.74,25.81 166.74,12.9 166.74,0 			"/>
			<polyline class="st9" points="179.65,400 179.65,387.1 179.65,374.19 179.65,361.29 179.65,348.39 179.65,335.48 179.65,322.58 
				179.65,309.68 179.65,296.77 179.65,283.87 179.65,270.97 179.65,258.06 179.65,245.16 179.65,232.26 179.65,219.35 
				179.65,206.45 179.65,193.55 179.65,180.65 179.65,167.74 179.65,154.84 179.65,141.94 179.65,129.03 179.65,116.13 
				179.65,103.23 179.65,90.32 179.65,77.42 179.65,64.52 179.65,51.61 179.65,38.71 179.65,25.81 179.65,12.9 179.65,0 			"/>
			<polyline class="st9" points="192.55,400 192.55,387.1 192.55,374.19 192.55,361.29 192.55,348.39 192.55,335.48 192.55,322.58 
				192.55,309.68 192.55,296.77 192.55,283.87 192.55,270.97 192.55,258.06 192.55,245.16 192.55,232.26 192.55,219.35 
				192.55,206.45 192.55,193.55 192.55,180.65 192.55,167.74 192.55,154.84 192.55,141.94 192.55,129.03 192.55,116.13 
				192.55,103.23 192.55,90.32 192.55,77.42 192.55,64.52 192.55,51.61 192.55,38.71 192.55,25.81 192.55,12.9 192.55,0 			"/>
			<polyline class="st9" points="205.45,400 205.45,387.1 205.45,374.19 205.45,361.29 205.45,348.39 205.45,335.48 205.45,322.58 
				205.45,309.68 205.45,296.77 205.45,283.87 205.45,270.97 205.45,258.06 205.45,245.16 205.45,232.26 205.45,219.35 
				205.45,206.45 205.45,193.55 205.45,180.65 205.45,167.74 205.45,154.84 205.45,141.94 205.45,129.03 205.45,116.13 
				205.45,103.23 205.45,90.32 205.45,77.42 205.45,64.52 205.45,51.61 205.45,38.71 205.45,25.81 205.45,12.9 205.45,0 			"/>
			<polyline class="st9" points="218.35,400 218.35,387.1 218.35,374.19 218.35,361.29 218.35,348.39 218.35,335.48 218.35,322.58 
				218.35,309.68 218.35,296.77 218.35,283.87 218.35,270.97 218.35,258.06 218.35,245.16 218.35,232.26 218.35,219.35 
				218.35,206.45 218.35,193.55 218.35,180.65 218.35,167.74 218.35,154.84 218.35,141.94 218.35,129.03 218.35,116.13 
				218.35,103.23 218.35,90.32 218.35,77.42 218.35,64.52 218.35,51.61 218.35,38.71 218.35,25.81 218.35,12.9 218.35,0 			"/>
			<polyline class="st9" points="231.26,400 231.26,387.1 231.26,374.19 231.26,361.29 231.26,348.39 231.26,335.48 231.26,322.58 
				231.26,309.68 231.26,296.77 231.26,283.87 231.26,270.97 231.26,258.06 231.26,245.16 231.26,232.26 231.26,219.35 
				231.26,206.45 231.26,193.55 231.26,180.65 231.26,167.74 231.26,154.84 231.26,141.94 231.26,129.03 231.26,116.13 
				231.26,103.23 231.26,90.32 231.26,77.42 231.26,64.52 231.26,51.61 231.26,38.71 231.26,25.81 231.26,12.9 231.26,0 			"/>
			<polyline class="st9" points="244.16,400 244.16,387.1 244.16,374.19 244.16,361.29 244.16,348.39 244.16,335.48 244.16,322.58 
				244.16,309.68 244.16,296.77 244.16,283.87 244.16,270.97 244.16,258.06 244.16,245.16 244.16,232.26 244.16,219.35 
				244.16,206.45 244.16,193.55 244.16,180.65 244.16,167.74 244.16,154.84 244.16,141.94 244.16,129.03 244.16,116.13 
				244.16,103.23 244.16,90.32 244.16,77.42 244.16,64.52 244.16,51.61 244.16,38.71 244.16,25.81 244.16,12.9 244.16,0 			"/>
			<polyline class="st9" points="257.06,400 257.06,387.1 257.06,374.19 257.06,361.29 257.06,348.39 257.06,335.48 257.06,322.58 
				257.06,309.68 257.06,296.77 257.06,283.87 257.06,270.97 257.06,258.06 257.06,245.16 257.06,232.26 257.06,219.35 
				257.06,206.45 257.06,193.55 257.06,180.65 257.06,167.74 257.06,154.84 257.06,141.94 257.06,129.03 257.06,116.13 
				257.06,103.23 257.06,90.32 257.06,77.42 257.06,64.52 257.06,51.61 257.06,38.71 257.06,25.81 257.06,12.9 257.06,0 			"/>
			<polyline class="st9" points="269.97,400 269.97,387.1 269.97,374.19 269.97,361.29 269.97,348.39 269.97,335.48 269.97,322.58 
				269.97,309.68 269.97,296.77 269.97,283.87 269.97,270.97 269.97,258.06 269.97,245.16 269.97,232.26 269.97,219.35 
				269.97,206.45 269.97,193.55 269.97,180.65 269.97,167.74 269.97,154.84 269.97,141.94 269.97,129.03 269.97,116.13 
				269.97,103.23 269.97,90.32 269.97,77.42 269.97,64.52 269.97,51.61 269.97,38.71 269.97,25.81 269.97,12.9 269.97,0 			"/>
			<polyline class="st9" points="282.87,400 282.87,387.1 282.87,374.19 282.87,361.29 282.87,348.39 282.87,335.48 282.87,322.58 
				282.87,309.68 282.87,296.77 282.87,283.87 282.87,270.97 282.87,258.06 282.87,245.16 282.87,232.26 282.87,219.35 
				282.87,206.45 282.87,193.55 282.87,180.65 282.87,167.74 282.87,154.84 282.87,141.94 282.87,129.03 282.87,116.13 
				282.87,103.23 282.87,90.32 282.87,77.42 282.87,64.52 282.87,51.61 282.87,38.71 282.87,25.81 282.87,12.9 282.87,0 			"/>
			<polyline class="st9" points="295.77,400 295.77,387.1 295.77,374.19 295.77,361.29 295.77,348.39 295.77,335.48 295.77,322.58 
				295.77,309.68 295.77,296.77 295.77,283.87 295.77,270.97 295.77,258.06 295.77,245.16 295.77,232.26 295.77,219.35 
				295.77,206.45 295.77,193.55 295.77,180.65 295.77,167.74 295.77,154.84 295.77,141.94 295.77,129.03 295.77,116.13 
				295.77,103.23 295.77,90.32 295.77,77.42 295.77,64.52 295.77,51.61 295.77,38.71 295.77,25.81 295.77,12.9 295.77,0 			"/>
			<polyline class="st9" points="308.68,400 308.68,387.1 308.68,374.19 308.68,361.29 308.68,348.39 308.68,335.48 308.68,322.58 
				308.68,309.68 308.68,296.77 308.68,283.87 308.68,270.97 308.68,258.06 308.68,245.16 308.68,232.26 308.68,219.35 
				308.68,206.45 308.68,193.55 308.68,180.65 308.68,167.74 308.68,154.84 308.68,141.94 308.68,129.03 308.68,116.13 
				308.68,103.23 308.68,90.32 308.68,77.42 308.68,64.52 308.68,51.61 308.68,38.71 308.68,25.81 308.68,12.9 308.68,0 			"/>
			<polyline class="st9" points="321.58,400 321.58,387.1 321.58,374.19 321.58,361.29 321.58,348.39 321.58,335.48 321.58,322.58 
				321.58,309.68 321.58,296.77 321.58,283.87 321.58,270.97 321.58,258.06 321.58,245.16 321.58,232.26 321.58,219.35 
				321.58,206.45 321.58,193.55 321.58,180.65 321.58,167.74 321.58,154.84 321.58,141.94 321.58,129.03 321.58,116.13 
				321.58,103.23 321.58,90.32 321.58,77.42 321.58,64.52 321.58,51.61 321.58,38.71 321.58,25.81 321.58,12.9 321.58,0 			"/>
			<polyline class="st9" points="334.48,400 334.48,387.1 334.48,374.19 334.48,361.29 334.48,348.39 334.48,335.48 334.48,322.58 
				334.48,309.68 334.48,296.77 334.48,283.87 334.48,270.97 334.48,258.06 334.48,245.16 334.48,232.26 334.48,219.35 
				334.48,206.45 334.48,193.55 334.48,180.65 334.48,167.74 334.48,154.84 334.48,141.94 334.48,129.03 334.48,116.13 
				334.48,103.23 334.48,90.32 334.48,77.42 334.48,64.52 334.48,51.61 334.48,38.71 334.48,25.81 334.48,12.9 334.48,0 			"/>
			<polyline class="st9" points="347.39,400 347.39,387.1 347.39,374.19 347.39,361.29 347.39,348.39 347.39,335.48 347.39,322.58 
				347.39,309.68 347.39,296.77 347.39,283.87 347.39,270.97 347.39,258.06 347.39,245.16 347.39,232.26 347.39,219.35 
				347.39,206.45 347.39,193.55 347.39,180.65 347.39,167.74 347.39,154.84 347.39,141.94 347.39,129.03 347.39,116.13 
				347.39,103.23 347.39,90.32 347.39,77.42 347.39,64.52 347.39,51.61 347.39,38.71 347.39,25.81 347.39,12.9 347.39,0 			"/>
			<polyline class="st9" points="360.29,400 360.29,387.1 360.29,374.19 360.29,361.29 360.29,348.39 360.29,335.48 360.29,322.58 
				360.29,309.68 360.29,296.77 360.29,283.87 360.29,270.97 360.29,258.06 360.29,245.16 360.29,232.26 360.29,219.35 
				360.29,206.45 360.29,193.55 360.29,180.65 360.29,167.74 360.29,154.84 360.29,141.94 360.29,129.03 360.29,116.13 
				360.29,103.23 360.29,90.32 360.29,77.42 360.29,64.52 360.29,51.61 360.29,38.71 360.29,25.81 360.29,12.9 360.29,0 			"/>
			<polyline class="st9" points="373.19,400 373.19,387.1 373.19,374.19 373.19,361.29 373.19,348.39 373.19,335.48 373.19,322.58 
				373.19,309.68 373.19,296.77 373.19,283.87 373.19,270.97 373.19,258.06 373.19,245.16 373.19,232.26 373.19,219.35 
				373.19,206.45 373.19,193.55 373.19,180.65 373.19,167.74 373.19,154.84 373.19,141.94 373.19,129.03 373.19,116.13 
				373.19,103.23 373.19,90.32 373.19,77.42 373.19,64.52 373.19,51.61 373.19,38.71 373.19,25.81 373.19,12.9 373.19,0 			"/>
			<polyline class="st9" points="386.1,400 386.1,387.1 386.1,374.19 386.1,361.29 386.1,348.39 386.1,335.48 386.1,322.58 
				386.1,309.68 386.1,296.77 386.1,283.87 386.1,270.97 386.1,258.06 386.1,245.16 386.1,232.26 386.1,219.35 386.1,206.45 
				386.1,193.55 386.1,180.65 386.1,167.74 386.1,154.84 386.1,141.94 386.1,129.03 386.1,116.13 386.1,103.23 386.1,90.32 
				386.1,77.42 386.1,64.52 386.1,51.61 386.1,38.71 386.1,25.81 386.1,12.9 386.1,0 			"/>
		</g>
	</g>
	<rect x="120.6" y="317.1" transform="matrix(-1.836970e-16 1 -1 -1.836970e-16 446.2 202)" class="st5" width="3" height="14"/>
	<rect x="244.1" y="361" class="st5" width="3" height="13"/>
	<rect x="233" y="123" class="st10" width="71" height="51"/>
	<rect x="259" y="141" class="st11" width="24" height="19"/>
	<rect x="216" y="104" class="st12" width="16" height="4"/>
	<rect x="230" y="101" class="st12" width="4" height="3"/>
	<rect x="214" y="101" class="st12" width="5" height="3"/>
	<rect x="206" y="79" class="st13" width="11" height="11"/>
	<rect x="209.5" y="82.5" class="st14" width="7.5" height="7.5"/>
	<rect x="228" y="79" class="st13" width="11" height="11"/>
	<rect x="231.5" y="82.5" class="st14" width="7.5" height="7.5"/>
	<rect x="205" y="168" class="st10" width="28" height="6"/>
	<rect x="233" y="174" class="st10" width="7" height="7"/>
	<rect x="233" y="168" class="st11" width="7" height="6"/>
	<rect x="240" y="174" class="st11" width="64" height="7"/>
	<rect x="205" y="174" class="st11" width="28" height="7"/>
	<g>
	</g>
	<g>
	</g>
	<g>
	</g>
	<g>
	</g>
	<g>
	</g>
	<g>
	</g>
	<g>
	</g>
	<g>
	</g>
	<g>
	</g>
	<g>
	</g>
	<g>
	</g>
	<g>
	</g>
	<g>
	</g>
	<g>
	</g>
	<g>
	</g>
</g>
</svg>
