<?xml version="1.0" encoding="utf-8"?>
<!-- Generator: Adobe Illustrator 23.0.1, SVG Export Plug-In . SVG Version: 6.00 Build 0)  -->
<svg version="1.1" id="Calque_1" xmlns="http://www.w3.org/2000/svg" xmlns:xlink="http://www.w3.org/1999/xlink" x="0px" y="0px"
	 viewBox="0 0 116.1 348.4" style="enable-background:new 0 0 116.1 348.4;" xml:space="preserve">
<style type="text/css">
	.st0{fill:#EDCA96;}
	.st1{fill:#FF954D;}
	.st2{fill:#FFFFFF;}
	.st3{fill:#606060;}
	.st4{fill:#0A090A;}
	.st5{fill:#373484;}
	.st6{fill:#0D0D42;}
	.st7{fill:#EDAFEF;}
	.st8{fill:#F9083C;}
	.st9{fill:#FF3B53;}
	.st10{display:none;}
	.st11{display:inline;fill:none;stroke:#000000;stroke-miterlimit:10;}
</style>
<g>
	<g id="XMLID_1_">
		<g>
			<rect x="0" y="180.6" class="st0" width="12.9" height="12.9"/>
			<rect x="0" y="167.7" class="st0" width="12.9" height="12.9"/>
			<rect x="0" y="154.8" class="st0" width="12.9" height="12.9"/>
			<rect x="0" y="141.9" class="st0" width="12.9" height="12.9"/>
			<rect x="0" y="129" class="st1" width="12.9" height="12.9"/>
			<rect x="12.9" y="180.6" class="st0" width="12.9" height="12.9"/>
			<rect x="12.9" y="129" class="st1" width="12.9" height="12.9"/>
			<rect x="12.9" y="77.4" class="st0" width="12.9" height="12.9"/>
			<rect x="12.9" y="64.5" class="st0" width="12.9" height="12.9"/>
			<rect x="12.9" y="51.6" class="st2" width="12.9" height="12.9"/>
			<rect x="12.9" y="38.7" class="st0" width="12.9" height="12.9"/>
			<rect x="12.9" y="25.8" class="st0" width="12.9" height="12.9"/>
			<rect x="12.9" y="12.9" class="st3" width="12.9" height="12.9"/>
			<rect x="25.8" y="335.5" class="st4" width="12.9" height="12.9"/>
			<rect x="25.8" y="245.2" class="st5" width="12.9" height="12.9"/>
			<rect x="25.8" y="232.3" class="st5" width="12.9" height="12.9"/>
			<rect x="25.8" y="219.4" class="st5" width="12.9" height="12.9"/>
			<rect x="25.8" y="206.4" class="st5" width="12.9" height="12.9"/>
			<rect x="25.8" y="193.5" class="st6" width="12.9" height="12.9"/>
			<rect x="25.8" y="180.6" class="st0" width="12.9" height="12.9"/>
			<rect x="25.8" y="167.7" class="st1" width="12.9" height="12.9"/>
			<rect x="25.8" y="154.8" class="st1" width="12.9" height="12.9"/>
			<rect x="25.8" y="141.9" class="st1" width="12.9" height="12.9"/>
			<rect x="25.8" y="129" class="st1" width="12.9" height="12.9"/>
			<rect x="25.8" y="90.3" class="st0" width="12.9" height="12.9"/>
			<rect x="25.8" y="77.4" class="st0" width="12.9" height="12.9"/>
			<rect x="25.8" y="64.5" class="st0" width="12.9" height="12.9"/>
			<rect x="25.8" y="51.6" class="st0" width="12.9" height="12.9"/>
			<rect x="25.8" y="38.7" class="st0" width="12.9" height="12.9"/>
			<rect x="25.8" y="25.8" class="st0" width="12.9" height="12.9"/>
			<rect x="25.8" y="12.9" class="st3" width="12.9" height="12.9"/>
			<rect x="25.8" y="0" class="st3" width="12.9" height="12.9"/>
			<rect x="38.7" y="322.6" width="12.9" height="12.9"/>
			<rect x="38.7" y="309.7" class="st0" width="12.9" height="12.9"/>
			<rect x="38.7" y="296.8" class="st0" width="12.9" height="12.9"/>
			<rect x="38.7" y="283.9" class="st0" width="12.9" height="12.9"/>
			<rect x="38.7" y="271" class="st0" width="12.9" height="12.9"/>
			<rect x="38.7" y="258.1" class="st0" width="12.9" height="12.9"/>
			<rect x="38.7" y="245.2" class="st5" width="12.9" height="12.9"/>
			<rect x="38.7" y="232.3" class="st5" width="12.9" height="12.9"/>
			<rect x="38.7" y="219.4" class="st5" width="12.9" height="12.9"/>
			<rect x="38.7" y="206.4" class="st5" width="12.9" height="12.9"/>
			<rect x="38.7" y="193.5" class="st7" width="12.9" height="12.9"/>
			<rect x="38.7" y="180.6" class="st0" width="12.9" height="12.9"/>
			<rect x="38.7" y="167.7" class="st7" width="12.9" height="12.9"/>
			<rect x="38.7" y="154.8" class="st7" width="12.9" height="12.9"/>
			<rect x="38.7" y="141.9" class="st1" width="12.9" height="12.9"/>
			<rect x="38.7" y="129" class="st0" width="12.9" height="12.9"/>
			<rect x="38.7" y="116.1" class="st0" width="12.9" height="12.9"/>
			<rect x="38.7" y="103.2" class="st0" width="12.9" height="12.9"/>
			<rect x="38.7" y="90.3" class="st0" width="12.9" height="12.9"/>
			<rect x="38.7" y="77.4" class="st8" width="12.9" height="12.9"/>
			<rect x="38.7" y="64.5" class="st0" width="12.9" height="12.9"/>
			<rect x="38.7" y="51.6" class="st0" width="12.9" height="12.9"/>
			<rect x="38.7" y="38.7" class="st0" width="12.9" height="12.9"/>
			<rect x="38.7" y="25.8" class="st0" width="12.9" height="12.9"/>
			<rect x="38.7" y="12.9" class="st3" width="12.9" height="12.9"/>
			<rect x="38.7" y="0" class="st3" width="12.9" height="12.9"/>
			<rect x="51.6" y="245.2" class="st5" width="12.9" height="12.9"/>
			<rect x="51.6" y="232.3" class="st5" width="12.9" height="12.9"/>
			<rect x="51.6" y="219.4" class="st5" width="12.9" height="12.9"/>
			<rect x="51.6" y="206.4" class="st5" width="12.9" height="12.9"/>
			<rect x="51.6" y="193.5" class="st7" width="12.9" height="12.9"/>
			<rect x="51.6" y="180.6" class="st0" width="12.9" height="12.9"/>
			<rect x="51.6" y="167.7" class="st7" width="12.9" height="12.9"/>
			<rect x="51.6" y="154.8" class="st7" width="12.9" height="12.9"/>
			<rect x="51.6" y="141.9" class="st1" width="12.9" height="12.9"/>
			<rect x="51.6" y="129" class="st0" width="12.9" height="12.9"/>
			<rect x="51.6" y="116.1" class="st0" width="12.9" height="12.9"/>
			<rect x="51.6" y="103.2" class="st0" width="12.9" height="12.9"/>
			<rect x="51.6" y="90.3" class="st0" width="12.9" height="12.9"/>
			<rect x="51.6" y="77.4" class="st0" width="12.9" height="12.9"/>
			<rect x="51.6" y="64.5" class="st0" width="12.9" height="12.9"/>
			<rect x="51.6" y="51.6" class="st2" width="12.9" height="12.9"/>
			<rect x="51.6" y="38.7" class="st0" width="12.9" height="12.9"/>
			<rect x="51.6" y="25.8" class="st0" width="12.9" height="12.9"/>
			<rect x="51.6" y="12.9" class="st3" width="12.9" height="12.9"/>
			<rect x="51.6" y="0" class="st3" width="12.9" height="12.9"/>
			<rect x="64.5" y="322.6" width="12.9" height="12.9"/>
			<rect x="64.5" y="309.7" class="st0" width="12.9" height="12.9"/>
			<rect x="64.5" y="296.8" class="st0" width="12.9" height="12.9"/>
			<rect x="64.5" y="283.9" class="st0" width="12.9" height="12.9"/>
			<rect x="64.5" y="271" class="st0" width="12.9" height="12.9"/>
			<rect x="64.5" y="258.1" class="st0" width="12.9" height="12.9"/>
			<rect x="64.5" y="245.2" class="st5" width="12.9" height="12.9"/>
			<rect x="64.5" y="232.3" class="st5" width="12.9" height="12.9"/>
			<rect x="64.5" y="219.4" class="st5" width="12.9" height="12.9"/>
			<rect x="64.5" y="206.4" class="st5" width="12.9" height="12.9"/>
			<rect x="64.5" y="193.5" class="st7" width="12.9" height="12.9"/>
			<rect x="64.5" y="180.6" class="st7" width="12.9" height="12.9"/>
			<rect x="64.5" y="167.7" class="st7" width="12.9" height="12.9"/>
			<rect x="64.5" y="154.8" class="st7" width="12.9" height="12.9"/>
			<rect x="64.5" y="141.9" class="st1" width="12.9" height="12.9"/>
			<rect x="64.5" y="129" class="st0" width="12.9" height="12.9"/>
			<rect x="64.5" y="116.1" class="st0" width="12.9" height="12.9"/>
			<rect x="64.5" y="103.2" class="st0" width="12.9" height="12.9"/>
			<rect x="64.5" y="90.3" class="st0" width="12.9" height="12.9"/>
			<rect x="64.5" y="77.4" class="st0" width="12.9" height="12.9"/>
			<rect x="64.5" y="64.5" class="st0" width="12.9" height="12.9"/>
			<rect x="64.5" y="51.6" class="st0" width="12.9" height="12.9"/>
			<rect x="64.5" y="38.7" class="st0" width="12.9" height="12.9"/>
			<rect x="64.5" y="25.8" class="st3" width="12.9" height="12.9"/>
			<rect x="64.5" y="12.9" class="st3" width="12.9" height="12.9"/>
			<rect x="77.4" y="335.5" class="st4" width="12.9" height="12.9"/>
			<rect x="77.4" y="245.2" class="st5" width="12.9" height="12.9"/>
			<rect x="77.4" y="232.3" class="st5" width="12.9" height="12.9"/>
			<rect x="77.4" y="219.4" class="st5" width="12.9" height="12.9"/>
			<rect x="77.4" y="206.4" class="st5" width="12.9" height="12.9"/>
			<rect x="77.4" y="193.5" class="st6" width="12.9" height="12.9"/>
			<rect x="77.4" y="180.6" class="st0" width="12.9" height="12.9"/>
			<rect x="77.4" y="167.7" class="st1" width="12.9" height="12.9"/>
			<rect x="77.4" y="154.8" class="st1" width="12.9" height="12.9"/>
			<rect x="77.4" y="141.9" class="st1" width="12.9" height="12.9"/>
			<rect x="77.4" y="129" class="st1" width="12.9" height="12.9"/>
			<rect x="77.4" y="64.5" class="st9" width="12.9" height="12.9"/>
			<rect x="77.4" y="51.6" class="st0" width="12.9" height="12.9"/>
			<rect x="77.4" y="38.7" class="st3" width="12.9" height="12.9"/>
			<rect x="77.4" y="25.8" class="st3" width="12.9" height="12.9"/>
			<rect x="77.4" y="12.9" class="st3" width="12.9" height="12.9"/>
			<rect x="90.3" y="180.6" class="st9" width="12.9" height="12.9"/>
			<rect x="90.3" y="129" class="st1" width="12.9" height="12.9"/>
			<rect x="103.2" y="180.6" class="st0" width="12.9" height="12.9"/>
			<rect x="103.2" y="167.7" class="st0" width="12.9" height="12.9"/>
			<rect x="103.2" y="154.8" class="st0" width="12.9" height="12.9"/>
			<rect x="103.2" y="141.9" class="st0" width="12.9" height="12.9"/>
			<rect x="103.2" y="129" class="st1" width="12.9" height="12.9"/>
		</g>
		<g class="st10">
			<polygon class="st11" points="-141.9,348.4 -141.9,335.5 -141.9,322.6 -141.9,309.7 -141.9,296.8 -141.9,283.9 -141.9,271 
				-141.9,258.1 -141.9,245.2 -141.9,232.3 -141.9,219.4 -141.9,206.4 -141.9,193.5 -141.9,180.6 -141.9,167.7 -141.9,154.8 
				-141.9,141.9 -141.9,129 -141.9,116.1 -141.9,103.2 -141.9,90.3 -141.9,77.4 -141.9,64.5 -141.9,51.6 -141.9,38.7 -141.9,25.8 
				-141.9,12.9 -141.9,0 -141.9,-12.9 -141.9,-25.8 -129,-25.8 -116.1,-25.8 -103.2,-25.8 -90.3,-25.8 -77.4,-25.8 -64.5,-25.8 
				-51.6,-25.8 -38.7,-25.8 -25.8,-25.8 -12.9,-25.8 0,-25.8 12.9,-25.8 25.8,-25.8 38.7,-25.8 51.6,-25.8 64.5,-25.8 77.4,-25.8 
				90.3,-25.8 103.2,-25.8 116.1,-25.8 129,-25.8 141.9,-25.8 154.8,-25.8 167.7,-25.8 180.6,-25.8 193.5,-25.8 206.4,-25.8 
				219.4,-25.8 232.3,-25.8 245.2,-25.8 258.1,-25.8 258.1,-12.9 258.1,0 258.1,12.9 258.1,25.8 258.1,38.7 258.1,51.6 258.1,64.5 
				258.1,77.4 258.1,90.3 258.1,103.2 258.1,116.1 258.1,129 258.1,141.9 258.1,154.8 258.1,167.7 258.1,180.6 258.1,193.5 
				258.1,206.4 258.1,219.4 258.1,232.3 258.1,245.2 258.1,258.1 258.1,271 258.1,283.9 258.1,296.8 258.1,309.7 258.1,322.6 
				258.1,335.5 258.1,348.4 258.1,361.3 258.1,374.2 245.2,374.2 232.3,374.2 219.3,374.2 206.4,374.2 193.5,374.2 180.6,374.2 
				167.7,374.2 154.8,374.2 141.9,374.2 129,374.2 116.1,374.2 103.2,374.2 90.3,374.2 77.4,374.2 64.5,374.2 51.6,374.2 
				38.7,374.2 25.8,374.2 12.9,374.2 0,374.2 -12.9,374.2 -25.8,374.2 -38.7,374.2 -51.6,374.2 -64.5,374.2 -77.4,374.2 
				-90.3,374.2 -103.2,374.2 -116.1,374.2 -129,374.2 -141.9,374.2 -141.9,361.3 			"/>
			<polyline class="st11" points="258.1,-12.9 245.2,-12.9 232.3,-12.9 219.4,-12.9 206.4,-12.9 193.5,-12.9 180.6,-12.9 
				167.7,-12.9 154.8,-12.9 141.9,-12.9 129,-12.9 116.1,-12.9 103.2,-12.9 90.3,-12.9 77.4,-12.9 64.5,-12.9 51.6,-12.9 
				38.7,-12.9 25.8,-12.9 12.9,-12.9 0,-12.9 -12.9,-12.9 -25.8,-12.9 -38.7,-12.9 -51.6,-12.9 -64.5,-12.9 -77.4,-12.9 
				-90.3,-12.9 -103.2,-12.9 -116.1,-12.9 -129,-12.9 -141.9,-12.9 			"/>
			<polyline class="st11" points="258.1,0 245.2,0 232.3,0 219.4,0 206.4,0 193.5,0 180.6,0 167.7,0 154.8,0 141.9,0 129,0 116.1,0 
				103.2,0 90.3,0 77.4,0 64.5,0 51.6,0 38.7,0 25.8,0 12.9,0 0,0 -12.9,0 -25.8,0 -38.7,0 -51.6,0 -64.5,0 -77.4,0 -90.3,0 
				-103.2,0 -116.1,0 -129,0 -141.9,0 			"/>
			<polyline class="st11" points="258.1,12.9 245.2,12.9 232.3,12.9 219.4,12.9 206.4,12.9 193.5,12.9 180.6,12.9 167.7,12.9 
				154.8,12.9 141.9,12.9 129,12.9 116.1,12.9 103.2,12.9 90.3,12.9 77.4,12.9 64.5,12.9 51.6,12.9 38.7,12.9 25.8,12.9 12.9,12.9 
				0,12.9 -12.9,12.9 -25.8,12.9 -38.7,12.9 -51.6,12.9 -64.5,12.9 -77.4,12.9 -90.3,12.9 -103.2,12.9 -116.1,12.9 -129,12.9 
				-141.9,12.9 			"/>
			<polyline class="st11" points="258.1,25.8 245.2,25.8 232.3,25.8 219.4,25.8 206.4,25.8 193.5,25.8 180.6,25.8 167.7,25.8 
				154.8,25.8 141.9,25.8 129,25.8 116.1,25.8 103.2,25.8 90.3,25.8 77.4,25.8 64.5,25.8 51.6,25.8 38.7,25.8 25.8,25.8 12.9,25.8 
				0,25.8 -12.9,25.8 -25.8,25.8 -38.7,25.8 -51.6,25.8 -64.5,25.8 -77.4,25.8 -90.3,25.8 -103.2,25.8 -116.1,25.8 -129,25.8 
				-141.9,25.8 			"/>
			<polyline class="st11" points="258.1,38.7 245.2,38.7 232.3,38.7 219.4,38.7 206.4,38.7 193.5,38.7 180.6,38.7 167.7,38.7 
				154.8,38.7 141.9,38.7 129,38.7 116.1,38.7 103.2,38.7 90.3,38.7 77.4,38.7 64.5,38.7 51.6,38.7 38.7,38.7 25.8,38.7 12.9,38.7 
				0,38.7 -12.9,38.7 -25.8,38.7 -38.7,38.7 -51.6,38.7 -64.5,38.7 -77.4,38.7 -90.3,38.7 -103.2,38.7 -116.1,38.7 -129,38.7 
				-141.9,38.7 			"/>
			<polyline class="st11" points="258.1,51.6 245.2,51.6 232.3,51.6 219.4,51.6 206.4,51.6 193.5,51.6 180.6,51.6 167.7,51.6 
				154.8,51.6 141.9,51.6 129,51.6 116.1,51.6 103.2,51.6 90.3,51.6 77.4,51.6 64.5,51.6 51.6,51.6 38.7,51.6 25.8,51.6 12.9,51.6 
				0,51.6 -12.9,51.6 -25.8,51.6 -38.7,51.6 -51.6,51.6 -64.5,51.6 -77.4,51.6 -90.3,51.6 -103.2,51.6 -116.1,51.6 -129,51.6 
				-141.9,51.6 			"/>
			<polyline class="st11" points="258.1,64.5 245.2,64.5 232.3,64.5 219.4,64.5 206.4,64.5 193.5,64.5 180.6,64.5 167.7,64.5 
				154.8,64.5 141.9,64.5 129,64.5 116.1,64.5 103.2,64.5 90.3,64.5 77.4,64.5 64.5,64.5 51.6,64.5 38.7,64.5 25.8,64.5 12.9,64.5 
				0,64.5 -12.9,64.5 -25.8,64.5 -38.7,64.5 -51.6,64.5 -64.5,64.5 -77.4,64.5 -90.3,64.5 -103.2,64.5 -116.1,64.5 -129,64.5 
				-141.9,64.5 			"/>
			<polyline class="st11" points="258.1,77.4 245.2,77.4 232.3,77.4 219.4,77.4 206.4,77.4 193.5,77.4 180.6,77.4 167.7,77.4 
				154.8,77.4 141.9,77.4 129,77.4 116.1,77.4 103.2,77.4 90.3,77.4 77.4,77.4 64.5,77.4 51.6,77.4 38.7,77.4 25.8,77.4 12.9,77.4 
				0,77.4 -12.9,77.4 -25.8,77.4 -38.7,77.4 -51.6,77.4 -64.5,77.4 -77.4,77.4 -90.3,77.4 -103.2,77.4 -116.1,77.4 -129,77.4 
				-141.9,77.4 			"/>
			<polyline class="st11" points="258.1,90.3 245.2,90.3 232.3,90.3 219.4,90.3 206.4,90.3 193.5,90.3 180.6,90.3 167.7,90.3 
				154.8,90.3 141.9,90.3 129,90.3 116.1,90.3 103.2,90.3 90.3,90.3 77.4,90.3 64.5,90.3 51.6,90.3 38.7,90.3 25.8,90.3 12.9,90.3 
				0,90.3 -12.9,90.3 -25.8,90.3 -38.7,90.3 -51.6,90.3 -64.5,90.3 -77.4,90.3 -90.3,90.3 -103.2,90.3 -116.1,90.3 -129,90.3 
				-141.9,90.3 			"/>
			<polyline class="st11" points="258.1,103.2 245.2,103.2 232.3,103.2 219.4,103.2 206.4,103.2 193.5,103.2 180.6,103.2 
				167.7,103.2 154.8,103.2 141.9,103.2 129,103.2 116.1,103.2 103.2,103.2 90.3,103.2 77.4,103.2 64.5,103.2 51.6,103.2 
				38.7,103.2 25.8,103.2 12.9,103.2 0,103.2 -12.9,103.2 -25.8,103.2 -38.7,103.2 -51.6,103.2 -64.5,103.2 -77.4,103.2 
				-90.3,103.2 -103.2,103.2 -116.1,103.2 -129,103.2 -141.9,103.2 			"/>
			<polyline class="st11" points="258.1,116.1 245.2,116.1 232.3,116.1 219.4,116.1 206.4,116.1 193.5,116.1 180.6,116.1 
				167.7,116.1 154.8,116.1 141.9,116.1 129,116.1 116.1,116.1 103.2,116.1 90.3,116.1 77.4,116.1 64.5,116.1 51.6,116.1 
				38.7,116.1 25.8,116.1 12.9,116.1 0,116.1 -12.9,116.1 -25.8,116.1 -38.7,116.1 -51.6,116.1 -64.5,116.1 -77.4,116.1 
				-90.3,116.1 -103.2,116.1 -116.1,116.1 -129,116.1 -141.9,116.1 			"/>
			<polyline class="st11" points="258.1,129 245.2,129 232.3,129 219.4,129 206.4,129 193.5,129 180.6,129 167.7,129 154.8,129 
				141.9,129 129,129 116.1,129 103.2,129 90.3,129 77.4,129 64.5,129 51.6,129 38.7,129 25.8,129 12.9,129 0,129 -12.9,129 
				-25.8,129 -38.7,129 -51.6,129 -64.5,129 -77.4,129 -90.3,129 -103.2,129 -116.1,129 -129,129 -141.9,129 			"/>
			<polyline class="st11" points="258.1,141.9 245.2,141.9 232.3,141.9 219.4,141.9 206.4,141.9 193.5,141.9 180.6,141.9 
				167.7,141.9 154.8,141.9 141.9,141.9 129,141.9 116.1,141.9 103.2,141.9 90.3,141.9 77.4,141.9 64.5,141.9 51.6,141.9 
				38.7,141.9 25.8,141.9 12.9,141.9 0,141.9 -12.9,141.9 -25.8,141.9 -38.7,141.9 -51.6,141.9 -64.5,141.9 -77.4,141.9 
				-90.3,141.9 -103.2,141.9 -116.1,141.9 -129,141.9 -141.9,141.9 			"/>
			<polyline class="st11" points="258.1,154.8 245.2,154.8 232.3,154.8 219.4,154.8 206.4,154.8 193.5,154.8 180.6,154.8 
				167.7,154.8 154.8,154.8 141.9,154.8 129,154.8 116.1,154.8 103.2,154.8 90.3,154.8 77.4,154.8 64.5,154.8 51.6,154.8 
				38.7,154.8 25.8,154.8 12.9,154.8 0,154.8 -12.9,154.8 -25.8,154.8 -38.7,154.8 -51.6,154.8 -64.5,154.8 -77.4,154.8 
				-90.3,154.8 -103.2,154.8 -116.1,154.8 -129,154.8 -141.9,154.8 			"/>
			<polyline class="st11" points="258.1,167.7 245.2,167.7 232.3,167.7 219.3,167.7 206.4,167.7 193.5,167.7 180.6,167.7 
				167.7,167.7 154.8,167.7 141.9,167.7 129,167.7 116.1,167.7 103.2,167.7 90.3,167.7 77.4,167.7 64.5,167.7 51.6,167.7 
				38.7,167.7 25.8,167.7 12.9,167.7 0,167.7 -12.9,167.7 -25.8,167.7 -38.7,167.7 -51.6,167.7 -64.5,167.7 -77.4,167.7 
				-90.3,167.7 -103.2,167.7 -116.1,167.7 -129,167.7 -141.9,167.7 			"/>
			<polyline class="st11" points="258.1,180.6 245.2,180.6 232.3,180.6 219.3,180.6 206.4,180.6 193.5,180.6 180.6,180.6 
				167.7,180.6 154.8,180.6 141.9,180.6 129,180.6 116.1,180.6 103.2,180.6 90.3,180.6 77.4,180.6 64.5,180.6 51.6,180.6 
				38.7,180.6 25.8,180.6 12.9,180.6 0,180.6 -12.9,180.6 -25.8,180.6 -38.7,180.6 -51.6,180.6 -64.5,180.6 -77.4,180.6 
				-90.3,180.6 -103.2,180.6 -116.1,180.6 -129,180.6 -141.9,180.6 			"/>
			<polyline class="st11" points="258.1,193.5 245.2,193.5 232.3,193.5 219.3,193.5 206.4,193.5 193.5,193.5 180.6,193.5 
				167.7,193.5 154.8,193.5 141.9,193.5 129,193.5 116.1,193.5 103.2,193.5 90.3,193.5 77.4,193.5 64.5,193.5 51.6,193.5 
				38.7,193.5 25.8,193.5 12.9,193.5 0,193.5 -12.9,193.5 -25.8,193.5 -38.7,193.5 -51.6,193.5 -64.5,193.5 -77.4,193.5 
				-90.3,193.5 -103.2,193.5 -116.1,193.5 -129,193.5 -141.9,193.5 			"/>
			<polyline class="st11" points="258.1,206.4 245.2,206.4 232.3,206.4 219.3,206.4 206.4,206.4 193.5,206.4 180.6,206.4 
				167.7,206.4 154.8,206.4 141.9,206.4 129,206.4 116.1,206.4 103.2,206.4 90.3,206.4 77.4,206.4 64.5,206.4 51.6,206.4 
				38.7,206.4 25.8,206.4 12.9,206.4 0,206.4 -12.9,206.4 -25.8,206.4 -38.7,206.4 -51.6,206.4 -64.5,206.4 -77.4,206.4 
				-90.3,206.4 -103.2,206.4 -116.1,206.4 -129,206.4 -141.9,206.4 			"/>
			<polyline class="st11" points="258.1,219.4 245.2,219.4 232.3,219.4 219.3,219.4 206.4,219.4 193.5,219.4 180.6,219.4 
				167.7,219.4 154.8,219.4 141.9,219.4 129,219.4 116.1,219.4 103.2,219.4 90.3,219.4 77.4,219.4 64.5,219.4 51.6,219.4 
				38.7,219.4 25.8,219.4 12.9,219.4 0,219.4 -12.9,219.4 -25.8,219.4 -38.7,219.4 -51.6,219.4 -64.5,219.4 -77.4,219.4 
				-90.3,219.4 -103.2,219.4 -116.1,219.4 -129,219.4 -141.9,219.4 			"/>
			<polyline class="st11" points="258.1,232.3 245.2,232.3 232.3,232.3 219.3,232.3 206.4,232.3 193.5,232.3 180.6,232.3 
				167.7,232.3 154.8,232.3 141.9,232.3 129,232.3 116.1,232.3 103.2,232.3 90.3,232.3 77.4,232.3 64.5,232.3 51.6,232.3 
				38.7,232.3 25.8,232.3 12.9,232.3 0,232.3 -12.9,232.3 -25.8,232.3 -38.7,232.3 -51.6,232.3 -64.5,232.3 -77.4,232.3 
				-90.3,232.3 -103.2,232.3 -116.1,232.3 -129,232.3 -141.9,232.3 			"/>
			<polyline class="st11" points="258.1,245.2 245.2,245.2 232.3,245.2 219.3,245.2 206.4,245.2 193.5,245.2 180.6,245.2 
				167.7,245.2 154.8,245.2 141.9,245.2 129,245.2 116.1,245.2 103.2,245.2 90.3,245.2 77.4,245.2 64.5,245.2 51.6,245.2 
				38.7,245.2 25.8,245.2 12.9,245.2 0,245.2 -12.9,245.2 -25.8,245.2 -38.7,245.2 -51.6,245.2 -64.5,245.2 -77.4,245.2 
				-90.3,245.2 -103.2,245.2 -116.1,245.2 -129,245.2 -141.9,245.2 			"/>
			<polyline class="st11" points="258.1,258.1 245.2,258.1 232.3,258.1 219.3,258.1 206.4,258.1 193.5,258.1 180.6,258.1 
				167.7,258.1 154.8,258.1 141.9,258.1 129,258.1 116.1,258.1 103.2,258.1 90.3,258.1 77.4,258.1 64.5,258.1 51.6,258.1 
				38.7,258.1 25.8,258.1 12.9,258.1 0,258.1 -12.9,258.1 -25.8,258.1 -38.7,258.1 -51.6,258.1 -64.5,258.1 -77.4,258.1 
				-90.3,258.1 -103.2,258.1 -116.1,258.1 -129,258.1 -141.9,258.1 			"/>
			<polyline class="st11" points="258.1,271 245.2,271 232.3,271 219.3,271 206.4,271 193.5,271 180.6,271 167.7,271 154.8,271 
				141.9,271 129,271 116.1,271 103.2,271 90.3,271 77.4,271 64.5,271 51.6,271 38.7,271 25.8,271 12.9,271 0,271 -12.9,271 
				-25.8,271 -38.7,271 -51.6,271 -64.5,271 -77.4,271 -90.3,271 -103.2,271 -116.1,271 -129,271 -141.9,271 			"/>
			<polyline class="st11" points="258.1,283.9 245.2,283.9 232.3,283.9 219.3,283.9 206.4,283.9 193.5,283.9 180.6,283.9 
				167.7,283.9 154.8,283.9 141.9,283.9 129,283.9 116.1,283.9 103.2,283.9 90.3,283.9 77.4,283.9 64.5,283.9 51.6,283.9 
				38.7,283.9 25.8,283.9 12.9,283.9 0,283.9 -12.9,283.9 -25.8,283.9 -38.7,283.9 -51.6,283.9 -64.5,283.9 -77.4,283.9 
				-90.3,283.9 -103.2,283.9 -116.1,283.9 -129,283.9 -141.9,283.9 			"/>
			<polyline class="st11" points="258.1,296.8 245.2,296.8 232.3,296.8 219.3,296.8 206.4,296.8 193.5,296.8 180.6,296.8 
				167.7,296.8 154.8,296.8 141.9,296.8 129,296.8 116.1,296.8 103.2,296.8 90.3,296.8 77.4,296.8 64.5,296.8 51.6,296.8 
				38.7,296.8 25.8,296.8 12.9,296.8 0,296.8 -12.9,296.8 -25.8,296.8 -38.7,296.8 -51.6,296.8 -64.5,296.8 -77.4,296.8 
				-90.3,296.8 -103.2,296.8 -116.1,296.8 -129,296.8 -141.9,296.8 			"/>
			<polyline class="st11" points="258.1,309.7 245.2,309.7 232.3,309.7 219.3,309.7 206.4,309.7 193.5,309.7 180.6,309.7 
				167.7,309.7 154.8,309.7 141.9,309.7 129,309.7 116.1,309.7 103.2,309.7 90.3,309.7 77.4,309.7 64.5,309.7 51.6,309.7 
				38.7,309.7 25.8,309.7 12.9,309.7 0,309.7 -12.9,309.7 -25.8,309.7 -38.7,309.7 -51.6,309.7 -64.5,309.7 -77.4,309.7 
				-90.3,309.7 -103.2,309.7 -116.1,309.7 -129,309.7 -141.9,309.7 			"/>
			<polyline class="st11" points="258.1,322.6 245.2,322.6 232.3,322.6 219.3,322.6 206.4,322.6 193.5,322.6 180.6,322.6 
				167.7,322.6 154.8,322.6 141.9,322.6 129,322.6 116.1,322.6 103.2,322.6 90.3,322.6 77.4,322.6 64.5,322.6 51.6,322.6 
				38.7,322.6 25.8,322.6 12.9,322.6 0,322.6 -12.9,322.6 -25.8,322.6 -38.7,322.6 -51.6,322.6 -64.5,322.6 -77.4,322.6 
				-90.3,322.6 -103.2,322.6 -116.1,322.6 -129,322.6 -141.9,322.6 			"/>
			<polyline class="st11" points="258.1,335.5 245.2,335.5 232.3,335.5 219.3,335.5 206.4,335.5 193.5,335.5 180.6,335.5 
				167.7,335.5 154.8,335.5 141.9,335.5 129,335.5 116.1,335.5 103.2,335.5 90.3,335.5 77.4,335.5 64.5,335.5 51.6,335.5 
				38.7,335.5 25.8,335.5 12.9,335.5 0,335.5 -12.9,335.5 -25.8,335.5 -38.7,335.5 -51.6,335.5 -64.5,335.5 -77.4,335.5 
				-90.3,335.5 -103.2,335.5 -116.1,335.5 -129,335.5 -141.9,335.5 			"/>
			<polyline class="st11" points="258.1,348.4 245.2,348.4 232.3,348.4 219.3,348.4 206.4,348.4 193.5,348.4 180.6,348.4 
				167.7,348.4 154.8,348.4 141.9,348.4 129,348.4 116.1,348.4 103.2,348.4 90.3,348.4 77.4,348.4 64.5,348.4 51.6,348.4 
				38.7,348.4 25.8,348.4 12.9,348.4 0,348.4 -12.9,348.4 -25.8,348.4 -38.7,348.4 -51.6,348.4 -64.5,348.4 -77.4,348.4 
				-90.3,348.4 -103.2,348.4 -116.1,348.4 -129,348.4 -141.9,348.4 			"/>
			<polyline class="st11" points="258.1,361.3 245.2,361.3 232.3,361.3 219.3,361.3 206.4,361.3 193.5,361.3 180.6,361.3 
				167.7,361.3 154.8,361.3 141.9,361.3 129,361.3 116.1,361.3 103.2,361.3 90.3,361.3 77.4,361.3 64.5,361.3 51.6,361.3 
				38.7,361.3 25.8,361.3 12.9,361.3 0,361.3 -12.9,361.3 -25.8,361.3 -38.7,361.3 -51.6,361.3 -64.5,361.3 -77.4,361.3 
				-90.3,361.3 -103.2,361.3 -116.1,361.3 -129,361.3 -141.9,361.3 			"/>
			<polyline class="st11" points="245.2,-25.8 245.2,-12.9 245.2,0 245.2,12.9 245.2,25.8 245.2,38.7 245.2,51.6 245.2,64.5 
				245.2,77.4 245.2,90.3 245.2,103.2 245.2,116.1 245.2,129 245.2,141.9 245.2,154.8 245.2,167.7 245.2,180.6 245.2,193.5 
				245.2,206.4 245.2,219.4 245.2,232.3 245.2,245.2 245.2,258.1 245.2,271 245.2,283.9 245.2,296.8 245.2,309.7 245.2,322.6 
				245.2,335.5 245.2,348.4 245.2,361.3 245.2,374.2 			"/>
			<polyline class="st11" points="232.3,-25.8 232.3,-12.9 232.3,0 232.3,12.9 232.3,25.8 232.3,38.7 232.3,51.6 232.3,64.5 
				232.3,77.4 232.3,90.3 232.3,103.2 232.3,116.1 232.3,129 232.3,141.9 232.3,154.8 232.3,167.7 232.3,180.6 232.3,193.5 
				232.3,206.4 232.3,219.4 232.3,232.3 232.3,245.2 232.3,258.1 232.3,271 232.3,283.9 232.3,296.8 232.3,309.7 232.3,322.6 
				232.3,335.5 232.3,348.4 232.3,361.3 232.3,374.2 			"/>
			<polyline class="st11" points="219.4,-25.8 219.4,-12.9 219.4,0 219.4,12.9 219.4,25.8 219.4,38.7 219.4,51.6 219.4,64.5 
				219.4,77.4 219.4,90.3 219.4,103.2 219.4,116.1 219.4,129 219.4,141.9 219.4,154.8 219.3,167.7 219.3,180.6 219.3,193.5 
				219.3,206.4 219.3,219.4 219.3,232.3 219.3,245.2 219.3,258.1 219.3,271 219.3,283.9 219.3,296.8 219.3,309.7 219.3,322.6 
				219.3,335.5 219.3,348.4 219.3,361.3 219.3,374.2 			"/>
			<polyline class="st11" points="206.4,-25.8 206.4,-12.9 206.4,0 206.4,12.9 206.4,25.8 206.4,38.7 206.4,51.6 206.4,64.5 
				206.4,77.4 206.4,90.3 206.4,103.2 206.4,116.1 206.4,129 206.4,141.9 206.4,154.8 206.4,167.7 206.4,180.6 206.4,193.5 
				206.4,206.4 206.4,219.4 206.4,232.3 206.4,245.2 206.4,258.1 206.4,271 206.4,283.9 206.4,296.8 206.4,309.7 206.4,322.6 
				206.4,335.5 206.4,348.4 206.4,361.3 206.4,374.2 			"/>
			<polyline class="st11" points="193.5,-25.8 193.5,-12.9 193.5,0 193.5,12.9 193.5,25.8 193.5,38.7 193.5,51.6 193.5,64.5 
				193.5,77.4 193.5,90.3 193.5,103.2 193.5,116.1 193.5,129 193.5,141.9 193.5,154.8 193.5,167.7 193.5,180.6 193.5,193.5 
				193.5,206.4 193.5,219.4 193.5,232.3 193.5,245.2 193.5,258.1 193.5,271 193.5,283.9 193.5,296.8 193.5,309.7 193.5,322.6 
				193.5,335.5 193.5,348.4 193.5,361.3 193.5,374.2 			"/>
			<polyline class="st11" points="180.6,-25.8 180.6,-12.9 180.6,0 180.6,12.9 180.6,25.8 180.6,38.7 180.6,51.6 180.6,64.5 
				180.6,77.4 180.6,90.3 180.6,103.2 180.6,116.1 180.6,129 180.6,141.9 180.6,154.8 180.6,167.7 180.6,180.6 180.6,193.5 
				180.6,206.4 180.6,219.4 180.6,232.3 180.6,245.2 180.6,258.1 180.6,271 180.6,283.9 180.6,296.8 180.6,309.7 180.6,322.6 
				180.6,335.5 180.6,348.4 180.6,361.3 180.6,374.2 			"/>
			<polyline class="st11" points="167.7,-25.8 167.7,-12.9 167.7,0 167.7,12.9 167.7,25.8 167.7,38.7 167.7,51.6 167.7,64.5 
				167.7,77.4 167.7,90.3 167.7,103.2 167.7,116.1 167.7,129 167.7,141.9 167.7,154.8 167.7,167.7 167.7,180.6 167.7,193.5 
				167.7,206.4 167.7,219.4 167.7,232.3 167.7,245.2 167.7,258.1 167.7,271 167.7,283.9 167.7,296.8 167.7,309.7 167.7,322.6 
				167.7,335.5 167.7,348.4 167.7,361.3 167.7,374.2 			"/>
			<polyline class="st11" points="154.8,-25.8 154.8,-12.9 154.8,0 154.8,12.9 154.8,25.8 154.8,38.7 154.8,51.6 154.8,64.5 
				154.8,77.4 154.8,90.3 154.8,103.2 154.8,116.1 154.8,129 154.8,141.9 154.8,154.8 154.8,167.7 154.8,180.6 154.8,193.5 
				154.8,206.4 154.8,219.4 154.8,232.3 154.8,245.2 154.8,258.1 154.8,271 154.8,283.9 154.8,296.8 154.8,309.7 154.8,322.6 
				154.8,335.5 154.8,348.4 154.8,361.3 154.8,374.2 			"/>
			<polyline class="st11" points="141.9,-25.8 141.9,-12.9 141.9,0 141.9,12.9 141.9,25.8 141.9,38.7 141.9,51.6 141.9,64.5 
				141.9,77.4 141.9,90.3 141.9,103.2 141.9,116.1 141.9,129 141.9,141.9 141.9,154.8 141.9,167.7 141.9,180.6 141.9,193.5 
				141.9,206.4 141.9,219.4 141.9,232.3 141.9,245.2 141.9,258.1 141.9,271 141.9,283.9 141.9,296.8 141.9,309.7 141.9,322.6 
				141.9,335.5 141.9,348.4 141.9,361.3 141.9,374.2 			"/>
			<polyline class="st11" points="129,-25.8 129,-12.9 129,0 129,12.9 129,25.8 129,38.7 129,51.6 129,64.5 129,77.4 129,90.3 
				129,103.2 129,116.1 129,129 129,141.9 129,154.8 129,167.7 129,180.6 129,193.5 129,206.4 129,219.4 129,232.3 129,245.2 
				129,258.1 129,271 129,283.9 129,296.8 129,309.7 129,322.6 129,335.5 129,348.4 129,361.3 129,374.2 			"/>
			<polyline class="st11" points="116.1,-25.8 116.1,-12.9 116.1,0 116.1,12.9 116.1,25.8 116.1,38.7 116.1,51.6 116.1,64.5 
				116.1,77.4 116.1,90.3 116.1,103.2 116.1,116.1 116.1,129 116.1,141.9 116.1,154.8 116.1,167.7 116.1,180.6 116.1,193.5 
				116.1,206.4 116.1,219.4 116.1,232.3 116.1,245.2 116.1,258.1 116.1,271 116.1,283.9 116.1,296.8 116.1,309.7 116.1,322.6 
				116.1,335.5 116.1,348.4 116.1,361.3 116.1,374.2 			"/>
			<polyline class="st11" points="103.2,-25.8 103.2,-12.9 103.2,0 103.2,12.9 103.2,25.8 103.2,38.7 103.2,51.6 103.2,64.5 
				103.2,77.4 103.2,90.3 103.2,103.2 103.2,116.1 103.2,129 103.2,141.9 103.2,154.8 103.2,167.7 103.2,180.6 103.2,193.5 
				103.2,206.4 103.2,219.4 103.2,232.3 103.2,245.2 103.2,258.1 103.2,271 103.2,283.9 103.2,296.8 103.2,309.7 103.2,322.6 
				103.2,335.5 103.2,348.4 103.2,361.3 103.2,374.2 			"/>
			<polyline class="st11" points="90.3,-25.8 90.3,-12.9 90.3,0 90.3,12.9 90.3,25.8 90.3,38.7 90.3,51.6 90.3,64.5 90.3,77.4 
				90.3,90.3 90.3,103.2 90.3,116.1 90.3,129 90.3,141.9 90.3,154.8 90.3,167.7 90.3,180.6 90.3,193.5 90.3,206.4 90.3,219.4 
				90.3,232.3 90.3,245.2 90.3,258.1 90.3,271 90.3,283.9 90.3,296.8 90.3,309.7 90.3,322.6 90.3,335.5 90.3,348.4 90.3,361.3 
				90.3,374.2 			"/>
			<polyline class="st11" points="77.4,-25.8 77.4,-12.9 77.4,0 77.4,12.9 77.4,25.8 77.4,38.7 77.4,51.6 77.4,64.5 77.4,77.4 
				77.4,90.3 77.4,103.2 77.4,116.1 77.4,129 77.4,141.9 77.4,154.8 77.4,167.7 77.4,180.6 77.4,193.5 77.4,206.4 77.4,219.4 
				77.4,232.3 77.4,245.2 77.4,258.1 77.4,271 77.4,283.9 77.4,296.8 77.4,309.7 77.4,322.6 77.4,335.5 77.4,348.4 77.4,361.3 
				77.4,374.2 			"/>
			<polyline class="st11" points="64.5,-25.8 64.5,-12.9 64.5,0 64.5,12.9 64.5,25.8 64.5,38.7 64.5,51.6 64.5,64.5 64.5,77.4 
				64.5,90.3 64.5,103.2 64.5,116.1 64.5,129 64.5,141.9 64.5,154.8 64.5,167.7 64.5,180.6 64.5,193.5 64.5,206.4 64.5,219.4 
				64.5,232.3 64.5,245.2 64.5,258.1 64.5,271 64.5,283.9 64.5,296.8 64.5,309.7 64.5,322.6 64.5,335.5 64.5,348.4 64.5,361.3 
				64.5,374.2 			"/>
			<polyline class="st11" points="51.6,-25.8 51.6,-12.9 51.6,0 51.6,12.9 51.6,25.8 51.6,38.7 51.6,51.6 51.6,64.5 51.6,77.4 
				51.6,90.3 51.6,103.2 51.6,116.1 51.6,129 51.6,141.9 51.6,154.8 51.6,167.7 51.6,180.6 51.6,193.5 51.6,206.4 51.6,219.4 
				51.6,232.3 51.6,245.2 51.6,258.1 51.6,271 51.6,283.9 51.6,296.8 51.6,309.7 51.6,322.6 51.6,335.5 51.6,348.4 51.6,361.3 
				51.6,374.2 			"/>
			<polyline class="st11" points="38.7,-25.8 38.7,-12.9 38.7,0 38.7,12.9 38.7,25.8 38.7,38.7 38.7,51.6 38.7,64.5 38.7,77.4 
				38.7,90.3 38.7,103.2 38.7,116.1 38.7,129 38.7,141.9 38.7,154.8 38.7,167.7 38.7,180.6 38.7,193.5 38.7,206.4 38.7,219.4 
				38.7,232.3 38.7,245.2 38.7,258.1 38.7,271 38.7,283.9 38.7,296.8 38.7,309.7 38.7,322.6 38.7,335.5 38.7,348.4 38.7,361.3 
				38.7,374.2 			"/>
			<polyline class="st11" points="25.8,-25.8 25.8,-12.9 25.8,0 25.8,12.9 25.8,25.8 25.8,38.7 25.8,51.6 25.8,64.5 25.8,77.4 
				25.8,90.3 25.8,103.2 25.8,116.1 25.8,129 25.8,141.9 25.8,154.8 25.8,167.7 25.8,180.6 25.8,193.5 25.8,206.4 25.8,219.4 
				25.8,232.3 25.8,245.2 25.8,258.1 25.8,271 25.8,283.9 25.8,296.8 25.8,309.7 25.8,322.6 25.8,335.5 25.8,348.4 25.8,361.3 
				25.8,374.2 			"/>
			<polyline class="st11" points="12.9,-25.8 12.9,-12.9 12.9,0 12.9,12.9 12.9,25.8 12.9,38.7 12.9,51.6 12.9,64.5 12.9,77.4 
				12.9,90.3 12.9,103.2 12.9,116.1 12.9,129 12.9,141.9 12.9,154.8 12.9,167.7 12.9,180.6 12.9,193.5 12.9,206.4 12.9,219.4 
				12.9,232.3 12.9,245.2 12.9,258.1 12.9,271 12.9,283.9 12.9,296.8 12.9,309.7 12.9,322.6 12.9,335.5 12.9,348.4 12.9,361.3 
				12.9,374.2 			"/>
			<polyline class="st11" points="0,-25.8 0,-12.9 0,0 0,12.9 0,25.8 0,38.7 0,51.6 0,64.5 0,77.4 0,90.3 0,103.2 0,116.1 0,129 
				0,141.9 0,154.8 0,167.7 0,180.6 0,193.5 0,206.4 0,219.4 0,232.3 0,245.2 0,258.1 0,271 0,283.9 0,296.8 0,309.7 0,322.6 
				0,335.5 0,348.4 0,361.3 0,374.2 			"/>
			<polyline class="st11" points="-12.9,-25.8 -12.9,-12.9 -12.9,0 -12.9,12.9 -12.9,25.8 -12.9,38.7 -12.9,51.6 -12.9,64.5 
				-12.9,77.4 -12.9,90.3 -12.9,103.2 -12.9,116.1 -12.9,129 -12.9,141.9 -12.9,154.8 -12.9,167.7 -12.9,180.6 -12.9,193.5 
				-12.9,206.4 -12.9,219.4 -12.9,232.3 -12.9,245.2 -12.9,258.1 -12.9,271 -12.9,283.9 -12.9,296.8 -12.9,309.7 -12.9,322.6 
				-12.9,335.5 -12.9,348.4 -12.9,361.3 -12.9,374.2 			"/>
			<polyline class="st11" points="-25.8,-25.8 -25.8,-12.9 -25.8,0 -25.8,12.9 -25.8,25.8 -25.8,38.7 -25.8,51.6 -25.8,64.5 
				-25.8,77.4 -25.8,90.3 -25.8,103.2 -25.8,116.1 -25.8,129 -25.8,141.9 -25.8,154.8 -25.8,167.7 -25.8,180.6 -25.8,193.5 
				-25.8,206.4 -25.8,219.4 -25.8,232.3 -25.8,245.2 -25.8,258.1 -25.8,271 -25.8,283.9 -25.8,296.8 -25.8,309.7 -25.8,322.6 
				-25.8,335.5 -25.8,348.4 -25.8,361.3 -25.8,374.2 			"/>
			<polyline class="st11" points="-38.7,-25.8 -38.7,-12.9 -38.7,0 -38.7,12.9 -38.7,25.8 -38.7,38.7 -38.7,51.6 -38.7,64.5 
				-38.7,77.4 -38.7,90.3 -38.7,103.2 -38.7,116.1 -38.7,129 -38.7,141.9 -38.7,154.8 -38.7,167.7 -38.7,180.6 -38.7,193.5 
				-38.7,206.4 -38.7,219.4 -38.7,232.3 -38.7,245.2 -38.7,258.1 -38.7,271 -38.7,283.9 -38.7,296.8 -38.7,309.7 -38.7,322.6 
				-38.7,335.5 -38.7,348.4 -38.7,361.3 -38.7,374.2 			"/>
			<polyline class="st11" points="-51.6,-25.8 -51.6,-12.9 -51.6,0 -51.6,12.9 -51.6,25.8 -51.6,38.7 -51.6,51.6 -51.6,64.5 
				-51.6,77.4 -51.6,90.3 -51.6,103.2 -51.6,116.1 -51.6,129 -51.6,141.9 -51.6,154.8 -51.6,167.7 -51.6,180.6 -51.6,193.5 
				-51.6,206.4 -51.6,219.4 -51.6,232.3 -51.6,245.2 -51.6,258.1 -51.6,271 -51.6,283.9 -51.6,296.8 -51.6,309.7 -51.6,322.6 
				-51.6,335.5 -51.6,348.4 -51.6,361.3 -51.6,374.2 			"/>
			<polyline class="st11" points="-64.5,-25.8 -64.5,-12.9 -64.5,0 -64.5,12.9 -64.5,25.8 -64.5,38.7 -64.5,51.6 -64.5,64.5 
				-64.5,77.4 -64.5,90.3 -64.5,103.2 -64.5,116.1 -64.5,129 -64.5,141.9 -64.5,154.8 -64.5,167.7 -64.5,180.6 -64.5,193.5 
				-64.5,206.4 -64.5,219.4 -64.5,232.3 -64.5,245.2 -64.5,258.1 -64.5,271 -64.5,283.9 -64.5,296.8 -64.5,309.7 -64.5,322.6 
				-64.5,335.5 -64.5,348.4 -64.5,361.3 -64.5,374.2 			"/>
			<polyline class="st11" points="-77.4,-25.8 -77.4,-12.9 -77.4,0 -77.4,12.9 -77.4,25.8 -77.4,38.7 -77.4,51.6 -77.4,64.5 
				-77.4,77.4 -77.4,90.3 -77.4,103.2 -77.4,116.1 -77.4,129 -77.4,141.9 -77.4,154.8 -77.4,167.7 -77.4,180.6 -77.4,193.5 
				-77.4,206.4 -77.4,219.4 -77.4,232.3 -77.4,245.2 -77.4,258.1 -77.4,271 -77.4,283.9 -77.4,296.8 -77.4,309.7 -77.4,322.6 
				-77.4,335.5 -77.4,348.4 -77.4,361.3 -77.4,374.2 			"/>
			<polyline class="st11" points="-90.3,-25.8 -90.3,-12.9 -90.3,0 -90.3,12.9 -90.3,25.8 -90.3,38.7 -90.3,51.6 -90.3,64.5 
				-90.3,77.4 -90.3,90.3 -90.3,103.2 -90.3,116.1 -90.3,129 -90.3,141.9 -90.3,154.8 -90.3,167.7 -90.3,180.6 -90.3,193.5 
				-90.3,206.4 -90.3,219.4 -90.3,232.3 -90.3,245.2 -90.3,258.1 -90.3,271 -90.3,283.9 -90.3,296.8 -90.3,309.7 -90.3,322.6 
				-90.3,335.5 -90.3,348.4 -90.3,361.3 -90.3,374.2 			"/>
			<polyline class="st11" points="-103.2,-25.8 -103.2,-12.9 -103.2,0 -103.2,12.9 -103.2,25.8 -103.2,38.7 -103.2,51.6 
				-103.2,64.5 -103.2,77.4 -103.2,90.3 -103.2,103.2 -103.2,116.1 -103.2,129 -103.2,141.9 -103.2,154.8 -103.2,167.7 
				-103.2,180.6 -103.2,193.5 -103.2,206.4 -103.2,219.4 -103.2,232.3 -103.2,245.2 -103.2,258.1 -103.2,271 -103.2,283.9 
				-103.2,296.8 -103.2,309.7 -103.2,322.6 -103.2,335.5 -103.2,348.4 -103.2,361.3 -103.2,374.2 			"/>
			<polyline class="st11" points="-116.1,-25.8 -116.1,-12.9 -116.1,0 -116.1,12.9 -116.1,25.8 -116.1,38.7 -116.1,51.6 
				-116.1,64.5 -116.1,77.4 -116.1,90.3 -116.1,103.2 -116.1,116.1 -116.1,129 -116.1,141.9 -116.1,154.8 -116.1,167.7 
				-116.1,180.6 -116.1,193.5 -116.1,206.4 -116.1,219.4 -116.1,232.3 -116.1,245.2 -116.1,258.1 -116.1,271 -116.1,283.9 
				-116.1,296.8 -116.1,309.7 -116.1,322.6 -116.1,335.5 -116.1,348.4 -116.1,361.3 -116.1,374.2 			"/>
			<polyline class="st11" points="-129,-25.8 -129,-12.9 -129,0 -129,12.9 -129,25.8 -129,38.7 -129,51.6 -129,64.5 -129,77.4 
				-129,90.3 -129,103.2 -129,116.1 -129,129 -129,141.9 -129,154.8 -129,167.7 -129,180.6 -129,193.5 -129,206.4 -129,219.4 
				-129,232.3 -129,245.2 -129,258.1 -129,271 -129,283.9 -129,296.8 -129,309.7 -129,322.6 -129,335.5 -129,348.4 -129,361.3 
				-129,374.2 			"/>
		</g>
	</g>
	<g>
		<rect x="52.6" y="55.7" width="11" height="5"/>
		<path d="M53.1,56.2l10,0v4l-10,0V56.2 M52.1,55.2v6l12,0v-6L52.1,55.2L52.1,55.2z"/>
	</g>
	<g>
		<rect x="13.6" y="55.7" width="12" height="5"/>
		<path d="M14.1,56.2h11v4h-11V56.2 M13.1,55.2v6h13v-6H13.1L13.1,55.2z"/>
	</g>
	<g>
		<rect x="65.1" y="335.7" width="3" height="12"/>
		<path d="M65.6,336.2h2v11h-2V336.2 M64.6,335.2v13h4v-13H64.6L64.6,335.2z"/>
	</g>
	<g>
		<rect x="48.1" y="335.2" width="3" height="12"/>
		<path d="M48.6,335.7h2v11h-2V335.7 M47.6,334.7v13h4v-13H47.6L47.6,334.7z"/>
	</g>
</g>
</svg>
