<?xml version="1.0" encoding="utf-8"?>
<!-- Generator: Adobe Illustrator 23.0.1, SVG Export Plug-In . SVG Version: 6.00 Build 0)  -->
<svg version="1.1" id="Calque_1" xmlns="http://www.w3.org/2000/svg" xmlns:xlink="http://www.w3.org/1999/xlink" x="0px" y="0px"
	 viewBox="0 0 181.6 336.2" style="enable-background:new 0 0 181.6 336.2;" xml:space="preserve">
<style type="text/css">
	.st0{fill:#7A7C81;}
	.st1{fill:#383838;}
	.st2{fill:#EDCA96;}
	.st3{fill:#D19B3F;}
	.st4{fill:#999999;}
	.st5{fill:#4F4E58;}
	.st6{fill:#916122;}
	.st7{fill:#A7ADAC;}
	.st8{display:none;}
	.st9{display:inline;fill:none;stroke:#000000;stroke-miterlimit:10;}
	.st10{fill:#FFFFFF;}
</style>
<g>
	
		<image style="display:none;overflow:visible;enable-background:new    ;" width="1300" height="1089" xlink:href="CA679516.jpeg"  transform="matrix(1.6623 0 0 1.6623 -937.52 -662)">
	</image>
</g>
<g>
	
		<image style="display:none;overflow:visible;enable-background:new    ;" width="1300" height="1089" xlink:href="CA67951A.jpeg"  transform="matrix(1.2626 0 0 1.2626 -890.52 -88)">
	</image>
	<g id="XMLID_1_">
		<g>
			<rect x="168.7" y="168.4" class="st0" width="12.9" height="12.9"/>
			<rect x="168.7" y="155.5" class="st0" width="12.9" height="12.9"/>
			<rect x="168.7" y="142.6" class="st0" width="12.9" height="12.9"/>
			<rect x="168.7" y="129.7" class="st0" width="12.9" height="12.9"/>
			<rect x="168.7" y="116.8" class="st0" width="12.9" height="12.9"/>
			<rect x="168.7" y="91" class="st1" width="12.9" height="12.9"/>
			<rect x="168.7" y="78.1" class="st1" width="12.9" height="12.9"/>
			<rect x="168.7" y="65.2" class="st2" width="12.9" height="12.9"/>
			<rect x="168.7" y="39.4" class="st2" width="12.9" height="12.9"/>
			<rect x="168.7" y="26.5" class="st3" width="12.9" height="12.9"/>
			<rect x="168.7" y="13.6" class="st3" width="12.9" height="12.9"/>
			<rect x="155.8" y="323.3" class="st0" width="12.9" height="12.9"/>
			<rect x="155.8" y="220.1" class="st4" width="12.9" height="12.9"/>
			<rect x="155.8" y="207.2" class="st0" width="12.9" height="12.9"/>
			<rect x="155.8" y="194.3" class="st0" width="12.9" height="12.9"/>
			<rect x="155.8" y="181.3" class="st0" width="12.9" height="12.9"/>
			<rect x="155.8" y="168.4" class="st0" width="12.9" height="12.9"/>
			<rect x="155.8" y="155.5" class="st4" width="12.9" height="12.9"/>
			<rect x="155.8" y="142.6" class="st4" width="12.9" height="12.9"/>
			<rect x="155.8" y="129.7" class="st4" width="12.9" height="12.9"/>
			<rect x="155.8" y="116.8" class="st4" width="12.9" height="12.9"/>
			<rect x="155.8" y="103.9" class="st1" width="12.9" height="12.9"/>
			<rect x="155.8" y="91" class="st1" width="12.9" height="12.9"/>
			<rect x="155.8" y="78.1" class="st1" width="12.9" height="12.9"/>
			<rect x="155.8" y="65.2" class="st1" width="12.9" height="12.9"/>
			<rect x="155.8" y="52.3" class="st2" width="12.9" height="12.9"/>
			<rect x="155.8" y="39.4" class="st2" width="12.9" height="12.9"/>
			<rect x="155.8" y="26.5" class="st2" width="12.9" height="12.9"/>
			<rect x="155.8" y="13.6" class="st3" width="12.9" height="12.9"/>
			<rect x="155.8" y="0.7" class="st3" width="12.9" height="12.9"/>
			<rect x="142.9" y="323.3" class="st0" width="12.9" height="12.9"/>
			<rect x="142.9" y="310.4" class="st0" width="12.9" height="12.9"/>
			<rect x="142.9" y="297.5" class="st0" width="12.9" height="12.9"/>
			<rect x="142.9" y="284.6" class="st0" width="12.9" height="12.9"/>
			<rect x="142.9" y="271.7" class="st0" width="12.9" height="12.9"/>
			<rect x="142.9" y="258.8" class="st0" width="12.9" height="12.9"/>
			<rect x="142.9" y="245.9" class="st0" width="12.9" height="12.9"/>
			<rect x="142.9" y="233" class="st4" width="12.9" height="12.9"/>
			<rect x="142.9" y="220.1" class="st4" width="12.9" height="12.9"/>
			<rect x="142.9" y="207.2" class="st0" width="12.9" height="12.9"/>
			<rect x="142.9" y="194.3" class="st0" width="12.9" height="12.9"/>
			<rect x="142.9" y="181.3" class="st0" width="12.9" height="12.9"/>
			<rect x="142.9" y="168.4" class="st0" width="12.9" height="12.9"/>
			<rect x="142.9" y="155.5" class="st0" width="12.9" height="12.9"/>
			<rect x="142.9" y="142.6" class="st0" width="12.9" height="12.9"/>
			<rect x="142.9" y="129.7" class="st0" width="12.9" height="12.9"/>
			<rect x="142.9" y="116.8" class="st5" width="12.9" height="12.9"/>
			<rect x="142.9" y="103.9" class="st1" width="12.9" height="12.9"/>
			<rect x="142.9" y="91" class="st1" width="12.9" height="12.9"/>
			<rect x="142.9" y="78.1" class="st1" width="12.9" height="12.9"/>
			<rect x="142.9" y="65.2" class="st1" width="12.9" height="12.9"/>
			<rect x="142.9" y="52.3" class="st2" width="12.9" height="12.9"/>
			<rect x="142.9" y="39.4" class="st2" width="12.9" height="12.9"/>
			<rect x="142.9" y="26.5" class="st2" width="12.9" height="12.9"/>
			<rect x="142.9" y="13.6" class="st3" width="12.9" height="12.9"/>
			<rect x="142.9" y="0.7" class="st3" width="12.9" height="12.9"/>
			<rect x="130" y="233" class="st4" width="12.9" height="12.9"/>
			<rect x="130" y="220.1" class="st5" width="12.9" height="12.9"/>
			<rect x="130" y="207.2" class="st0" width="12.9" height="12.9"/>
			<rect x="130" y="194.3" class="st0" width="12.9" height="12.9"/>
			<rect x="130" y="181.3" class="st4" width="12.9" height="12.9"/>
			<rect x="130" y="168.4" class="st0" width="12.9" height="12.9"/>
			<rect x="130" y="155.5" class="st0" width="12.9" height="12.9"/>
			<rect x="130" y="142.6" class="st0" width="12.9" height="12.9"/>
			<rect x="130" y="129.7" class="st0" width="12.9" height="12.9"/>
			<rect x="130" y="116.8" class="st5" width="12.9" height="12.9"/>
			<rect x="130" y="103.9" class="st1" width="12.9" height="12.9"/>
			<rect x="130" y="91" class="st1" width="12.9" height="12.9"/>
			<rect x="130" y="78.1" class="st1" width="12.9" height="12.9"/>
			<rect x="130" y="65.2" class="st2" width="12.9" height="12.9"/>
			<rect x="130" y="39.4" class="st2" width="12.9" height="12.9"/>
			<rect x="130" y="26.5" class="st2" width="12.9" height="12.9"/>
			<rect x="130" y="13.6" class="st3" width="12.9" height="12.9"/>
			<rect x="130" y="0.7" class="st3" width="12.9" height="12.9"/>
			<rect x="117.1" y="323.3" class="st0" width="12.9" height="12.9"/>
			<rect x="117.1" y="233" class="st4" width="12.9" height="12.9"/>
			<rect x="117.1" y="220.1" class="st5" width="12.9" height="12.9"/>
			<rect x="117.1" y="207.2" class="st0" width="12.9" height="12.9"/>
			<rect x="117.1" y="194.3" class="st4" width="12.9" height="12.9"/>
			<rect x="117.1" y="181.3" class="st0" width="12.9" height="12.9"/>
			<rect x="117.1" y="168.4" class="st0" width="12.9" height="12.9"/>
			<rect x="117.1" y="155.5" class="st0" width="12.9" height="12.9"/>
			<rect x="117.1" y="142.6" class="st0" width="12.9" height="12.9"/>
			<rect x="117.1" y="129.7" class="st0" width="12.9" height="12.9"/>
			<rect x="117.1" y="116.8" class="st4" width="12.9" height="12.9"/>
			<rect x="117.1" y="103.9" class="st1" width="12.9" height="12.9"/>
			<rect x="117.1" y="91" class="st1" width="12.9" height="12.9"/>
			<rect x="117.1" y="78.1" class="st1" width="12.9" height="12.9"/>
			<rect x="117.1" y="65.2" class="st2" width="12.9" height="12.9"/>
			<rect x="117.1" y="52.3" class="st2" width="12.9" height="12.9"/>
			<rect x="117.1" y="39.4" class="st2" width="12.9" height="12.9"/>
			<rect x="117.1" y="26.5" class="st2" width="12.9" height="12.9"/>
			<rect x="117.1" y="13.6" class="st3" width="12.9" height="12.9"/>
			<rect x="117.1" y="0.7" class="st3" width="12.9" height="12.9"/>
			<rect x="104.2" y="323.3" class="st0" width="12.9" height="12.9"/>
			<rect x="104.2" y="310.4" class="st0" width="12.9" height="12.9"/>
			<rect x="104.2" y="297.5" class="st0" width="12.9" height="12.9"/>
			<rect x="104.2" y="284.6" class="st0" width="12.9" height="12.9"/>
			<rect x="104.2" y="271.7" class="st0" width="12.9" height="12.9"/>
			<rect x="104.2" y="258.8" class="st0" width="12.9" height="12.9"/>
			<rect x="104.2" y="245.9" class="st0" width="12.9" height="12.9"/>
			<rect x="104.2" y="233" class="st4" width="12.9" height="12.9"/>
			<rect x="104.2" y="220.1" class="st4" width="12.9" height="12.9"/>
			<rect x="104.2" y="207.2" class="st4" width="12.9" height="12.9"/>
			<rect x="104.2" y="194.3" class="st0" width="12.9" height="12.9"/>
			<rect x="104.2" y="181.3" class="st0" width="12.9" height="12.9"/>
			<rect x="104.2" y="168.4" class="st0" width="12.9" height="12.9"/>
			<rect x="104.2" y="155.5" class="st0" width="12.9" height="12.9"/>
			<rect x="104.2" y="142.6" class="st0" width="12.9" height="12.9"/>
			<rect x="104.2" y="129.7" class="st0" width="12.9" height="12.9"/>
			<rect x="104.2" y="116.8" class="st0" width="12.9" height="12.9"/>
			<rect x="104.2" y="78.1" class="st1" width="12.9" height="12.9"/>
			<rect x="104.2" y="65.2" class="st2" width="12.9" height="12.9"/>
			<rect x="104.2" y="52.3" class="st2" width="12.9" height="12.9"/>
			<rect x="104.2" y="39.4" class="st2" width="12.9" height="12.9"/>
			<rect x="104.2" y="26.5" class="st3" width="12.9" height="12.9"/>
			<rect x="104.2" y="13.6" class="st3" width="12.9" height="12.9"/>
			<rect x="91.3" y="220.1" class="st4" width="12.9" height="12.9"/>
			<rect x="91.3" y="207.2" class="st0" width="12.9" height="12.9"/>
			<rect x="91.3" y="194.3" class="st0" width="12.9" height="12.9"/>
			<rect x="91.3" y="181.3" class="st0" width="12.9" height="12.9"/>
			<rect x="91.3" y="168.4" class="st0" width="12.9" height="12.9"/>
			<rect x="91.3" y="155.5" class="st0" width="12.9" height="12.9"/>
			<rect x="91.3" y="142.6" class="st0" width="12.9" height="12.9"/>
			<rect x="91.3" y="129.7" class="st0" width="12.9" height="12.9"/>
			<rect x="91.3" y="116.8" class="st0" width="12.9" height="12.9"/>
			<rect x="91.3" y="103.9" class="st6" width="12.9" height="12.9"/>
			<rect x="91.3" y="91" class="st6" width="12.9" height="12.9"/>
			<rect x="91.3" y="65.2" class="st7" width="12.9" height="12.9"/>
			<rect x="91.3" y="52.3" class="st2" width="12.9" height="12.9"/>
			<rect x="78.4" y="220.1" class="st6" width="12.9" height="12.9"/>
			<rect x="78.4" y="207.2" class="st6" width="12.9" height="12.9"/>
			<rect x="78.4" y="194.3" class="st6" width="12.9" height="12.9"/>
			<rect x="78.4" y="181.3" class="st6" width="12.9" height="12.9"/>
			<rect x="78.4" y="168.4" class="st0" width="12.9" height="12.9"/>
			<rect x="78.4" y="155.5" class="st0" width="12.9" height="12.9"/>
			<rect x="78.4" y="142.6" class="st0" width="12.9" height="12.9"/>
			<rect x="78.4" y="129.7" class="st0" width="12.9" height="12.9"/>
			<rect x="78.4" y="116.8" class="st0" width="12.9" height="12.9"/>
			<rect x="78.4" y="103.9" class="st2" width="12.9" height="12.9"/>
			<rect x="78.4" y="91" class="st6" width="12.9" height="12.9"/>
			<rect x="65.5" y="245.9" class="st6" width="12.9" height="12.9"/>
			<rect x="65.5" y="233" class="st6" width="12.9" height="12.9"/>
			<rect x="65.5" y="220.1" class="st6" width="12.9" height="12.9"/>
			<rect x="65.5" y="207.2" class="st6" width="12.9" height="12.9"/>
			<rect x="65.5" y="194.3" class="st6" width="12.9" height="12.9"/>
			<rect x="65.5" y="181.3" class="st6" width="12.9" height="12.9"/>
			<rect x="65.5" y="168.4" class="st6" width="12.9" height="12.9"/>
			<rect x="65.5" y="155.5" class="st6" width="12.9" height="12.9"/>
			<rect x="65.5" y="142.6" class="st6" width="12.9" height="12.9"/>
			<rect x="65.5" y="129.7" class="st6" width="12.9" height="12.9"/>
			<rect x="65.5" y="116.8" class="st6" width="12.9" height="12.9"/>
			<rect x="65.5" y="103.9" class="st6" width="12.9" height="12.9"/>
			<rect x="52.6" y="245.9" class="st6" width="12.9" height="12.9"/>
			<rect x="52.6" y="233" class="st6" width="12.9" height="12.9"/>
			<rect x="52.6" y="220.1" class="st6" width="12.9" height="12.9"/>
			<rect x="52.6" y="207.2" class="st6" width="12.9" height="12.9"/>
			<rect x="52.6" y="194.3" class="st6" width="12.9" height="12.9"/>
			<rect x="52.6" y="181.3" class="st6" width="12.9" height="12.9"/>
			<rect x="52.6" y="168.4" class="st6" width="12.9" height="12.9"/>
			<rect x="52.6" y="155.5" class="st6" width="12.9" height="12.9"/>
			<rect x="52.6" y="142.6" class="st6" width="12.9" height="12.9"/>
			<rect x="52.6" y="129.7" class="st6" width="12.9" height="12.9"/>
			<rect x="52.6" y="116.8" class="st6" width="12.9" height="12.9"/>
			<rect x="52.6" y="103.9" class="st6" width="12.9" height="12.9"/>
			<rect x="39.7" y="245.9" class="st6" width="12.9" height="12.9"/>
			<rect x="39.7" y="233" class="st6" width="12.9" height="12.9"/>
			<rect x="39.7" y="220.1" class="st6" width="12.9" height="12.9"/>
			<rect x="39.7" y="207.2" class="st6" width="12.9" height="12.9"/>
			<rect x="39.7" y="194.3" class="st6" width="12.9" height="12.9"/>
			<rect x="39.7" y="181.3" class="st6" width="12.9" height="12.9"/>
			<rect x="39.7" y="168.4" class="st6" width="12.9" height="12.9"/>
			<rect x="39.7" y="155.5" class="st6" width="12.9" height="12.9"/>
			<rect x="39.7" y="142.6" class="st6" width="12.9" height="12.9"/>
			<rect x="39.7" y="129.7" class="st6" width="12.9" height="12.9"/>
			<rect x="39.7" y="116.8" class="st6" width="12.9" height="12.9"/>
			<rect x="39.7" y="103.9" class="st6" width="12.9" height="12.9"/>
			<rect x="26.8" y="245.9" class="st6" width="12.9" height="12.9"/>
			<rect x="26.8" y="233" class="st6" width="12.9" height="12.9"/>
			<rect x="26.8" y="220.1" class="st6" width="12.9" height="12.9"/>
			<rect x="26.8" y="207.2" class="st6" width="12.9" height="12.9"/>
			<rect x="26.8" y="194.3" class="st6" width="12.9" height="12.9"/>
			<rect x="26.8" y="181.3" class="st6" width="12.9" height="12.9"/>
			<rect x="26.8" y="168.4" class="st6" width="12.9" height="12.9"/>
			<rect x="26.8" y="155.5" class="st6" width="12.9" height="12.9"/>
			<rect x="26.8" y="142.6" class="st6" width="12.9" height="12.9"/>
			<rect x="26.8" y="129.7" class="st6" width="12.9" height="12.9"/>
			<rect x="26.8" y="116.8" class="st6" width="12.9" height="12.9"/>
			<rect x="13.9" y="245.9" class="st6" width="12.9" height="12.9"/>
			<rect x="13.9" y="233" class="st6" width="12.9" height="12.9"/>
			<rect x="13.9" y="220.1" class="st6" width="12.9" height="12.9"/>
			<rect x="13.9" y="207.2" class="st6" width="12.9" height="12.9"/>
			<rect x="13.9" y="194.3" class="st6" width="12.9" height="12.9"/>
			<rect x="13.9" y="181.3" class="st6" width="12.9" height="12.9"/>
			<rect x="13.9" y="168.4" class="st6" width="12.9" height="12.9"/>
			<rect x="13.9" y="155.5" class="st6" width="12.9" height="12.9"/>
			<rect x="13.9" y="142.6" class="st6" width="12.9" height="12.9"/>
			<rect x="1" y="245.9" class="st6" width="12.9" height="12.9"/>
			<rect x="1" y="233" class="st6" width="12.9" height="12.9"/>
			<rect x="1" y="220.1" class="st6" width="12.9" height="12.9"/>
			<rect x="1" y="207.2" class="st6" width="12.9" height="12.9"/>
			<rect x="1" y="194.3" class="st6" width="12.9" height="12.9"/>
			<rect x="1" y="181.3" class="st6" width="12.9" height="12.9"/>
			<rect x="1" y="168.4" class="st6" width="12.9" height="12.9"/>
		</g>
		<g class="st8">
			<polygon class="st9" points="336.5,349.1 336.5,362 323.6,362 310.7,362 297.8,362 284.9,362 272,362 259.1,362 246.2,362 
				233.3,362 220.4,362 207.5,362 194.5,362 181.6,362 168.7,362 155.8,362 142.9,362 130,362 117.1,362 104.2,362 91.3,362 
				78.4,362 65.5,362 52.6,362 39.7,362 26.8,362 13.9,362 1,362 -11.9,362 -24.8,362 -37.7,362 -50.6,362 -63.5,362 -63.5,349.1 
				-63.5,336.2 -63.5,323.3 -63.5,310.4 -63.5,297.5 -63.5,284.6 -63.5,271.7 -63.5,258.8 -63.5,245.9 -63.5,233 -63.5,220.1 
				-63.5,207.2 -63.5,194.3 -63.5,181.3 -63.5,168.4 -63.5,155.5 -63.5,142.6 -63.5,129.7 -63.5,116.8 -63.5,103.9 -63.5,91 
				-63.5,78.1 -63.5,65.2 -63.5,52.3 -63.5,39.4 -63.5,26.5 -63.5,13.6 -63.5,0.7 -63.5,-12.2 -63.5,-25.1 -63.5,-38 -50.6,-38 
				-37.7,-38 -24.8,-38 -11.9,-38 1,-38 13.9,-38 26.8,-38 39.7,-38 52.6,-38 65.5,-38 78.4,-38 91.3,-38 104.2,-38 117.1,-38 
				130,-38 142.9,-38 155.8,-38 168.7,-38 181.6,-38 194.5,-38 207.5,-38 220.4,-38 233.3,-38 246.2,-38 259.1,-38 272,-38 
				284.9,-38 297.8,-38 310.7,-38 323.6,-38 336.5,-38 336.5,-25.1 336.5,-12.2 336.5,0.7 336.5,13.6 336.5,26.5 336.5,39.4 
				336.5,52.3 336.5,65.2 336.5,78.1 336.5,91 336.5,103.9 336.5,116.8 336.5,129.7 336.5,142.6 336.5,155.5 336.5,168.4 
				336.5,181.3 336.5,194.3 336.5,207.2 336.5,220.1 336.5,233 336.5,245.9 336.5,258.8 336.5,271.7 336.5,284.6 336.5,297.5 
				336.5,310.4 336.5,323.3 336.5,336.2 			"/>
			<polyline class="st9" points="336.5,-25.1 323.6,-25.1 310.7,-25.1 297.8,-25.1 284.9,-25.1 272,-25.1 259.1,-25.1 246.2,-25.1 
				233.3,-25.1 220.4,-25.1 207.5,-25.1 194.5,-25.1 181.6,-25.1 168.7,-25.1 155.8,-25.1 142.9,-25.1 130,-25.1 117.1,-25.1 
				104.2,-25.1 91.3,-25.1 78.4,-25.1 65.5,-25.1 52.6,-25.1 39.7,-25.1 26.8,-25.1 13.9,-25.1 1,-25.1 -11.9,-25.1 -24.8,-25.1 
				-37.7,-25.1 -50.6,-25.1 -63.5,-25.1 			"/>
			<polyline class="st9" points="336.5,-12.2 323.6,-12.2 310.7,-12.2 297.8,-12.2 284.9,-12.2 272,-12.2 259.1,-12.2 246.2,-12.2 
				233.3,-12.2 220.4,-12.2 207.5,-12.2 194.5,-12.2 181.6,-12.2 168.7,-12.2 155.8,-12.2 142.9,-12.2 130,-12.2 117.1,-12.2 
				104.2,-12.2 91.3,-12.2 78.4,-12.2 65.5,-12.2 52.6,-12.2 39.7,-12.2 26.8,-12.2 13.9,-12.2 1,-12.2 -11.9,-12.2 -24.8,-12.2 
				-37.7,-12.2 -50.6,-12.2 -63.5,-12.2 			"/>
			<polyline class="st9" points="336.5,0.7 323.6,0.7 310.7,0.7 297.8,0.7 284.9,0.7 272,0.7 259.1,0.7 246.2,0.7 233.3,0.7 
				220.4,0.7 207.5,0.7 194.5,0.7 181.6,0.7 168.7,0.7 155.8,0.7 142.9,0.7 130,0.7 117.1,0.7 104.2,0.7 91.3,0.7 78.4,0.7 
				65.5,0.7 52.6,0.7 39.7,0.7 26.8,0.7 13.9,0.7 1,0.7 -11.9,0.7 -24.8,0.7 -37.7,0.7 -50.6,0.7 -63.5,0.7 			"/>
			<polyline class="st9" points="336.5,13.6 323.6,13.6 310.7,13.6 297.8,13.6 284.9,13.6 272,13.6 259.1,13.6 246.2,13.6 
				233.3,13.6 220.4,13.6 207.5,13.6 194.5,13.6 181.6,13.6 168.7,13.6 155.8,13.6 142.9,13.6 130,13.6 117.1,13.6 104.2,13.6 
				91.3,13.6 78.4,13.6 65.5,13.6 52.6,13.6 39.7,13.6 26.8,13.6 13.9,13.6 1,13.6 -11.9,13.6 -24.8,13.6 -37.7,13.6 -50.6,13.6 
				-63.5,13.6 			"/>
			<polyline class="st9" points="336.5,26.5 323.6,26.5 310.7,26.5 297.8,26.5 284.9,26.5 272,26.5 259.1,26.5 246.2,26.5 
				233.3,26.5 220.4,26.5 207.5,26.5 194.5,26.5 181.6,26.5 168.7,26.5 155.8,26.5 142.9,26.5 130,26.5 117.1,26.5 104.2,26.5 
				91.3,26.5 78.4,26.5 65.5,26.5 52.6,26.5 39.7,26.5 26.8,26.5 13.9,26.5 1,26.5 -11.9,26.5 -24.8,26.5 -37.7,26.5 -50.6,26.5 
				-63.5,26.5 			"/>
			<polyline class="st9" points="336.5,39.4 323.6,39.4 310.7,39.4 297.8,39.4 284.9,39.4 272,39.4 259.1,39.4 246.2,39.4 
				233.3,39.4 220.4,39.4 207.5,39.4 194.5,39.4 181.6,39.4 168.7,39.4 155.8,39.4 142.9,39.4 130,39.4 117.1,39.4 104.2,39.4 
				91.3,39.4 78.4,39.4 65.5,39.4 52.6,39.4 39.7,39.4 26.8,39.4 13.9,39.4 1,39.4 -11.9,39.4 -24.8,39.4 -37.7,39.4 -50.6,39.4 
				-63.5,39.4 			"/>
			<polyline class="st9" points="336.5,52.3 323.6,52.3 310.7,52.3 297.8,52.3 284.9,52.3 272,52.3 259.1,52.3 246.2,52.3 
				233.3,52.3 220.4,52.3 207.5,52.3 194.5,52.3 181.6,52.3 168.7,52.3 155.8,52.3 142.9,52.3 130,52.3 117.1,52.3 104.2,52.3 
				91.3,52.3 78.4,52.3 65.5,52.3 52.6,52.3 39.7,52.3 26.8,52.3 13.9,52.3 1,52.3 -11.9,52.3 -24.8,52.3 -37.7,52.3 -50.6,52.3 
				-63.5,52.3 			"/>
			<polyline class="st9" points="336.5,65.2 323.6,65.2 310.7,65.2 297.8,65.2 284.9,65.2 272,65.2 259.1,65.2 246.2,65.2 
				233.3,65.2 220.4,65.2 207.5,65.2 194.5,65.2 181.6,65.2 168.7,65.2 155.8,65.2 142.9,65.2 130,65.2 117.1,65.2 104.2,65.2 
				91.3,65.2 78.4,65.2 65.5,65.2 52.6,65.2 39.7,65.2 26.8,65.2 13.9,65.2 1,65.2 -11.9,65.2 -24.8,65.2 -37.7,65.2 -50.6,65.2 
				-63.5,65.2 			"/>
			<polyline class="st9" points="336.5,78.1 323.6,78.1 310.7,78.1 297.8,78.1 284.9,78.1 272,78.1 259.1,78.1 246.2,78.1 
				233.3,78.1 220.4,78.1 207.5,78.1 194.5,78.1 181.6,78.1 168.7,78.1 155.8,78.1 142.9,78.1 130,78.1 117.1,78.1 104.2,78.1 
				91.3,78.1 78.4,78.1 65.5,78.1 52.6,78.1 39.7,78.1 26.8,78.1 13.9,78.1 1,78.1 -11.9,78.1 -24.8,78.1 -37.7,78.1 -50.6,78.1 
				-63.5,78.1 			"/>
			<polyline class="st9" points="336.5,91 323.6,91 310.7,91 297.8,91 284.9,91 272,91 259.1,91 246.2,91 233.3,91 220.4,91 
				207.5,91 194.5,91 181.6,91 168.7,91 155.8,91 142.9,91 130,91 117.1,91 104.2,91 91.3,91 78.4,91 65.5,91 52.6,91 39.7,91 
				26.8,91 13.9,91 1,91 -11.9,91 -24.8,91 -37.7,91 -50.6,91 -63.5,91 			"/>
			<polyline class="st9" points="336.5,103.9 323.6,103.9 310.7,103.9 297.8,103.9 284.9,103.9 272,103.9 259.1,103.9 246.2,103.9 
				233.3,103.9 220.4,103.9 207.5,103.9 194.5,103.9 181.6,103.9 168.7,103.9 155.8,103.9 142.9,103.9 130,103.9 117.1,103.9 
				104.2,103.9 91.3,103.9 78.4,103.9 65.5,103.9 52.6,103.9 39.7,103.9 26.8,103.9 13.9,103.9 1,103.9 -11.9,103.9 -24.8,103.9 
				-37.7,103.9 -50.6,103.9 -63.5,103.9 			"/>
			<polyline class="st9" points="336.5,116.8 323.6,116.8 310.7,116.8 297.8,116.8 284.9,116.8 272,116.8 259.1,116.8 246.2,116.8 
				233.3,116.8 220.4,116.8 207.5,116.8 194.5,116.8 181.6,116.8 168.7,116.8 155.8,116.8 142.9,116.8 130,116.8 117.1,116.8 
				104.2,116.8 91.3,116.8 78.4,116.8 65.5,116.8 52.6,116.8 39.7,116.8 26.8,116.8 13.9,116.8 1,116.8 -11.9,116.8 -24.8,116.8 
				-37.7,116.8 -50.6,116.8 -63.5,116.8 			"/>
			<polyline class="st9" points="336.5,129.7 323.6,129.7 310.7,129.7 297.8,129.7 284.9,129.7 272,129.7 259.1,129.7 246.2,129.7 
				233.3,129.7 220.4,129.7 207.5,129.7 194.5,129.7 181.6,129.7 168.7,129.7 155.8,129.7 142.9,129.7 130,129.7 117.1,129.7 
				104.2,129.7 91.3,129.7 78.4,129.7 65.5,129.7 52.6,129.7 39.7,129.7 26.8,129.7 13.9,129.7 1,129.7 -11.9,129.7 -24.8,129.7 
				-37.7,129.7 -50.6,129.7 -63.5,129.7 			"/>
			<polyline class="st9" points="336.5,142.6 323.6,142.6 310.7,142.6 297.8,142.6 284.9,142.6 272,142.6 259.1,142.6 246.2,142.6 
				233.3,142.6 220.4,142.6 207.5,142.6 194.5,142.6 181.6,142.6 168.7,142.6 155.8,142.6 142.9,142.6 130,142.6 117.1,142.6 
				104.2,142.6 91.3,142.6 78.4,142.6 65.5,142.6 52.6,142.6 39.7,142.6 26.8,142.6 13.9,142.6 1,142.6 -11.9,142.6 -24.8,142.6 
				-37.7,142.6 -50.6,142.6 -63.5,142.6 			"/>
			<polyline class="st9" points="336.5,155.5 323.6,155.5 310.7,155.5 297.8,155.5 284.9,155.5 272,155.5 259.1,155.5 246.2,155.5 
				233.3,155.5 220.4,155.5 207.5,155.5 194.5,155.5 181.6,155.5 168.7,155.5 155.8,155.5 142.9,155.5 130,155.5 117.1,155.5 
				104.2,155.5 91.3,155.5 78.4,155.5 65.5,155.5 52.6,155.5 39.7,155.5 26.8,155.5 13.9,155.5 1,155.5 -11.9,155.5 -24.8,155.5 
				-37.7,155.5 -50.6,155.5 -63.5,155.5 			"/>
			<polyline class="st9" points="336.5,168.4 323.6,168.4 310.7,168.4 297.8,168.4 284.9,168.4 272,168.4 259.1,168.4 246.2,168.4 
				233.3,168.4 220.4,168.4 207.5,168.4 194.5,168.4 181.6,168.4 168.7,168.4 155.8,168.4 142.9,168.4 130,168.4 117.1,168.4 
				104.2,168.4 91.3,168.4 78.4,168.4 65.5,168.4 52.6,168.4 39.7,168.4 26.8,168.4 13.9,168.4 1,168.4 -11.9,168.4 -24.8,168.4 
				-37.7,168.4 -50.6,168.4 -63.5,168.4 			"/>
			<polyline class="st9" points="336.5,181.3 323.6,181.3 310.7,181.3 297.8,181.3 284.9,181.3 272,181.3 259.1,181.3 246.2,181.3 
				233.3,181.3 220.4,181.3 207.5,181.3 194.5,181.3 181.6,181.3 168.7,181.3 155.8,181.3 142.9,181.3 130,181.3 117.1,181.3 
				104.2,181.3 91.3,181.3 78.4,181.3 65.5,181.3 52.6,181.3 39.7,181.3 26.8,181.3 13.9,181.3 1,181.3 -11.9,181.3 -24.8,181.3 
				-37.7,181.3 -50.6,181.3 -63.5,181.3 			"/>
			<polyline class="st9" points="336.5,194.3 323.6,194.3 310.7,194.3 297.8,194.3 284.9,194.3 272,194.3 259.1,194.3 246.2,194.3 
				233.3,194.3 220.4,194.3 207.5,194.3 194.5,194.3 181.6,194.3 168.7,194.3 155.8,194.3 142.9,194.3 130,194.3 117.1,194.3 
				104.2,194.3 91.3,194.3 78.4,194.3 65.5,194.3 52.6,194.3 39.7,194.3 26.8,194.3 13.9,194.3 1,194.3 -11.9,194.3 -24.8,194.3 
				-37.7,194.3 -50.6,194.3 -63.5,194.3 			"/>
			<polyline class="st9" points="336.5,207.2 323.6,207.2 310.7,207.2 297.8,207.2 284.9,207.2 272,207.2 259.1,207.2 246.2,207.2 
				233.3,207.2 220.4,207.2 207.5,207.2 194.5,207.2 181.6,207.2 168.7,207.2 155.8,207.2 142.9,207.2 130,207.2 117.1,207.2 
				104.2,207.2 91.3,207.2 78.4,207.2 65.5,207.2 52.6,207.2 39.7,207.2 26.8,207.2 13.9,207.2 1,207.2 -11.9,207.2 -24.8,207.2 
				-37.7,207.2 -50.6,207.2 -63.5,207.2 			"/>
			<polyline class="st9" points="336.5,220.1 323.6,220.1 310.7,220.1 297.8,220.1 284.9,220.1 272,220.1 259.1,220.1 246.2,220.1 
				233.3,220.1 220.4,220.1 207.5,220.1 194.5,220.1 181.6,220.1 168.7,220.1 155.8,220.1 142.9,220.1 130,220.1 117.1,220.1 
				104.2,220.1 91.3,220.1 78.4,220.1 65.5,220.1 52.6,220.1 39.7,220.1 26.8,220.1 13.9,220.1 1,220.1 -11.9,220.1 -24.8,220.1 
				-37.7,220.1 -50.6,220.1 -63.5,220.1 			"/>
			<polyline class="st9" points="336.5,233 323.6,233 310.7,233 297.8,233 284.9,233 272,233 259.1,233 246.2,233 233.3,233 
				220.4,233 207.5,233 194.5,233 181.6,233 168.7,233 155.8,233 142.9,233 130,233 117.1,233 104.2,233 91.3,233 78.4,233 
				65.5,233 52.6,233 39.7,233 26.8,233 13.9,233 1,233 -11.9,233 -24.8,233 -37.7,233 -50.6,233 -63.5,233 			"/>
			<polyline class="st9" points="336.5,245.9 323.6,245.9 310.7,245.9 297.8,245.9 284.9,245.9 272,245.9 259.1,245.9 246.2,245.9 
				233.3,245.9 220.4,245.9 207.5,245.9 194.5,245.9 181.6,245.9 168.7,245.9 155.8,245.9 142.9,245.9 130,245.9 117.1,245.9 
				104.2,245.9 91.3,245.9 78.4,245.9 65.5,245.9 52.6,245.9 39.7,245.9 26.8,245.9 13.9,245.9 1,245.9 -11.9,245.9 -24.8,245.9 
				-37.7,245.9 -50.6,245.9 -63.5,245.9 			"/>
			<polyline class="st9" points="336.5,258.8 323.6,258.8 310.7,258.8 297.8,258.8 284.9,258.8 272,258.8 259.1,258.8 246.2,258.8 
				233.3,258.8 220.4,258.8 207.5,258.8 194.5,258.8 181.6,258.8 168.7,258.8 155.8,258.8 142.9,258.8 130,258.8 117.1,258.8 
				104.2,258.8 91.3,258.8 78.4,258.8 65.5,258.8 52.6,258.8 39.7,258.8 26.8,258.8 13.9,258.8 1,258.8 -11.9,258.8 -24.8,258.8 
				-37.7,258.8 -50.6,258.8 -63.5,258.8 			"/>
			<polyline class="st9" points="336.5,271.7 323.6,271.7 310.7,271.7 297.8,271.7 284.9,271.7 272,271.7 259.1,271.7 246.2,271.7 
				233.3,271.7 220.4,271.7 207.5,271.7 194.5,271.7 181.6,271.7 168.7,271.7 155.8,271.7 142.9,271.7 130,271.7 117.1,271.7 
				104.2,271.7 91.3,271.7 78.4,271.7 65.5,271.7 52.6,271.7 39.7,271.7 26.8,271.7 13.9,271.7 1,271.7 -11.9,271.7 -24.8,271.7 
				-37.7,271.7 -50.6,271.7 -63.5,271.7 			"/>
			<polyline class="st9" points="336.5,284.6 323.6,284.6 310.7,284.6 297.8,284.6 284.9,284.6 272,284.6 259.1,284.6 246.2,284.6 
				233.3,284.6 220.4,284.6 207.5,284.6 194.5,284.6 181.6,284.6 168.7,284.6 155.8,284.6 142.9,284.6 130,284.6 117.1,284.6 
				104.2,284.6 91.3,284.6 78.4,284.6 65.5,284.6 52.6,284.6 39.7,284.6 26.8,284.6 13.9,284.6 1,284.6 -11.9,284.6 -24.8,284.6 
				-37.7,284.6 -50.6,284.6 -63.5,284.6 			"/>
			<polyline class="st9" points="336.5,297.5 323.6,297.5 310.7,297.5 297.8,297.5 284.9,297.5 272,297.5 259.1,297.5 246.2,297.5 
				233.3,297.5 220.4,297.5 207.5,297.5 194.5,297.5 181.6,297.5 168.7,297.5 155.8,297.5 142.9,297.5 130,297.5 117.1,297.5 
				104.2,297.5 91.3,297.5 78.4,297.5 65.5,297.5 52.6,297.5 39.7,297.5 26.8,297.5 13.9,297.5 1,297.5 -11.9,297.5 -24.8,297.5 
				-37.7,297.5 -50.6,297.5 -63.5,297.5 			"/>
			<polyline class="st9" points="336.5,310.4 323.6,310.4 310.7,310.4 297.8,310.4 284.9,310.4 272,310.4 259.1,310.4 246.2,310.4 
				233.3,310.4 220.4,310.4 207.5,310.4 194.5,310.4 181.6,310.4 168.7,310.4 155.8,310.4 142.9,310.4 130,310.4 117.1,310.4 
				104.2,310.4 91.3,310.4 78.4,310.4 65.5,310.4 52.6,310.4 39.7,310.4 26.8,310.4 13.9,310.4 1,310.4 -11.9,310.4 -24.8,310.4 
				-37.7,310.4 -50.6,310.4 -63.5,310.4 			"/>
			<polyline class="st9" points="336.5,323.3 323.6,323.3 310.7,323.3 297.8,323.3 284.9,323.3 272,323.3 259.1,323.3 246.2,323.3 
				233.3,323.3 220.4,323.3 207.5,323.3 194.5,323.3 181.6,323.3 168.7,323.3 155.8,323.3 142.9,323.3 130,323.3 117.1,323.3 
				104.2,323.3 91.3,323.3 78.4,323.3 65.5,323.3 52.6,323.3 39.7,323.3 26.8,323.3 13.9,323.3 1,323.3 -11.9,323.3 -24.8,323.3 
				-37.7,323.3 -50.6,323.3 -63.5,323.3 			"/>
			<polyline class="st9" points="336.5,336.2 323.6,336.2 310.7,336.2 297.8,336.2 284.9,336.2 272,336.2 259.1,336.2 246.2,336.2 
				233.3,336.2 220.4,336.2 207.5,336.2 194.5,336.2 181.6,336.2 168.7,336.2 155.8,336.2 142.9,336.2 130,336.2 117.1,336.2 
				104.2,336.2 91.3,336.2 78.4,336.2 65.5,336.2 52.6,336.2 39.7,336.2 26.8,336.2 13.9,336.2 1,336.2 -11.9,336.2 -24.8,336.2 
				-37.7,336.2 -50.6,336.2 -63.5,336.2 			"/>
			<polyline class="st9" points="336.5,349.1 323.6,349.1 310.7,349.1 297.8,349.1 284.9,349.1 272,349.1 259.1,349.1 246.2,349.1 
				233.3,349.1 220.4,349.1 207.5,349.1 194.5,349.1 181.6,349.1 168.7,349.1 155.8,349.1 142.9,349.1 130,349.1 117.1,349.1 
				104.2,349.1 91.3,349.1 78.4,349.1 65.5,349.1 52.6,349.1 39.7,349.1 26.8,349.1 13.9,349.1 1,349.1 -11.9,349.1 -24.8,349.1 
				-37.7,349.1 -50.6,349.1 -63.5,349.1 			"/>
			<polyline class="st9" points="-50.6,362 -50.6,349.1 -50.6,336.2 -50.6,323.3 -50.6,310.4 -50.6,297.5 -50.6,284.6 -50.6,271.7 
				-50.6,258.8 -50.6,245.9 -50.6,233 -50.6,220.1 -50.6,207.2 -50.6,194.3 -50.6,181.3 -50.6,168.4 -50.6,155.5 -50.6,142.6 
				-50.6,129.7 -50.6,116.8 -50.6,103.9 -50.6,91 -50.6,78.1 -50.6,65.2 -50.6,52.3 -50.6,39.4 -50.6,26.5 -50.6,13.6 -50.6,0.7 
				-50.6,-12.2 -50.6,-25.1 -50.6,-38 			"/>
			<polyline class="st9" points="-37.7,362 -37.7,349.1 -37.7,336.2 -37.7,323.3 -37.7,310.4 -37.7,297.5 -37.7,284.6 -37.7,271.7 
				-37.7,258.8 -37.7,245.9 -37.7,233 -37.7,220.1 -37.7,207.2 -37.7,194.3 -37.7,181.3 -37.7,168.4 -37.7,155.5 -37.7,142.6 
				-37.7,129.7 -37.7,116.8 -37.7,103.9 -37.7,91 -37.7,78.1 -37.7,65.2 -37.7,52.3 -37.7,39.4 -37.7,26.5 -37.7,13.6 -37.7,0.7 
				-37.7,-12.2 -37.7,-25.1 -37.7,-38 			"/>
			<polyline class="st9" points="-24.8,362 -24.8,349.1 -24.8,336.2 -24.8,323.3 -24.8,310.4 -24.8,297.5 -24.8,284.6 -24.8,271.7 
				-24.8,258.8 -24.8,245.9 -24.8,233 -24.8,220.1 -24.8,207.2 -24.8,194.3 -24.8,181.3 -24.8,168.4 -24.8,155.5 -24.8,142.6 
				-24.8,129.7 -24.8,116.8 -24.8,103.9 -24.8,91 -24.8,78.1 -24.8,65.2 -24.8,52.3 -24.8,39.4 -24.8,26.5 -24.8,13.6 -24.8,0.7 
				-24.8,-12.2 -24.8,-25.1 -24.8,-38 			"/>
			<polyline class="st9" points="-11.9,362 -11.9,349.1 -11.9,336.2 -11.9,323.3 -11.9,310.4 -11.9,297.5 -11.9,284.6 -11.9,271.7 
				-11.9,258.8 -11.9,245.9 -11.9,233 -11.9,220.1 -11.9,207.2 -11.9,194.3 -11.9,181.3 -11.9,168.4 -11.9,155.5 -11.9,142.6 
				-11.9,129.7 -11.9,116.8 -11.9,103.9 -11.9,91 -11.9,78.1 -11.9,65.2 -11.9,52.3 -11.9,39.4 -11.9,26.5 -11.9,13.6 -11.9,0.7 
				-11.9,-12.2 -11.9,-25.1 -11.9,-38 			"/>
			<polyline class="st9" points="1,362 1,349.1 1,336.2 1,323.3 1,310.4 1,297.5 1,284.6 1,271.7 1,258.8 1,245.9 1,233 1,220.1 
				1,207.2 1,194.3 1,181.3 1,168.4 1,155.5 1,142.6 1,129.7 1,116.8 1,103.9 1,91 1,78.1 1,65.2 1,52.3 1,39.4 1,26.5 1,13.6 
				1,0.7 1,-12.2 1,-25.1 1,-38 			"/>
			<polyline class="st9" points="13.9,362 13.9,349.1 13.9,336.2 13.9,323.3 13.9,310.4 13.9,297.5 13.9,284.6 13.9,271.7 
				13.9,258.8 13.9,245.9 13.9,233 13.9,220.1 13.9,207.2 13.9,194.3 13.9,181.3 13.9,168.4 13.9,155.5 13.9,142.6 13.9,129.7 
				13.9,116.8 13.9,103.9 13.9,91 13.9,78.1 13.9,65.2 13.9,52.3 13.9,39.4 13.9,26.5 13.9,13.6 13.9,0.7 13.9,-12.2 13.9,-25.1 
				13.9,-38 			"/>
			<polyline class="st9" points="26.8,362 26.8,349.1 26.8,336.2 26.8,323.3 26.8,310.4 26.8,297.5 26.8,284.6 26.8,271.7 
				26.8,258.8 26.8,245.9 26.8,233 26.8,220.1 26.8,207.2 26.8,194.3 26.8,181.3 26.8,168.4 26.8,155.5 26.8,142.6 26.8,129.7 
				26.8,116.8 26.8,103.9 26.8,91 26.8,78.1 26.8,65.2 26.8,52.3 26.8,39.4 26.8,26.5 26.8,13.6 26.8,0.7 26.8,-12.2 26.8,-25.1 
				26.8,-38 			"/>
			<polyline class="st9" points="39.7,362 39.7,349.1 39.7,336.2 39.7,323.3 39.7,310.4 39.7,297.5 39.7,284.6 39.7,271.7 
				39.7,258.8 39.7,245.9 39.7,233 39.7,220.1 39.7,207.2 39.7,194.3 39.7,181.3 39.7,168.4 39.7,155.5 39.7,142.6 39.7,129.7 
				39.7,116.8 39.7,103.9 39.7,91 39.7,78.1 39.7,65.2 39.7,52.3 39.7,39.4 39.7,26.5 39.7,13.6 39.7,0.7 39.7,-12.2 39.7,-25.1 
				39.7,-38 			"/>
			<polyline class="st9" points="52.6,362 52.6,349.1 52.6,336.2 52.6,323.3 52.6,310.4 52.6,297.5 52.6,284.6 52.6,271.7 
				52.6,258.8 52.6,245.9 52.6,233 52.6,220.1 52.6,207.2 52.6,194.3 52.6,181.3 52.6,168.4 52.6,155.5 52.6,142.6 52.6,129.7 
				52.6,116.8 52.6,103.9 52.6,91 52.6,78.1 52.6,65.2 52.6,52.3 52.6,39.4 52.6,26.5 52.6,13.6 52.6,0.7 52.6,-12.2 52.6,-25.1 
				52.6,-38 			"/>
			<polyline class="st9" points="65.5,362 65.5,349.1 65.5,336.2 65.5,323.3 65.5,310.4 65.5,297.5 65.5,284.6 65.5,271.7 
				65.5,258.8 65.5,245.9 65.5,233 65.5,220.1 65.5,207.2 65.5,194.3 65.5,181.3 65.5,168.4 65.5,155.5 65.5,142.6 65.5,129.7 
				65.5,116.8 65.5,103.9 65.5,91 65.5,78.1 65.5,65.2 65.5,52.3 65.5,39.4 65.5,26.5 65.5,13.6 65.5,0.7 65.5,-12.2 65.5,-25.1 
				65.5,-38 			"/>
			<polyline class="st9" points="78.4,362 78.4,349.1 78.4,336.2 78.4,323.3 78.4,310.4 78.4,297.5 78.4,284.6 78.4,271.7 
				78.4,258.8 78.4,245.9 78.4,233 78.4,220.1 78.4,207.2 78.4,194.3 78.4,181.3 78.4,168.4 78.4,155.5 78.4,142.6 78.4,129.7 
				78.4,116.8 78.4,103.9 78.4,91 78.4,78.1 78.4,65.2 78.4,52.3 78.4,39.4 78.4,26.5 78.4,13.6 78.4,0.7 78.4,-12.2 78.4,-25.1 
				78.4,-38 			"/>
			<polyline class="st9" points="91.3,362 91.3,349.1 91.3,336.2 91.3,323.3 91.3,310.4 91.3,297.5 91.3,284.6 91.3,271.7 
				91.3,258.8 91.3,245.9 91.3,233 91.3,220.1 91.3,207.2 91.3,194.3 91.3,181.3 91.3,168.4 91.3,155.5 91.3,142.6 91.3,129.7 
				91.3,116.8 91.3,103.9 91.3,91 91.3,78.1 91.3,65.2 91.3,52.3 91.3,39.4 91.3,26.5 91.3,13.6 91.3,0.7 91.3,-12.2 91.3,-25.1 
				91.3,-38 			"/>
			<polyline class="st9" points="104.2,362 104.2,349.1 104.2,336.2 104.2,323.3 104.2,310.4 104.2,297.5 104.2,284.6 104.2,271.7 
				104.2,258.8 104.2,245.9 104.2,233 104.2,220.1 104.2,207.2 104.2,194.3 104.2,181.3 104.2,168.4 104.2,155.5 104.2,142.6 
				104.2,129.7 104.2,116.8 104.2,103.9 104.2,91 104.2,78.1 104.2,65.2 104.2,52.3 104.2,39.4 104.2,26.5 104.2,13.6 104.2,0.7 
				104.2,-12.2 104.2,-25.1 104.2,-38 			"/>
			<polyline class="st9" points="117.1,362 117.1,349.1 117.1,336.2 117.1,323.3 117.1,310.4 117.1,297.5 117.1,284.6 117.1,271.7 
				117.1,258.8 117.1,245.9 117.1,233 117.1,220.1 117.1,207.2 117.1,194.3 117.1,181.3 117.1,168.4 117.1,155.5 117.1,142.6 
				117.1,129.7 117.1,116.8 117.1,103.9 117.1,91 117.1,78.1 117.1,65.2 117.1,52.3 117.1,39.4 117.1,26.5 117.1,13.6 117.1,0.7 
				117.1,-12.2 117.1,-25.1 117.1,-38 			"/>
			<polyline class="st9" points="130,362 130,349.1 130,336.2 130,323.3 130,310.4 130,297.5 130,284.6 130,271.7 130,258.8 
				130,245.9 130,233 130,220.1 130,207.2 130,194.3 130,181.3 130,168.4 130,155.5 130,142.6 130,129.7 130,116.8 130,103.9 
				130,91 130,78.1 130,65.2 130,52.3 130,39.4 130,26.5 130,13.6 130,0.7 130,-12.2 130,-25.1 130,-38 			"/>
			<polyline class="st9" points="142.9,362 142.9,349.1 142.9,336.2 142.9,323.3 142.9,310.4 142.9,297.5 142.9,284.6 142.9,271.7 
				142.9,258.8 142.9,245.9 142.9,233 142.9,220.1 142.9,207.2 142.9,194.3 142.9,181.3 142.9,168.4 142.9,155.5 142.9,142.6 
				142.9,129.7 142.9,116.8 142.9,103.9 142.9,91 142.9,78.1 142.9,65.2 142.9,52.3 142.9,39.4 142.9,26.5 142.9,13.6 142.9,0.7 
				142.9,-12.2 142.9,-25.1 142.9,-38 			"/>
			<polyline class="st9" points="155.8,362 155.8,349.1 155.8,336.2 155.8,323.3 155.8,310.4 155.8,297.5 155.8,284.6 155.8,271.7 
				155.8,258.8 155.8,245.9 155.8,233 155.8,220.1 155.8,207.2 155.8,194.3 155.8,181.3 155.8,168.4 155.8,155.5 155.8,142.6 
				155.8,129.7 155.8,116.8 155.8,103.9 155.8,91 155.8,78.1 155.8,65.2 155.8,52.3 155.8,39.4 155.8,26.5 155.8,13.6 155.8,0.7 
				155.8,-12.2 155.8,-25.1 155.8,-38 			"/>
			<polyline class="st9" points="168.7,362 168.7,349.1 168.7,336.2 168.7,323.3 168.7,310.4 168.7,297.5 168.7,284.6 168.7,271.7 
				168.7,258.8 168.7,245.9 168.7,233 168.7,220.1 168.7,207.2 168.7,194.3 168.7,181.3 168.7,168.4 168.7,155.5 168.7,142.6 
				168.7,129.7 168.7,116.8 168.7,103.9 168.7,91 168.7,78.1 168.7,65.2 168.7,52.3 168.7,39.4 168.7,26.5 168.7,13.6 168.7,0.7 
				168.7,-12.2 168.7,-25.1 168.7,-38 			"/>
			<polyline class="st9" points="181.6,362 181.6,349.1 181.6,336.2 181.6,323.3 181.6,310.4 181.6,297.5 181.6,284.6 181.6,271.7 
				181.6,258.8 181.6,245.9 181.6,233 181.6,220.1 181.6,207.2 181.6,194.3 181.6,181.3 181.6,168.4 181.6,155.5 181.6,142.6 
				181.6,129.7 181.6,116.8 181.6,103.9 181.6,91 181.6,78.1 181.6,65.2 181.6,52.3 181.6,39.4 181.6,26.5 181.6,13.6 181.6,0.7 
				181.6,-12.2 181.6,-25.1 181.6,-38 			"/>
			<polyline class="st9" points="194.5,362 194.5,349.1 194.5,336.2 194.5,323.3 194.5,310.4 194.5,297.5 194.5,284.6 194.5,271.7 
				194.5,258.8 194.5,245.9 194.5,233 194.5,220.1 194.5,207.2 194.5,194.3 194.5,181.3 194.5,168.4 194.5,155.5 194.5,142.6 
				194.5,129.7 194.5,116.8 194.5,103.9 194.5,91 194.5,78.1 194.5,65.2 194.5,52.3 194.5,39.4 194.5,26.5 194.5,13.6 194.5,0.7 
				194.5,-12.2 194.5,-25.1 194.5,-38 			"/>
			<polyline class="st9" points="207.5,362 207.5,349.1 207.5,336.2 207.5,323.3 207.5,310.4 207.5,297.5 207.5,284.6 207.5,271.7 
				207.5,258.8 207.5,245.9 207.5,233 207.5,220.1 207.5,207.2 207.5,194.3 207.5,181.3 207.5,168.4 207.5,155.5 207.5,142.6 
				207.5,129.7 207.5,116.8 207.5,103.9 207.5,91 207.5,78.1 207.5,65.2 207.5,52.3 207.5,39.4 207.5,26.5 207.5,13.6 207.5,0.7 
				207.5,-12.2 207.5,-25.1 207.5,-38 			"/>
			<polyline class="st9" points="220.4,362 220.4,349.1 220.4,336.2 220.4,323.3 220.4,310.4 220.4,297.5 220.4,284.6 220.4,271.7 
				220.4,258.8 220.4,245.9 220.4,233 220.4,220.1 220.4,207.2 220.4,194.3 220.4,181.3 220.4,168.4 220.4,155.5 220.4,142.6 
				220.4,129.7 220.4,116.8 220.4,103.9 220.4,91 220.4,78.1 220.4,65.2 220.4,52.3 220.4,39.4 220.4,26.5 220.4,13.6 220.4,0.7 
				220.4,-12.2 220.4,-25.1 220.4,-38 			"/>
			<polyline class="st9" points="233.3,362 233.3,349.1 233.3,336.2 233.3,323.3 233.3,310.4 233.3,297.5 233.3,284.6 233.3,271.7 
				233.3,258.8 233.3,245.9 233.3,233 233.3,220.1 233.3,207.2 233.3,194.3 233.3,181.3 233.3,168.4 233.3,155.5 233.3,142.6 
				233.3,129.7 233.3,116.8 233.3,103.9 233.3,91 233.3,78.1 233.3,65.2 233.3,52.3 233.3,39.4 233.3,26.5 233.3,13.6 233.3,0.7 
				233.3,-12.2 233.3,-25.1 233.3,-38 			"/>
			<polyline class="st9" points="246.2,362 246.2,349.1 246.2,336.2 246.2,323.3 246.2,310.4 246.2,297.5 246.2,284.6 246.2,271.7 
				246.2,258.8 246.2,245.9 246.2,233 246.2,220.1 246.2,207.2 246.2,194.3 246.2,181.3 246.2,168.4 246.2,155.5 246.2,142.6 
				246.2,129.7 246.2,116.8 246.2,103.9 246.2,91 246.2,78.1 246.2,65.2 246.2,52.3 246.2,39.4 246.2,26.5 246.2,13.6 246.2,0.7 
				246.2,-12.2 246.2,-25.1 246.2,-38 			"/>
			<polyline class="st9" points="259.1,362 259.1,349.1 259.1,336.2 259.1,323.3 259.1,310.4 259.1,297.5 259.1,284.6 259.1,271.7 
				259.1,258.8 259.1,245.9 259.1,233 259.1,220.1 259.1,207.2 259.1,194.3 259.1,181.3 259.1,168.4 259.1,155.5 259.1,142.6 
				259.1,129.7 259.1,116.8 259.1,103.9 259.1,91 259.1,78.1 259.1,65.2 259.1,52.3 259.1,39.4 259.1,26.5 259.1,13.6 259.1,0.7 
				259.1,-12.2 259.1,-25.1 259.1,-38 			"/>
			<polyline class="st9" points="272,362 272,349.1 272,336.2 272,323.3 272,310.4 272,297.5 272,284.6 272,271.7 272,258.8 
				272,245.9 272,233 272,220.1 272,207.2 272,194.3 272,181.3 272,168.4 272,155.5 272,142.6 272,129.7 272,116.8 272,103.9 
				272,91 272,78.1 272,65.2 272,52.3 272,39.4 272,26.5 272,13.6 272,0.7 272,-12.2 272,-25.1 272,-38 			"/>
			<polyline class="st9" points="284.9,362 284.9,349.1 284.9,336.2 284.9,323.3 284.9,310.4 284.9,297.5 284.9,284.6 284.9,271.7 
				284.9,258.8 284.9,245.9 284.9,233 284.9,220.1 284.9,207.2 284.9,194.3 284.9,181.3 284.9,168.4 284.9,155.5 284.9,142.6 
				284.9,129.7 284.9,116.8 284.9,103.9 284.9,91 284.9,78.1 284.9,65.2 284.9,52.3 284.9,39.4 284.9,26.5 284.9,13.6 284.9,0.7 
				284.9,-12.2 284.9,-25.1 284.9,-38 			"/>
			<polyline class="st9" points="297.8,362 297.8,349.1 297.8,336.2 297.8,323.3 297.8,310.4 297.8,297.5 297.8,284.6 297.8,271.7 
				297.8,258.8 297.8,245.9 297.8,233 297.8,220.1 297.8,207.2 297.8,194.3 297.8,181.3 297.8,168.4 297.8,155.5 297.8,142.6 
				297.8,129.7 297.8,116.8 297.8,103.9 297.8,91 297.8,78.1 297.8,65.2 297.8,52.3 297.8,39.4 297.8,26.5 297.8,13.6 297.8,0.7 
				297.8,-12.2 297.8,-25.1 297.8,-38 			"/>
			<polyline class="st9" points="310.7,362 310.7,349.1 310.7,336.2 310.7,323.3 310.7,310.4 310.7,297.5 310.7,284.6 310.7,271.7 
				310.7,258.8 310.7,245.9 310.7,233 310.7,220.1 310.7,207.2 310.7,194.3 310.7,181.3 310.7,168.4 310.7,155.5 310.7,142.6 
				310.7,129.7 310.7,116.8 310.7,103.9 310.7,91 310.7,78.1 310.7,65.2 310.7,52.3 310.7,39.4 310.7,26.5 310.7,13.6 310.7,0.7 
				310.7,-12.2 310.7,-25.1 310.7,-38 			"/>
			<polyline class="st9" points="323.6,362 323.6,349.1 323.6,336.2 323.6,323.3 323.6,310.4 323.6,297.5 323.6,284.6 323.6,271.7 
				323.6,258.8 323.6,245.9 323.6,233 323.6,220.1 323.6,207.2 323.6,194.3 323.6,181.3 323.6,168.4 323.6,155.5 323.6,142.6 
				323.6,129.7 323.6,116.8 323.6,103.9 323.6,91 323.6,78.1 323.6,65.2 323.6,52.3 323.6,39.4 323.6,26.5 323.6,13.6 323.6,0.7 
				323.6,-12.2 323.6,-25.1 323.6,-38 			"/>
		</g>
	</g>
	
		<image style="display:none;overflow:visible;enable-background:new    ;" width="256" height="256" xlink:href="CA67951A.png"  transform="matrix(1 0 0 1 316.48 123)">
	</image>
	<rect x="130" y="52.2" class="st10" width="13" height="13"/>
	<rect x="168.7" y="52.3" class="st10" width="13" height="13"/>
	<rect x="133.5" y="55" width="7" height="7"/>
	<rect x="172.5" y="55" width="7" height="7"/>
	<rect x="130" y="52" width="13" height="3"/>
	<rect x="168.7" y="52" width="13" height="3"/>
</g>
</svg>
