<?xml version="1.0" encoding="utf-8"?>
<!-- Generator: Adobe Illustrator 23.0.1, SVG Export Plug-In . SVG Version: 6.00 Build 0)  -->
<svg version="1.1" id="Calque_1" xmlns="http://www.w3.org/2000/svg" xmlns:xlink="http://www.w3.org/1999/xlink" x="0px" y="0px"
	 viewBox="0 0 81.8 62.5" style="enable-background:new 0 0 81.8 62.5;" xml:space="preserve">
<style type="text/css">
	.st0{display:none;}
	.st1{display:inline;fill:none;stroke:#000000;stroke-miterlimit:10;}
</style>
<g>
	<g id="XMLID_1_">
		<g>
			<rect x="72.7" y="50" width="9.1" height="6.3"/>
			<rect x="72.7" y="43.8" width="9.1" height="6.3"/>
			<rect x="63.6" y="43.8" width="9.1" height="6.3"/>
			<rect x="63.6" y="37.5" width="9.1" height="6.3"/>
			<rect x="63.6" y="31.3" width="9.1" height="6.3"/>
			<rect x="63.6" y="25" width="9.1" height="6.3"/>
			<rect x="63.6" y="18.8" width="9.1" height="6.3"/>
			<rect x="63.6" y="12.5" width="9.1" height="6.3"/>
			<rect x="54.5" y="56.3" width="9.1" height="6.3"/>
			<rect x="54.5" y="18.8" width="9.1" height="6.3"/>
			<rect x="54.5" y="6.3" width="9.1" height="6.3"/>
			<rect x="54.5" width="9.1" height="6.3"/>
			<rect x="45.5" y="50" width="9.1" height="6.3"/>
			<rect x="45.5" y="43.8" width="9.1" height="6.3"/>
			<rect x="45.5" y="37.5" width="9.1" height="6.3"/>
			<rect x="45.5" y="31.3" width="9.1" height="6.3"/>
			<rect x="45.5" y="25" width="9.1" height="6.3"/>
			<rect x="45.5" y="18.8" width="9.1" height="6.3"/>
			<rect x="45.5" y="12.5" width="9.1" height="6.3"/>
			<rect x="45.5" y="6.3" width="9.1" height="6.3"/>
			<rect x="36.4" y="43.8" width="9.1" height="6.3"/>
			<rect x="36.4" y="25" width="9.1" height="6.3"/>
			<rect x="36.4" y="18.8" width="9.1" height="6.3"/>
			<rect x="36.4" y="12.5" width="9.1" height="6.3"/>
			<rect x="36.4" y="6.3" width="9.1" height="6.3"/>
			<rect x="27.3" y="50" width="9.1" height="6.3"/>
			<rect x="27.3" y="43.8" width="9.1" height="6.3"/>
			<rect x="27.3" y="37.5" width="9.1" height="6.3"/>
			<rect x="27.3" y="31.3" width="9.1" height="6.3"/>
			<rect x="27.3" y="25" width="9.1" height="6.3"/>
			<rect x="27.3" y="18.8" width="9.1" height="6.3"/>
			<rect x="27.3" y="12.5" width="9.1" height="6.3"/>
			<rect x="27.3" y="6.3" width="9.1" height="6.3"/>
			<rect x="18.2" y="56.3" width="9.1" height="6.3"/>
			<rect x="18.2" y="18.8" width="9.1" height="6.3"/>
			<rect x="18.2" y="6.3" width="9.1" height="6.3"/>
			<rect x="18.2" width="9.1" height="6.3"/>
			<rect x="9.1" y="43.8" width="9.1" height="6.3"/>
			<rect x="9.1" y="37.5" width="9.1" height="6.3"/>
			<rect x="9.1" y="31.3" width="9.1" height="6.3"/>
			<rect x="9.1" y="25" width="9.1" height="6.3"/>
			<rect x="9.1" y="18.8" width="9.1" height="6.3"/>
			<rect x="9.1" y="12.5" width="9.1" height="6.3"/>
			<rect y="50" width="9.1" height="6.3"/>
			<rect y="43.8" width="9.1" height="6.3"/>
		</g>
		<g class="st0">
			<polygon class="st1" points="-9.1,68.8 -9.1,75 0,75 9.1,75 18.2,75 27.3,75 36.4,75 45.5,75 54.5,75 63.6,75 72.7,75 81.8,75 
				90.9,75 90.9,68.8 90.9,62.5 90.9,56.3 90.9,50 90.9,43.8 90.9,37.5 90.9,31.3 90.9,25 90.9,18.8 90.9,12.5 90.9,6.3 90.9,0 
				90.9,-6.3 90.9,-12.5 90.9,-18.8 90.9,-25 81.8,-25 72.7,-25 63.6,-25 54.5,-25 45.5,-25 36.4,-25 27.3,-25 18.2,-25 9.1,-25 
				0,-25 -9.1,-25 -9.1,-18.8 -9.1,-12.5 -9.1,-6.3 -9.1,0 -9.1,6.3 -9.1,12.5 -9.1,18.8 -9.1,25 -9.1,31.3 -9.1,37.5 -9.1,43.8 
				-9.1,50 -9.1,56.3 -9.1,62.5 			"/>
			<polyline class="st1" points="-9.1,-18.8 0,-18.8 9.1,-18.8 18.2,-18.8 27.3,-18.8 36.4,-18.8 45.5,-18.8 54.5,-18.8 63.6,-18.8 
				72.7,-18.8 81.8,-18.8 90.9,-18.8 			"/>
			<polyline class="st1" points="-9.1,-12.5 0,-12.5 9.1,-12.5 18.2,-12.5 27.3,-12.5 36.4,-12.5 45.5,-12.5 54.5,-12.5 63.6,-12.5 
				72.7,-12.5 81.8,-12.5 90.9,-12.5 			"/>
			<polyline class="st1" points="-9.1,-6.3 0,-6.3 9.1,-6.3 18.2,-6.3 27.3,-6.3 36.4,-6.3 45.5,-6.3 54.5,-6.3 63.6,-6.3 
				72.7,-6.3 81.8,-6.3 90.9,-6.3 			"/>
			<polyline class="st1" points="-9.1,0 0,0 9.1,0 18.2,0 27.3,0 36.4,0 45.5,0 54.5,0 63.6,0 72.7,0 81.8,0 90.9,0 			"/>
			<polyline class="st1" points="-9.1,6.3 0,6.3 9.1,6.3 18.2,6.3 27.3,6.3 36.4,6.3 45.5,6.3 54.5,6.3 63.6,6.3 72.7,6.3 81.8,6.3 
				90.9,6.3 			"/>
			<polyline class="st1" points="-9.1,12.5 0,12.5 9.1,12.5 18.2,12.5 27.3,12.5 36.4,12.5 45.5,12.5 54.5,12.5 63.6,12.5 
				72.7,12.5 81.8,12.5 90.9,12.5 			"/>
			<polyline class="st1" points="-9.1,18.8 0,18.8 9.1,18.8 18.2,18.8 27.3,18.8 36.4,18.8 45.5,18.8 54.5,18.8 63.6,18.8 
				72.7,18.8 81.8,18.8 90.9,18.8 			"/>
			<polyline class="st1" points="-9.1,25 0,25 9.1,25 18.2,25 27.3,25 36.4,25 45.5,25 54.5,25 63.6,25 72.7,25 81.8,25 90.9,25 			
				"/>
			<polyline class="st1" points="-9.1,31.3 0,31.3 9.1,31.3 18.2,31.3 27.3,31.3 36.4,31.3 45.5,31.3 54.5,31.3 63.6,31.3 
				72.7,31.3 81.8,31.3 90.9,31.3 			"/>
			<polyline class="st1" points="-9.1,37.5 0,37.5 9.1,37.5 18.2,37.5 27.3,37.5 36.4,37.5 45.5,37.5 54.5,37.5 63.6,37.5 
				72.7,37.5 81.8,37.5 90.9,37.5 			"/>
			<polyline class="st1" points="-9.1,43.8 0,43.8 9.1,43.8 18.2,43.8 27.3,43.8 36.4,43.8 45.5,43.8 54.5,43.8 63.6,43.8 
				72.7,43.8 81.8,43.8 90.9,43.8 			"/>
			<polyline class="st1" points="-9.1,50 0,50 9.1,50 18.2,50 27.3,50 36.4,50 45.5,50 54.5,50 63.6,50 72.7,50 81.8,50 90.9,50 			
				"/>
			<polyline class="st1" points="-9.1,56.3 0,56.3 9.1,56.3 18.2,56.3 27.3,56.3 36.4,56.3 45.5,56.3 54.5,56.3 63.6,56.3 
				72.7,56.3 81.8,56.3 90.9,56.3 			"/>
			<polyline class="st1" points="-9.1,62.5 0,62.5 9.1,62.5 18.2,62.5 27.3,62.5 36.4,62.5 45.5,62.5 54.5,62.5 63.6,62.5 
				72.7,62.5 81.8,62.5 90.9,62.5 			"/>
			<polyline class="st1" points="-9.1,68.8 0,68.8 9.1,68.8 18.2,68.8 27.3,68.8 36.4,68.8 45.5,68.8 54.5,68.8 63.6,68.8 
				72.7,68.8 81.8,68.8 90.9,68.8 			"/>
			<polyline class="st1" points="81.8,75 81.8,68.8 81.8,62.5 81.8,56.3 81.8,50 81.8,43.8 81.8,37.5 81.8,31.3 81.8,25 81.8,18.8 
				81.8,12.5 81.8,6.3 81.8,0 81.8,-6.3 81.8,-12.5 81.8,-18.8 81.8,-25 			"/>
			<polyline class="st1" points="72.7,75 72.7,68.8 72.7,62.5 72.7,56.3 72.7,50 72.7,43.8 72.7,37.5 72.7,31.3 72.7,25 72.7,18.8 
				72.7,12.5 72.7,6.3 72.7,0 72.7,-6.3 72.7,-12.5 72.7,-18.8 72.7,-25 			"/>
			<polyline class="st1" points="63.6,75 63.6,68.8 63.6,62.5 63.6,56.3 63.6,50 63.6,43.8 63.6,37.5 63.6,31.3 63.6,25 63.6,18.8 
				63.6,12.5 63.6,6.3 63.6,0 63.6,-6.3 63.6,-12.5 63.6,-18.8 63.6,-25 			"/>
			<polyline class="st1" points="54.5,75 54.5,68.8 54.5,62.5 54.5,56.3 54.5,50 54.5,43.8 54.5,37.5 54.5,31.3 54.5,25 54.5,18.8 
				54.5,12.5 54.5,6.3 54.5,0 54.5,-6.3 54.5,-12.5 54.5,-18.8 54.5,-25 			"/>
			<polyline class="st1" points="45.5,75 45.5,68.8 45.5,62.5 45.5,56.3 45.5,50 45.5,43.8 45.5,37.5 45.5,31.3 45.5,25 45.5,18.8 
				45.5,12.5 45.5,6.3 45.5,0 45.5,-6.3 45.5,-12.5 45.5,-18.8 45.5,-25 			"/>
			<polyline class="st1" points="36.4,75 36.4,68.8 36.4,62.5 36.4,56.3 36.4,50 36.4,43.8 36.4,37.5 36.4,31.3 36.4,25 36.4,18.8 
				36.4,12.5 36.4,6.3 36.4,0 36.4,-6.3 36.4,-12.5 36.4,-18.8 36.4,-25 			"/>
			<polyline class="st1" points="27.3,75 27.3,68.8 27.3,62.5 27.3,56.3 27.3,50 27.3,43.8 27.3,37.5 27.3,31.3 27.3,25 27.3,18.8 
				27.3,12.5 27.3,6.3 27.3,0 27.3,-6.3 27.3,-12.5 27.3,-18.8 27.3,-25 			"/>
			<polyline class="st1" points="18.2,75 18.2,68.8 18.2,62.5 18.2,56.3 18.2,50 18.2,43.8 18.2,37.5 18.2,31.3 18.2,25 18.2,18.8 
				18.2,12.5 18.2,6.3 18.2,0 18.2,-6.3 18.2,-12.5 18.2,-18.8 18.2,-25 			"/>
			<polyline class="st1" points="9.1,75 9.1,68.8 9.1,62.5 9.1,56.3 9.1,50 9.1,43.8 9.1,37.5 9.1,31.3 9.1,25 9.1,18.8 9.1,12.5 
				9.1,6.3 9.1,0 9.1,-6.3 9.1,-12.5 9.1,-18.8 9.1,-25 			"/>
			<polyline class="st1" points="0,75 0,68.8 0,62.5 0,56.3 0,50 0,43.8 0,37.5 0,31.3 0,25 0,18.8 0,12.5 0,6.3 0,0 0,-6.3 
				0,-12.5 0,-18.8 0,-25 			"/>
		</g>
	</g>
	<g id="_x37_hcskS_1_" class="st0">
		
			<image style="display:inline;overflow:visible;enable-background:new    ;" width="450" height="383" id="_x37_hcskS" xlink:href="7E172B37.jpeg"  transform="matrix(0.2381 0 0 0.2381 -124.667 -27)">
		</image>
	</g>
</g>
</svg>
